<?xml version="1.0" encoding="utf-8" standalone="no"?>
<!DOCTYPE svg PUBLIC "-//W3C//DTD SVG 1.1//EN"
  "http://www.w3.org/Graphics/SVG/1.1/DTD/svg11.dtd">
<!-- Created with matplotlib (https://matplotlib.org/) -->
<svg height="288pt" version="1.1" viewBox="0 0 288 288" width="288pt" xmlns="http://www.w3.org/2000/svg" xmlns:xlink="http://www.w3.org/1999/xlink">
 <defs>
  <style type="text/css">
*{stroke-linecap:butt;stroke-linejoin:round;}
  </style>
 </defs>
 <g id="figure_1">
  <g id="patch_1">
   <path d="M 0 288 
L 288 288 
L 288 0 
L 0 0 
z
" style="fill:#ffffff;"/>
  </g>
  <g id="axes_1">
   <g id="patch_2">
    <path d="M 44.925 263.7 
L 277.2 263.7 
L 277.2 10.8 
L 44.925 10.8 
z
" style="fill:#ffffff;"/>
   </g>
   <g id="matplotlib.axis_1">
    <g id="xtick_1">
     <g id="line2d_1">
      <defs>
       <path d="M 0 0 
L 0 -3.5 
" id="m7cc8d135fc" style="stroke:#000000;stroke-width:0.8;"/>
      </defs>
      <g>
       <use style="stroke:#000000;stroke-width:0.8;" x="55.482955" xlink:href="#m7cc8d135fc" y="263.7"/>
      </g>
     </g>
     <g id="text_1">
      <!-- 0 -->
      <defs>
       <path d="M 31.78125 66.40625 
Q 24.171875 66.40625 20.328125 58.90625 
Q 16.5 51.421875 16.5 36.375 
Q 16.5 21.390625 20.328125 13.890625 
Q 24.171875 6.390625 31.78125 6.390625 
Q 39.453125 6.390625 43.28125 13.890625 
Q 47.125 21.390625 47.125 36.375 
Q 47.125 51.421875 43.28125 58.90625 
Q 39.453125 66.40625 31.78125 66.40625 
z
M 31.78125 74.21875 
Q 44.046875 74.21875 50.515625 64.515625 
Q 56.984375 54.828125 56.984375 36.375 
Q 56.984375 17.96875 50.515625 8.265625 
Q 44.046875 -1.421875 31.78125 -1.421875 
Q 19.53125 -1.421875 13.0625 8.265625 
Q 6.59375 17.96875 6.59375 36.375 
Q 6.59375 54.828125 13.0625 64.515625 
Q 19.53125 74.21875 31.78125 74.21875 
z
" id="DejaVuSans-48"/>
      </defs>
      <g transform="translate(52.301705 274.798438)scale(0.1 -0.1)">
       <use xlink:href="#DejaVuSans-48"/>
      </g>
     </g>
    </g>
    <g id="xtick_2">
     <g id="line2d_2">
      <g>
       <use style="stroke:#000000;stroke-width:0.8;" x="121.780942" xlink:href="#m7cc8d135fc" y="263.7"/>
      </g>
     </g>
     <g id="text_2">
      <!-- 5 -->
      <defs>
       <path d="M 10.796875 72.90625 
L 49.515625 72.90625 
L 49.515625 64.59375 
L 19.828125 64.59375 
L 19.828125 46.734375 
Q 21.96875 47.46875 24.109375 47.828125 
Q 26.265625 48.1875 28.421875 48.1875 
Q 40.625 48.1875 47.75 41.5 
Q 54.890625 34.8125 54.890625 23.390625 
Q 54.890625 11.625 47.5625 5.09375 
Q 40.234375 -1.421875 26.90625 -1.421875 
Q 22.3125 -1.421875 17.546875 -0.640625 
Q 12.796875 0.140625 7.71875 1.703125 
L 7.71875 11.625 
Q 12.109375 9.234375 16.796875 8.0625 
Q 21.484375 6.890625 26.703125 6.890625 
Q 35.15625 6.890625 40.078125 11.328125 
Q 45.015625 15.765625 45.015625 23.390625 
Q 45.015625 31 40.078125 35.4375 
Q 35.15625 39.890625 26.703125 39.890625 
Q 22.75 39.890625 18.8125 39.015625 
Q 14.890625 38.140625 10.796875 36.28125 
z
" id="DejaVuSans-53"/>
      </defs>
      <g transform="translate(118.599692 274.798438)scale(0.1 -0.1)">
       <use xlink:href="#DejaVuSans-53"/>
      </g>
     </g>
    </g>
    <g id="xtick_3">
     <g id="line2d_3">
      <g>
       <use style="stroke:#000000;stroke-width:0.8;" x="188.07893" xlink:href="#m7cc8d135fc" y="263.7"/>
      </g>
     </g>
     <g id="text_3">
      <!-- 10 -->
      <defs>
       <path d="M 12.40625 8.296875 
L 28.515625 8.296875 
L 28.515625 63.921875 
L 10.984375 60.40625 
L 10.984375 69.390625 
L 28.421875 72.90625 
L 38.28125 72.90625 
L 38.28125 8.296875 
L 54.390625 8.296875 
L 54.390625 0 
L 12.40625 0 
z
" id="DejaVuSans-49"/>
      </defs>
      <g transform="translate(181.71643 274.798438)scale(0.1 -0.1)">
       <use xlink:href="#DejaVuSans-49"/>
       <use x="63.623047" xlink:href="#DejaVuSans-48"/>
      </g>
     </g>
    </g>
    <g id="xtick_4">
     <g id="line2d_4">
      <g>
       <use style="stroke:#000000;stroke-width:0.8;" x="254.376918" xlink:href="#m7cc8d135fc" y="263.7"/>
      </g>
     </g>
     <g id="text_4">
      <!-- 15 -->
      <g transform="translate(248.014418 274.798438)scale(0.1 -0.1)">
       <use xlink:href="#DejaVuSans-49"/>
       <use x="63.623047" xlink:href="#DejaVuSans-53"/>
      </g>
     </g>
    </g>
   </g>
   <g id="matplotlib.axis_2">
    <g id="ytick_1">
     <g id="line2d_5">
      <defs>
       <path d="M 0 0 
L 3.5 0 
" id="mcb1ebb2ad4" style="stroke:#000000;stroke-width:0.8;"/>
      </defs>
      <g>
       <use style="stroke:#000000;stroke-width:0.8;" x="44.925" xlink:href="#mcb1ebb2ad4" y="248.855739"/>
      </g>
     </g>
     <g id="text_5">
      <!-- −0.79 -->
      <defs>
       <path d="M 10.59375 35.5 
L 73.1875 35.5 
L 73.1875 27.203125 
L 10.59375 27.203125 
z
" id="DejaVuSans-8722"/>
       <path d="M 10.6875 12.40625 
L 21 12.40625 
L 21 0 
L 10.6875 0 
z
" id="DejaVuSans-46"/>
       <path d="M 8.203125 72.90625 
L 55.078125 72.90625 
L 55.078125 68.703125 
L 28.609375 0 
L 18.3125 0 
L 43.21875 64.59375 
L 8.203125 64.59375 
z
" id="DejaVuSans-55"/>
       <path d="M 10.984375 1.515625 
L 10.984375 10.5 
Q 14.703125 8.734375 18.5 7.8125 
Q 22.3125 6.890625 25.984375 6.890625 
Q 35.75 6.890625 40.890625 13.453125 
Q 46.046875 20.015625 46.78125 33.40625 
Q 43.953125 29.203125 39.59375 26.953125 
Q 35.25 24.703125 29.984375 24.703125 
Q 19.046875 24.703125 12.671875 31.3125 
Q 6.296875 37.9375 6.296875 49.421875 
Q 6.296875 60.640625 12.9375 67.421875 
Q 19.578125 74.21875 30.609375 74.21875 
Q 43.265625 74.21875 49.921875 64.515625 
Q 56.59375 54.828125 56.59375 36.375 
Q 56.59375 19.140625 48.40625 8.859375 
Q 40.234375 -1.421875 26.421875 -1.421875 
Q 22.703125 -1.421875 18.890625 -0.6875 
Q 15.09375 0.046875 10.984375 1.515625 
z
M 30.609375 32.421875 
Q 37.25 32.421875 41.125 36.953125 
Q 45.015625 41.5 45.015625 49.421875 
Q 45.015625 57.28125 41.125 61.84375 
Q 37.25 66.40625 30.609375 66.40625 
Q 23.96875 66.40625 20.09375 61.84375 
Q 16.21875 57.28125 16.21875 49.421875 
Q 16.21875 41.5 20.09375 36.953125 
Q 23.96875 32.421875 30.609375 32.421875 
z
" id="DejaVuSans-57"/>
      </defs>
      <g transform="translate(10.779688 252.654958)scale(0.1 -0.1)">
       <use xlink:href="#DejaVuSans-8722"/>
       <use x="83.789062" xlink:href="#DejaVuSans-48"/>
       <use x="147.412109" xlink:href="#DejaVuSans-46"/>
       <use x="179.199219" xlink:href="#DejaVuSans-55"/>
       <use x="242.822266" xlink:href="#DejaVuSans-57"/>
      </g>
     </g>
    </g>
    <g id="ytick_2">
     <g id="line2d_6">
      <g>
       <use style="stroke:#000000;stroke-width:0.8;" x="44.925" xlink:href="#mcb1ebb2ad4" y="203.543767"/>
      </g>
     </g>
     <g id="text_6">
      <!-- 0.00 -->
      <g transform="translate(19.159375 207.342986)scale(0.1 -0.1)">
       <use xlink:href="#DejaVuSans-48"/>
       <use x="63.623047" xlink:href="#DejaVuSans-46"/>
       <use x="95.410156" xlink:href="#DejaVuSans-48"/>
       <use x="159.033203" xlink:href="#DejaVuSans-48"/>
      </g>
     </g>
    </g>
    <g id="ytick_3">
     <g id="line2d_7">
      <g>
       <use style="stroke:#000000;stroke-width:0.8;" x="44.925" xlink:href="#mcb1ebb2ad4" y="158.231795"/>
      </g>
     </g>
     <g id="text_7">
      <!-- 0.79 -->
      <g transform="translate(19.159375 162.031014)scale(0.1 -0.1)">
       <use xlink:href="#DejaVuSans-48"/>
       <use x="63.623047" xlink:href="#DejaVuSans-46"/>
       <use x="95.410156" xlink:href="#DejaVuSans-55"/>
       <use x="159.033203" xlink:href="#DejaVuSans-57"/>
      </g>
     </g>
    </g>
    <g id="ytick_4">
     <g id="line2d_8">
      <g>
       <use style="stroke:#000000;stroke-width:0.8;" x="44.925" xlink:href="#mcb1ebb2ad4" y="112.919823"/>
      </g>
     </g>
     <g id="text_8">
      <!-- 1.57 -->
      <g transform="translate(19.159375 116.719042)scale(0.1 -0.1)">
       <use xlink:href="#DejaVuSans-49"/>
       <use x="63.623047" xlink:href="#DejaVuSans-46"/>
       <use x="95.410156" xlink:href="#DejaVuSans-53"/>
       <use x="159.033203" xlink:href="#DejaVuSans-55"/>
      </g>
     </g>
    </g>
    <g id="ytick_5">
     <g id="line2d_9">
      <g>
       <use style="stroke:#000000;stroke-width:0.8;" x="44.925" xlink:href="#mcb1ebb2ad4" y="67.607851"/>
      </g>
     </g>
     <g id="text_9">
      <!-- 2.36 -->
      <defs>
       <path d="M 19.1875 8.296875 
L 53.609375 8.296875 
L 53.609375 0 
L 7.328125 0 
L 7.328125 8.296875 
Q 12.9375 14.109375 22.625 23.890625 
Q 32.328125 33.6875 34.8125 36.53125 
Q 39.546875 41.84375 41.421875 45.53125 
Q 43.3125 49.21875 43.3125 52.78125 
Q 43.3125 58.59375 39.234375 62.25 
Q 35.15625 65.921875 28.609375 65.921875 
Q 23.96875 65.921875 18.8125 64.3125 
Q 13.671875 62.703125 7.8125 59.421875 
L 7.8125 69.390625 
Q 13.765625 71.78125 18.9375 73 
Q 24.125 74.21875 28.421875 74.21875 
Q 39.75 74.21875 46.484375 68.546875 
Q 53.21875 62.890625 53.21875 53.421875 
Q 53.21875 48.921875 51.53125 44.890625 
Q 49.859375 40.875 45.40625 35.40625 
Q 44.1875 33.984375 37.640625 27.21875 
Q 31.109375 20.453125 19.1875 8.296875 
z
" id="DejaVuSans-50"/>
       <path d="M 40.578125 39.3125 
Q 47.65625 37.796875 51.625 33 
Q 55.609375 28.21875 55.609375 21.1875 
Q 55.609375 10.40625 48.1875 4.484375 
Q 40.765625 -1.421875 27.09375 -1.421875 
Q 22.515625 -1.421875 17.65625 -0.515625 
Q 12.796875 0.390625 7.625 2.203125 
L 7.625 11.71875 
Q 11.71875 9.328125 16.59375 8.109375 
Q 21.484375 6.890625 26.8125 6.890625 
Q 36.078125 6.890625 40.9375 10.546875 
Q 45.796875 14.203125 45.796875 21.1875 
Q 45.796875 27.640625 41.28125 31.265625 
Q 36.765625 34.90625 28.71875 34.90625 
L 20.21875 34.90625 
L 20.21875 43.015625 
L 29.109375 43.015625 
Q 36.375 43.015625 40.234375 45.921875 
Q 44.09375 48.828125 44.09375 54.296875 
Q 44.09375 59.90625 40.109375 62.90625 
Q 36.140625 65.921875 28.71875 65.921875 
Q 24.65625 65.921875 20.015625 65.03125 
Q 15.375 64.15625 9.8125 62.3125 
L 9.8125 71.09375 
Q 15.4375 72.65625 20.34375 73.4375 
Q 25.25 74.21875 29.59375 74.21875 
Q 40.828125 74.21875 47.359375 69.109375 
Q 53.90625 64.015625 53.90625 55.328125 
Q 53.90625 49.265625 50.4375 45.09375 
Q 46.96875 40.921875 40.578125 39.3125 
z
" id="DejaVuSans-51"/>
       <path d="M 33.015625 40.375 
Q 26.375 40.375 22.484375 35.828125 
Q 18.609375 31.296875 18.609375 23.390625 
Q 18.609375 15.53125 22.484375 10.953125 
Q 26.375 6.390625 33.015625 6.390625 
Q 39.65625 6.390625 43.53125 10.953125 
Q 47.40625 15.53125 47.40625 23.390625 
Q 47.40625 31.296875 43.53125 35.828125 
Q 39.65625 40.375 33.015625 40.375 
z
M 52.59375 71.296875 
L 52.59375 62.3125 
Q 48.875 64.0625 45.09375 64.984375 
Q 41.3125 65.921875 37.59375 65.921875 
Q 27.828125 65.921875 22.671875 59.328125 
Q 17.53125 52.734375 16.796875 39.40625 
Q 19.671875 43.65625 24.015625 45.921875 
Q 28.375 48.1875 33.59375 48.1875 
Q 44.578125 48.1875 50.953125 41.515625 
Q 57.328125 34.859375 57.328125 23.390625 
Q 57.328125 12.15625 50.6875 5.359375 
Q 44.046875 -1.421875 33.015625 -1.421875 
Q 20.359375 -1.421875 13.671875 8.265625 
Q 6.984375 17.96875 6.984375 36.375 
Q 6.984375 53.65625 15.1875 63.9375 
Q 23.390625 74.21875 37.203125 74.21875 
Q 40.921875 74.21875 44.703125 73.484375 
Q 48.484375 72.75 52.59375 71.296875 
z
" id="DejaVuSans-54"/>
      </defs>
      <g transform="translate(19.159375 71.407069)scale(0.1 -0.1)">
       <use xlink:href="#DejaVuSans-50"/>
       <use x="63.623047" xlink:href="#DejaVuSans-46"/>
       <use x="95.410156" xlink:href="#DejaVuSans-51"/>
       <use x="159.033203" xlink:href="#DejaVuSans-54"/>
      </g>
     </g>
    </g>
    <g id="ytick_6">
     <g id="line2d_10">
      <g>
       <use style="stroke:#000000;stroke-width:0.8;" x="44.925" xlink:href="#mcb1ebb2ad4" y="22.295878"/>
      </g>
     </g>
     <g id="text_10">
      <!-- 3.14 -->
      <defs>
       <path d="M 37.796875 64.3125 
L 12.890625 25.390625 
L 37.796875 25.390625 
z
M 35.203125 72.90625 
L 47.609375 72.90625 
L 47.609375 25.390625 
L 58.015625 25.390625 
L 58.015625 17.1875 
L 47.609375 17.1875 
L 47.609375 0 
L 37.796875 0 
L 37.796875 17.1875 
L 4.890625 17.1875 
L 4.890625 26.703125 
z
" id="DejaVuSans-52"/>
      </defs>
      <g transform="translate(19.159375 26.095097)scale(0.1 -0.1)">
       <use xlink:href="#DejaVuSans-51"/>
       <use x="63.623047" xlink:href="#DejaVuSans-46"/>
       <use x="95.410156" xlink:href="#DejaVuSans-49"/>
       <use x="159.033203" xlink:href="#DejaVuSans-52"/>
      </g>
     </g>
    </g>
   </g>
   <g id="line2d_11">
    <path clip-path="url(#p146fbf01b5)" d="M 55.482955 203.543767 
L 56.256431 200.041254 
L 57.803384 200.668492 
L 58.576861 200.43835 
L 59.350337 202.268176 
L 60.123814 199.798215 
L 60.89729 202.670194 
L 61.670767 199.410424 
L 62.444243 201.512768 
L 63.21772 200.086121 
L 63.991196 199.221873 
L 64.764673 199.584399 
L 65.538149 197.947812 
L 66.311626 199.995304 
L 67.085102 198.961419 
L 67.858579 199.17905 
L 68.632055 197.620535 
L 70.179008 198.481531 
L 70.952485 197.706361 
L 71.725962 198.835257 
L 72.499438 195.584484 
L 73.272915 195.762523 
L 74.046391 195.644134 
L 74.819868 194.112645 
L 75.593344 193.405402 
L 76.366821 194.22175 
L 77.140297 192.918172 
L 77.913774 192.682556 
L 78.68725 191.545621 
L 79.460727 189.725328 
L 80.234203 188.895937 
L 81.00768 190.436926 
L 81.781156 187.349651 
L 82.554633 185.793587 
L 83.328109 187.487482 
L 84.101586 186.8006 
L 84.875062 186.859728 
L 85.648539 184.307437 
L 86.422015 184.757554 
L 87.195492 185.773163 
L 87.968969 186.336957 
L 89.515922 186.371905 
L 90.289398 187.719241 
L 91.062875 184.58071 
L 91.836351 185.46515 
L 92.609828 183.919929 
L 93.383304 184.837857 
L 94.156781 182.568331 
L 94.930257 184.241629 
L 95.703734 183.525 
L 96.47721 180.737757 
L 97.250687 179.819604 
L 98.024163 179.787655 
L 98.79764 181.307913 
L 99.571116 179.236721 
L 100.344593 180.48689 
L 101.118069 181.328508 
L 101.891546 180.876748 
L 102.665022 177.832902 
L 103.438499 179.53382 
L 104.211976 178.045269 
L 104.985452 177.096393 
L 105.758929 178.065213 
L 106.532405 178.459754 
L 107.305882 180.407172 
L 108.079358 178.525408 
L 108.852835 180.752944 
L 109.626311 178.611934 
L 110.399788 178.031718 
L 111.173264 175.916381 
L 111.946741 177.23831 
L 112.720217 175.065502 
L 113.493694 177.625934 
L 114.26717 176.432227 
L 115.040647 177.023547 
L 115.814123 177.358028 
L 116.5876 177.207922 
L 117.361076 181.143461 
L 118.134553 175.716992 
L 118.908029 179.369086 
L 119.681506 177.284562 
L 120.454983 177.180339 
L 121.228459 175.422128 
L 122.001936 179.548593 
L 122.775412 177.24541 
L 123.548889 178.115566 
L 124.322365 177.828753 
L 125.095842 175.455275 
L 125.869318 176.33914 
L 126.642795 176.667494 
L 127.416271 176.593804 
L 128.189748 176.660161 
L 128.963224 177.699609 
L 129.736701 175.715308 
L 130.510177 176.440667 
L 131.283654 175.403623 
L 132.05713 175.465915 
L 132.830607 175.128198 
L 133.604083 175.010944 
L 134.37756 174.703594 
L 135.151036 176.018096 
L 135.924513 174.497441 
L 136.69799 176.580726 
L 137.471466 176.100107 
L 139.018419 176.096755 
L 139.791896 177.852614 
L 140.565372 178.271157 
L 141.338849 176.641837 
L 142.112325 177.341418 
L 142.885802 175.463813 
L 143.659278 175.248685 
L 144.432755 174.368787 
L 145.206231 174.363765 
L 145.979708 178.002201 
L 146.753184 176.39692 
L 147.526661 175.82761 
L 148.300137 177.588578 
L 149.073614 176.72865 
L 149.84709 179.498557 
L 150.620567 177.279351 
L 151.394043 179.800193 
L 152.16752 180.236254 
L 152.940997 178.844383 
L 153.714473 180.336248 
L 154.48795 180.8911 
L 155.261426 180.12574 
L 157.581856 184.06108 
L 158.355332 184.266795 
L 159.902285 189.599657 
L 160.675762 195.120394 
L 161.449238 195.657151 
L 162.222715 197.995563 
L 162.996191 207.035288 
L 163.769668 207.982202 
L 164.543144 214.91478 
L 166.090097 230.683801 
L 166.863574 241.040338 
L 168.410527 252.204545 
L 169.184003 250.029203 
L 169.95748 250.78351 
L 170.730957 250.22098 
L 171.504433 244.265602 
L 172.27791 243.157424 
L 173.051386 239.013426 
L 173.824863 237.991212 
L 175.371816 241.651821 
L 176.145292 242.002822 
L 176.918769 242.791501 
L 177.692245 244.015119 
L 178.465722 245.486525 
L 180.012675 242.696658 
L 180.786151 241.941494 
L 181.559628 243.386621 
L 182.333104 240.11473 
L 183.106581 242.173317 
L 183.880057 238.815265 
L 184.653534 239.932299 
L 185.42701 240.518025 
L 186.200487 240.46284 
L 186.973964 240.958206 
L 187.74744 238.822192 
L 188.520917 241.132207 
L 189.294393 238.761539 
L 190.06787 239.336027 
L 190.841346 241.45763 
L 191.614823 239.139215 
L 192.388299 239.281179 
L 193.161776 238.502912 
L 193.935252 238.480013 
L 194.708729 237.712651 
L 195.482205 239.973944 
L 196.255682 237.042213 
L 197.029158 237.349388 
L 197.802635 238.844442 
L 198.576111 238.389579 
L 199.349588 236.825243 
L 200.123064 238.113657 
L 200.896541 237.140149 
L 201.670017 237.831112 
L 202.443494 238.162789 
L 203.216971 235.413368 
L 203.990447 237.373612 
L 204.763924 236.178614 
L 205.5374 236.016116 
L 206.310877 236.245128 
L 207.084353 237.104828 
L 207.85783 236.5654 
L 208.631306 236.236112 
L 209.404783 236.109499 
L 210.178259 235.331172 
L 210.951736 234.266663 
L 211.725212 233.726078 
L 212.498689 234.362921 
L 213.272165 232.930752 
L 214.045642 232.469415 
L 214.819118 233.215968 
L 215.592595 234.153572 
L 216.366071 233.451657 
L 217.139548 232.217646 
L 217.913024 233.819829 
L 218.686501 233.880475 
L 220.233454 231.367927 
L 221.006931 232.896864 
L 221.780407 231.394395 
L 222.553884 231.079853 
L 223.32736 230.389448 
L 224.100837 230.76956 
L 224.874313 229.852753 
L 225.64779 229.932046 
L 226.421266 229.840089 
L 227.194743 230.516734 
L 227.968219 227.750621 
L 228.741696 228.347392 
L 229.515172 226.648246 
L 230.288649 229.161762 
L 231.062125 227.819485 
L 231.835602 227.630905 
L 233.382555 226.110403 
L 234.156031 226.904871 
L 234.929508 225.951606 
L 235.702985 226.436714 
L 236.476461 224.400031 
L 237.249938 224.581191 
L 238.023414 221.80277 
L 238.796891 223.62602 
L 239.570367 222.921659 
L 240.343844 223.579187 
L 241.11732 223.583493 
L 241.890797 223.135257 
L 242.664273 224.759544 
L 243.43775 223.239771 
L 244.211226 222.796448 
L 244.984703 222.105834 
L 246.531656 218.122909 
L 248.078609 215.577517 
L 248.852085 217.642872 
L 249.625562 215.07454 
L 250.399038 219.214003 
L 251.172515 214.636296 
L 251.945992 216.311678 
L 252.719468 215.121867 
L 253.492945 218.197077 
L 254.266421 213.908189 
L 255.039898 210.753553 
L 255.813374 211.583848 
L 256.586851 211.607593 
L 258.133804 213.200035 
L 258.90728 211.633283 
L 259.680757 211.255078 
L 260.454233 209.506586 
L 261.22771 211.515174 
L 262.001186 207.477122 
L 262.774663 208.063456 
L 263.548139 205.929452 
L 264.321616 205.926994 
L 265.095092 206.547656 
L 265.868569 203.662418 
L 266.642045 206.552558 
L 266.642045 206.552558 
" style="fill:none;stroke:#1f77b4;stroke-linecap:square;stroke-width:1.5;"/>
   </g>
   <g id="line2d_12">
    <path clip-path="url(#p146fbf01b5)" d="M 55.482955 203.543767 
L 56.256431 201.839672 
L 57.029908 204.136511 
L 57.803384 202.808265 
L 58.576861 204.435377 
L 59.350337 203.819715 
L 60.123814 202.202465 
L 60.89729 201.798864 
L 61.670767 200.731038 
L 62.444243 200.43998 
L 63.21772 202.793397 
L 63.991196 201.704541 
L 64.764673 202.31051 
L 65.538149 198.453033 
L 66.311626 197.672103 
L 67.085102 198.259344 
L 68.632055 195.261866 
L 69.405532 194.176817 
L 70.179008 190.975407 
L 70.952485 192.899374 
L 71.725962 188.115631 
L 72.499438 191.486303 
L 73.272915 189.346673 
L 74.046391 191.438027 
L 74.819868 192.476069 
L 75.593344 190.131514 
L 76.366821 194.549682 
L 77.140297 196.196019 
L 77.913774 192.486381 
L 78.68725 191.550095 
L 79.460727 183.966364 
L 81.00768 183.499455 
L 81.781156 184.941557 
L 82.554633 184.240781 
L 83.328109 184.174685 
L 84.101586 183.811323 
L 84.875062 184.796257 
L 85.648539 183.771261 
L 86.422015 179.554348 
L 87.195492 179.778198 
L 87.968969 180.844746 
L 88.742445 178.610761 
L 89.515922 179.896135 
L 90.289398 179.337486 
L 91.062875 181.418787 
L 91.836351 179.528202 
L 92.609828 178.123275 
L 93.383304 175.984128 
L 94.930257 179.3958 
L 95.703734 179.034201 
L 96.47721 178.059107 
L 97.250687 177.483222 
L 98.024163 175.643612 
L 98.79764 177.44304 
L 99.571116 175.852936 
L 100.344593 173.59036 
L 101.118069 177.334996 
L 101.891546 173.513656 
L 102.665022 170.542706 
L 103.438499 173.428611 
L 104.211976 172.287302 
L 104.985452 173.072273 
L 105.758929 172.094437 
L 106.532405 172.167415 
L 107.305882 170.10597 
L 108.079358 170.29863 
L 108.852835 171.008589 
L 109.626311 167.117892 
L 110.399788 169.350688 
L 111.173264 169.736025 
L 111.946741 167.483593 
L 112.720217 168.029209 
L 113.493694 170.330714 
L 114.26717 173.276436 
L 115.814123 169.697239 
L 116.5876 166.118402 
L 117.361076 168.122516 
L 118.134553 165.234874 
L 118.908029 169.095796 
L 119.681506 168.227964 
L 120.454983 170.67476 
L 121.228459 171.997189 
L 122.001936 169.337784 
L 122.775412 168.064319 
L 123.548889 166.441464 
L 124.322365 165.480962 
L 125.095842 165.590776 
L 125.869318 164.272594 
L 126.642795 163.493589 
L 127.416271 161.510654 
L 128.189748 163.721702 
L 128.963224 160.054173 
L 129.736701 163.880691 
L 130.510177 162.78474 
L 131.283654 164.219843 
L 132.05713 162.235559 
L 132.830607 161.479715 
L 133.604083 162.134335 
L 134.37756 162.397149 
L 135.151036 163.456475 
L 135.924513 161.454313 
L 136.69799 162.474027 
L 137.471466 159.906816 
L 138.244943 160.68622 
L 139.018419 163.126117 
L 139.791896 164.954567 
L 140.565372 167.290969 
L 141.338849 168.229757 
L 142.112325 166.784487 
L 142.885802 167.906444 
L 143.659278 168.805678 
L 144.432755 169.469031 
L 145.206231 169.883463 
L 145.979708 165.548861 
L 146.753184 167.670807 
L 147.526661 164.845812 
L 148.300137 169.307445 
L 149.073614 170.398798 
L 149.84709 172.193751 
L 150.620567 171.642552 
L 151.394043 172.237802 
L 152.16752 166.20863 
L 152.940997 164.269455 
L 153.714473 162.795938 
L 154.48795 159.677296 
L 155.261426 158.372828 
L 156.034903 153.613635 
L 156.808379 150.982733 
L 157.581856 150.009744 
L 158.355332 142.956064 
L 159.128809 139.688567 
L 160.675762 125.36506 
L 161.449238 115.337797 
L 162.222715 108.514364 
L 162.996191 99.968938 
L 163.769668 93.751961 
L 164.543144 91.259106 
L 165.316621 86.859118 
L 166.090097 84.475488 
L 166.863574 82.843607 
L 167.63705 81.622581 
L 168.410527 79.660023 
L 169.184003 76.163719 
L 169.95748 76.131837 
L 170.730957 76.513661 
L 171.504433 77.253911 
L 172.27791 75.880966 
L 173.051386 76.362096 
L 173.824863 71.791958 
L 174.598339 69.938423 
L 175.371816 70.583524 
L 176.145292 69.295674 
L 176.918769 70.182014 
L 177.692245 69.32202 
L 178.465722 67.791579 
L 179.239198 67.154483 
L 180.012675 68.355746 
L 180.786151 67.20797 
L 181.559628 65.817208 
L 182.333104 64.965271 
L 183.880057 66.884792 
L 184.653534 66.136775 
L 185.42701 66.166 
L 186.200487 63.442153 
L 186.973964 65.12023 
L 187.74744 63.31772 
L 188.520917 63.747459 
L 190.06787 60.571319 
L 190.841346 59.615649 
L 191.614823 60.885529 
L 192.388299 61.88323 
L 193.161776 59.629477 
L 193.935252 60.30436 
L 194.708729 60.145016 
L 195.482205 59.653066 
L 196.255682 61.787798 
L 197.029158 62.347054 
L 197.802635 61.356434 
L 198.576111 61.277043 
L 199.349588 59.769542 
L 200.123064 59.200401 
L 200.896541 60.366221 
L 201.670017 58.998737 
L 203.216971 57.652559 
L 203.990447 57.86549 
L 205.5374 57.194156 
L 206.310877 56.252214 
L 207.084353 57.530151 
L 208.631306 55.975203 
L 209.404783 54.910461 
L 210.178259 55.65091 
L 210.951736 57.149081 
L 211.725212 54.615624 
L 212.498689 53.647625 
L 213.272165 56.051999 
L 214.819118 59.187968 
L 215.592595 57.739101 
L 216.366071 54.36712 
L 217.139548 51.669322 
L 217.913024 51.61876 
L 218.686501 50.785014 
L 219.459978 54.711664 
L 220.233454 54.959455 
L 221.006931 55.379762 
L 221.780407 54.559102 
L 222.553884 54.181842 
L 223.32736 52.334031 
L 224.874313 50.738286 
L 225.64779 52.41263 
L 226.421266 50.760866 
L 227.194743 49.559087 
L 227.968219 50.606118 
L 228.741696 48.268193 
L 229.515172 49.085936 
L 230.288649 49.391166 
L 231.062125 47.990813 
L 231.835602 50.590904 
L 232.609078 48.069108 
L 233.382555 48.168641 
L 234.156031 44.127552 
L 234.929508 44.419554 
L 235.702985 47.638524 
L 236.476461 46.318484 
L 237.249938 47.160831 
L 238.023414 44.401117 
L 238.796891 44.744712 
L 239.570367 44.281601 
L 240.343844 45.800848 
L 241.11732 44.141528 
L 241.890797 43.385317 
L 242.664273 43.407139 
L 243.43775 41.357019 
L 244.211226 41.585278 
L 244.984703 40.889743 
L 245.758179 40.028139 
L 246.531656 40.199524 
L 247.305132 39.288065 
L 248.078609 39.32414 
L 248.852085 38.027699 
L 250.399038 37.890715 
L 251.172515 35.281442 
L 251.945992 34.331716 
L 252.719468 35.480043 
L 253.492945 36.399174 
L 254.266421 34.030795 
L 255.039898 32.657695 
L 255.813374 34.060516 
L 257.360327 34.079159 
L 258.133804 30.259032 
L 258.90728 31.932916 
L 259.680757 31.33398 
L 260.454233 32.687256 
L 261.22771 29.359031 
L 262.001186 30.276494 
L 262.774663 30.667008 
L 263.548139 32.669678 
L 264.321616 30.485681 
L 265.095092 30.866205 
L 265.868569 29.825647 
L 266.642045 29.347862 
L 266.642045 29.347862 
" style="fill:none;stroke:#ff7f0e;stroke-linecap:square;stroke-width:1.5;"/>
   </g>
   <g id="line2d_13">
    <path clip-path="url(#p146fbf01b5)" d="M 55.482955 203.543767 
L 59.013154 197.503311 
L 62.543353 194.480198 
L 66.073552 191.462854 
L 69.603752 188.439741 
L 73.133951 188.439741 
L 76.66415 185.416628 
L 80.19435 182.399285 
L 83.724549 179.376172 
L 87.254748 176.358828 
L 90.784947 176.358828 
L 94.315147 173.335715 
L 97.845346 170.312602 
L 101.375545 170.312602 
L 104.905745 167.295259 
L 108.435944 167.295259 
L 111.966143 167.295259 
L 115.496343 164.272146 
L 119.026542 164.272146 
L 122.556741 161.254802 
L 126.08694 161.254802 
L 129.61714 158.231689 
L 133.147339 158.231689 
L 136.677538 155.208576 
L 140.207738 155.208576 
L 143.737937 152.191232 
L 147.268136 149.16812 
L 150.798335 131.04675 
L 154.328535 118.960067 
L 157.858734 103.856041 
L 161.388933 91.775128 
L 164.919133 73.647989 
L 168.449332 70.630646 
L 171.979531 67.607533 
L 175.50973 67.607533 
L 179.03993 64.58442 
L 182.570129 64.58442 
L 186.100328 61.567076 
L 189.630528 61.567076 
L 193.160727 58.543963 
L 196.690926 58.543963 
L 200.221126 55.52662 
L 203.751325 55.52662 
L 207.281524 55.52662 
L 210.811723 52.503507 
L 214.341923 52.503507 
L 217.872122 49.480394 
L 221.402321 46.46305 
L 224.932521 46.46305 
L 228.46272 43.439937 
L 231.992919 40.422594 
L 235.523118 37.399481 
L 239.053318 34.376368 
L 242.583517 34.376368 
L 246.113716 31.359024 
L 249.643916 28.335911 
L 253.174115 25.318567 
L 256.704314 25.318567 
L 260.234513 25.318567 
L 263.764713 22.295455 
" style="fill:none;stroke:#2ca02c;stroke-linecap:square;stroke-width:1.5;"/>
   </g>
   <g id="line2d_14">
    <path clip-path="url(#p146fbf01b5)" d="M 55.482955 203.543767 
L 59.013154 197.503311 
L 62.543353 194.480198 
L 66.073552 191.462854 
L 69.603752 188.439741 
L 73.133951 188.439741 
L 76.66415 185.416628 
L 80.19435 182.399285 
L 83.724549 179.376172 
L 87.254748 176.358828 
L 90.784947 176.358828 
L 94.315147 173.335715 
L 97.845346 170.312602 
L 101.375545 170.312602 
L 104.905745 170.312602 
L 108.435944 167.295259 
L 111.966143 167.295259 
L 115.496343 164.272146 
L 119.026542 164.272146 
L 122.556741 161.254802 
L 126.08694 161.254802 
L 129.61714 158.231689 
L 133.147339 158.231689 
L 136.677538 158.231689 
L 140.207738 158.231689 
L 143.737937 155.208576 
L 147.268136 155.208576 
L 150.798335 155.208576 
L 154.328535 158.231689 
L 157.858734 158.231689 
L 161.388933 161.254802 
L 164.919133 164.272146 
L 168.449332 167.295259 
L 171.979531 170.312602 
" style="fill:none;stroke:#ff0000;stroke-linecap:square;stroke-width:1.5;"/>
   </g>
   <g id="line2d_15">
    <path clip-path="url(#p146fbf01b5)" d="M 179.03993 245.832732 
L 182.570129 242.815389 
L 186.100328 242.815389 
L 189.630528 242.815389 
L 193.160727 239.792276 
L 196.690926 239.792276 
L 200.221126 236.774932 
L 203.751325 236.774932 
L 207.281524 233.751819 
L 210.811723 233.751819 
L 214.341923 233.751819 
L 217.872122 230.728706 
L 221.402321 227.711363 
L 224.932521 227.711363 
L 228.46272 224.68825 
L 231.992919 221.670906 
L 235.523118 218.647793 
L 239.053318 215.62468 
L 242.583517 215.62468 
L 246.113716 212.607337 
L 249.643916 209.584224 
L 253.174115 206.56688 
L 256.704314 206.56688 
L 260.234513 206.56688 
L 263.764713 203.543767 
" style="fill:none;stroke:#ff0000;stroke-linecap:square;stroke-width:1.5;"/>
   </g>
   <g id="patch_3">
    <path d="M 44.925 263.7 
L 44.925 10.8 
" style="fill:none;stroke:#000000;stroke-linecap:square;stroke-linejoin:miter;stroke-width:0.8;"/>
   </g>
   <g id="patch_4">
    <path d="M 277.2 263.7 
L 277.2 10.8 
" style="fill:none;stroke:#000000;stroke-linecap:square;stroke-linejoin:miter;stroke-width:0.8;"/>
   </g>
   <g id="patch_5">
    <path d="M 44.925 263.7 
L 277.2 263.7 
" style="fill:none;stroke:#000000;stroke-linecap:square;stroke-linejoin:miter;stroke-width:0.8;"/>
   </g>
   <g id="patch_6">
    <path d="M 44.925 10.8 
L 277.2 10.8 
" style="fill:none;stroke:#000000;stroke-linecap:square;stroke-linejoin:miter;stroke-width:0.8;"/>
   </g>
   <g id="legend_1">
    <g id="patch_7">
     <path d="M 51.925 77.5125 
L 184.153125 77.5125 
Q 186.153125 77.5125 186.153125 75.5125 
L 186.153125 17.8 
Q 186.153125 15.8 184.153125 15.8 
L 51.925 15.8 
Q 49.925 15.8 49.925 17.8 
L 49.925 75.5125 
Q 49.925 77.5125 51.925 77.5125 
z
" style="fill:#ffffff;opacity:0.8;stroke:#cccccc;stroke-linejoin:miter;"/>
    </g>
    <g id="line2d_16">
     <path d="M 53.925 23.898438 
L 73.925 23.898438 
" style="fill:none;stroke:#1f77b4;stroke-linecap:square;stroke-width:1.5;"/>
    </g>
    <g id="line2d_17"/>
    <g id="text_11">
     <!-- experiment: ratchet -->
     <defs>
      <path d="M 56.203125 29.59375 
L 56.203125 25.203125 
L 14.890625 25.203125 
Q 15.484375 15.921875 20.484375 11.0625 
Q 25.484375 6.203125 34.421875 6.203125 
Q 39.59375 6.203125 44.453125 7.46875 
Q 49.3125 8.734375 54.109375 11.28125 
L 54.109375 2.78125 
Q 49.265625 0.734375 44.1875 -0.34375 
Q 39.109375 -1.421875 33.890625 -1.421875 
Q 20.796875 -1.421875 13.15625 6.1875 
Q 5.515625 13.8125 5.515625 26.8125 
Q 5.515625 40.234375 12.765625 48.109375 
Q 20.015625 56 32.328125 56 
Q 43.359375 56 49.78125 48.890625 
Q 56.203125 41.796875 56.203125 29.59375 
z
M 47.21875 32.234375 
Q 47.125 39.59375 43.09375 43.984375 
Q 39.0625 48.390625 32.421875 48.390625 
Q 24.90625 48.390625 20.390625 44.140625 
Q 15.875 39.890625 15.1875 32.171875 
z
" id="DejaVuSans-101"/>
      <path d="M 54.890625 54.6875 
L 35.109375 28.078125 
L 55.90625 0 
L 45.3125 0 
L 29.390625 21.484375 
L 13.484375 0 
L 2.875 0 
L 24.125 28.609375 
L 4.6875 54.6875 
L 15.28125 54.6875 
L 29.78125 35.203125 
L 44.28125 54.6875 
z
" id="DejaVuSans-120"/>
      <path d="M 18.109375 8.203125 
L 18.109375 -20.796875 
L 9.078125 -20.796875 
L 9.078125 54.6875 
L 18.109375 54.6875 
L 18.109375 46.390625 
Q 20.953125 51.265625 25.265625 53.625 
Q 29.59375 56 35.59375 56 
Q 45.5625 56 51.78125 48.09375 
Q 58.015625 40.1875 58.015625 27.296875 
Q 58.015625 14.40625 51.78125 6.484375 
Q 45.5625 -1.421875 35.59375 -1.421875 
Q 29.59375 -1.421875 25.265625 0.953125 
Q 20.953125 3.328125 18.109375 8.203125 
z
M 48.6875 27.296875 
Q 48.6875 37.203125 44.609375 42.84375 
Q 40.53125 48.484375 33.40625 48.484375 
Q 26.265625 48.484375 22.1875 42.84375 
Q 18.109375 37.203125 18.109375 27.296875 
Q 18.109375 17.390625 22.1875 11.75 
Q 26.265625 6.109375 33.40625 6.109375 
Q 40.53125 6.109375 44.609375 11.75 
Q 48.6875 17.390625 48.6875 27.296875 
z
" id="DejaVuSans-112"/>
      <path d="M 41.109375 46.296875 
Q 39.59375 47.171875 37.8125 47.578125 
Q 36.03125 48 33.890625 48 
Q 26.265625 48 22.1875 43.046875 
Q 18.109375 38.09375 18.109375 28.8125 
L 18.109375 0 
L 9.078125 0 
L 9.078125 54.6875 
L 18.109375 54.6875 
L 18.109375 46.1875 
Q 20.953125 51.171875 25.484375 53.578125 
Q 30.03125 56 36.53125 56 
Q 37.453125 56 38.578125 55.875 
Q 39.703125 55.765625 41.0625 55.515625 
z
" id="DejaVuSans-114"/>
      <path d="M 9.421875 54.6875 
L 18.40625 54.6875 
L 18.40625 0 
L 9.421875 0 
z
M 9.421875 75.984375 
L 18.40625 75.984375 
L 18.40625 64.59375 
L 9.421875 64.59375 
z
" id="DejaVuSans-105"/>
      <path d="M 52 44.1875 
Q 55.375 50.25 60.0625 53.125 
Q 64.75 56 71.09375 56 
Q 79.640625 56 84.28125 50.015625 
Q 88.921875 44.046875 88.921875 33.015625 
L 88.921875 0 
L 79.890625 0 
L 79.890625 32.71875 
Q 79.890625 40.578125 77.09375 44.375 
Q 74.3125 48.1875 68.609375 48.1875 
Q 61.625 48.1875 57.5625 43.546875 
Q 53.515625 38.921875 53.515625 30.90625 
L 53.515625 0 
L 44.484375 0 
L 44.484375 32.71875 
Q 44.484375 40.625 41.703125 44.40625 
Q 38.921875 48.1875 33.109375 48.1875 
Q 26.21875 48.1875 22.15625 43.53125 
Q 18.109375 38.875 18.109375 30.90625 
L 18.109375 0 
L 9.078125 0 
L 9.078125 54.6875 
L 18.109375 54.6875 
L 18.109375 46.1875 
Q 21.1875 51.21875 25.484375 53.609375 
Q 29.78125 56 35.6875 56 
Q 41.65625 56 45.828125 52.96875 
Q 50 49.953125 52 44.1875 
z
" id="DejaVuSans-109"/>
      <path d="M 54.890625 33.015625 
L 54.890625 0 
L 45.90625 0 
L 45.90625 32.71875 
Q 45.90625 40.484375 42.875 44.328125 
Q 39.84375 48.1875 33.796875 48.1875 
Q 26.515625 48.1875 22.3125 43.546875 
Q 18.109375 38.921875 18.109375 30.90625 
L 18.109375 0 
L 9.078125 0 
L 9.078125 54.6875 
L 18.109375 54.6875 
L 18.109375 46.1875 
Q 21.34375 51.125 25.703125 53.5625 
Q 30.078125 56 35.796875 56 
Q 45.21875 56 50.046875 50.171875 
Q 54.890625 44.34375 54.890625 33.015625 
z
" id="DejaVuSans-110"/>
      <path d="M 18.3125 70.21875 
L 18.3125 54.6875 
L 36.8125 54.6875 
L 36.8125 47.703125 
L 18.3125 47.703125 
L 18.3125 18.015625 
Q 18.3125 11.328125 20.140625 9.421875 
Q 21.96875 7.515625 27.59375 7.515625 
L 36.8125 7.515625 
L 36.8125 0 
L 27.59375 0 
Q 17.1875 0 13.234375 3.875 
Q 9.28125 7.765625 9.28125 18.015625 
L 9.28125 47.703125 
L 2.6875 47.703125 
L 2.6875 54.6875 
L 9.28125 54.6875 
L 9.28125 70.21875 
z
" id="DejaVuSans-116"/>
      <path d="M 11.71875 12.40625 
L 22.015625 12.40625 
L 22.015625 0 
L 11.71875 0 
z
M 11.71875 51.703125 
L 22.015625 51.703125 
L 22.015625 39.3125 
L 11.71875 39.3125 
z
" id="DejaVuSans-58"/>
      <path id="DejaVuSans-32"/>
      <path d="M 34.28125 27.484375 
Q 23.390625 27.484375 19.1875 25 
Q 14.984375 22.515625 14.984375 16.5 
Q 14.984375 11.71875 18.140625 8.90625 
Q 21.296875 6.109375 26.703125 6.109375 
Q 34.1875 6.109375 38.703125 11.40625 
Q 43.21875 16.703125 43.21875 25.484375 
L 43.21875 27.484375 
z
M 52.203125 31.203125 
L 52.203125 0 
L 43.21875 0 
L 43.21875 8.296875 
Q 40.140625 3.328125 35.546875 0.953125 
Q 30.953125 -1.421875 24.3125 -1.421875 
Q 15.921875 -1.421875 10.953125 3.296875 
Q 6 8.015625 6 15.921875 
Q 6 25.140625 12.171875 29.828125 
Q 18.359375 34.515625 30.609375 34.515625 
L 43.21875 34.515625 
L 43.21875 35.40625 
Q 43.21875 41.609375 39.140625 45 
Q 35.0625 48.390625 27.6875 48.390625 
Q 23 48.390625 18.546875 47.265625 
Q 14.109375 46.140625 10.015625 43.890625 
L 10.015625 52.203125 
Q 14.9375 54.109375 19.578125 55.046875 
Q 24.21875 56 28.609375 56 
Q 40.484375 56 46.34375 49.84375 
Q 52.203125 43.703125 52.203125 31.203125 
z
" id="DejaVuSans-97"/>
      <path d="M 48.78125 52.59375 
L 48.78125 44.1875 
Q 44.96875 46.296875 41.140625 47.34375 
Q 37.3125 48.390625 33.40625 48.390625 
Q 24.65625 48.390625 19.8125 42.84375 
Q 14.984375 37.3125 14.984375 27.296875 
Q 14.984375 17.28125 19.8125 11.734375 
Q 24.65625 6.203125 33.40625 6.203125 
Q 37.3125 6.203125 41.140625 7.25 
Q 44.96875 8.296875 48.78125 10.40625 
L 48.78125 2.09375 
Q 45.015625 0.34375 40.984375 -0.53125 
Q 36.96875 -1.421875 32.421875 -1.421875 
Q 20.0625 -1.421875 12.78125 6.34375 
Q 5.515625 14.109375 5.515625 27.296875 
Q 5.515625 40.671875 12.859375 48.328125 
Q 20.21875 56 33.015625 56 
Q 37.15625 56 41.109375 55.140625 
Q 45.0625 54.296875 48.78125 52.59375 
z
" id="DejaVuSans-99"/>
      <path d="M 54.890625 33.015625 
L 54.890625 0 
L 45.90625 0 
L 45.90625 32.71875 
Q 45.90625 40.484375 42.875 44.328125 
Q 39.84375 48.1875 33.796875 48.1875 
Q 26.515625 48.1875 22.3125 43.546875 
Q 18.109375 38.921875 18.109375 30.90625 
L 18.109375 0 
L 9.078125 0 
L 9.078125 75.984375 
L 18.109375 75.984375 
L 18.109375 46.1875 
Q 21.34375 51.125 25.703125 53.5625 
Q 30.078125 56 35.796875 56 
Q 45.21875 56 50.046875 50.171875 
Q 54.890625 44.34375 54.890625 33.015625 
z
" id="DejaVuSans-104"/>
     </defs>
     <g transform="translate(81.925 27.398438)scale(0.1 -0.1)">
      <use xlink:href="#DejaVuSans-101"/>
      <use x="61.507812" xlink:href="#DejaVuSans-120"/>
      <use x="120.6875" xlink:href="#DejaVuSans-112"/>
      <use x="184.164062" xlink:href="#DejaVuSans-101"/>
      <use x="245.6875" xlink:href="#DejaVuSans-114"/>
      <use x="286.800781" xlink:href="#DejaVuSans-105"/>
      <use x="314.583984" xlink:href="#DejaVuSans-109"/>
      <use x="411.996094" xlink:href="#DejaVuSans-101"/>
      <use x="473.519531" xlink:href="#DejaVuSans-110"/>
      <use x="536.898438" xlink:href="#DejaVuSans-116"/>
      <use x="576.107422" xlink:href="#DejaVuSans-58"/>
      <use x="609.798828" xlink:href="#DejaVuSans-32"/>
      <use x="641.585938" xlink:href="#DejaVuSans-114"/>
      <use x="682.699219" xlink:href="#DejaVuSans-97"/>
      <use x="743.978516" xlink:href="#DejaVuSans-116"/>
      <use x="783.1875" xlink:href="#DejaVuSans-99"/>
      <use x="838.167969" xlink:href="#DejaVuSans-104"/>
      <use x="901.546875" xlink:href="#DejaVuSans-101"/>
      <use x="963.070312" xlink:href="#DejaVuSans-116"/>
     </g>
    </g>
    <g id="line2d_18">
     <path d="M 53.925 38.576562 
L 73.925 38.576562 
" style="fill:none;stroke:#ff7f0e;stroke-linecap:square;stroke-width:1.5;"/>
    </g>
    <g id="line2d_19"/>
    <g id="text_12">
     <!-- experiment: twist -->
     <defs>
      <path d="M 4.203125 54.6875 
L 13.1875 54.6875 
L 24.421875 12.015625 
L 35.59375 54.6875 
L 46.1875 54.6875 
L 57.421875 12.015625 
L 68.609375 54.6875 
L 77.59375 54.6875 
L 63.28125 0 
L 52.6875 0 
L 40.921875 44.828125 
L 29.109375 0 
L 18.5 0 
z
" id="DejaVuSans-119"/>
      <path d="M 44.28125 53.078125 
L 44.28125 44.578125 
Q 40.484375 46.53125 36.375 47.5 
Q 32.28125 48.484375 27.875 48.484375 
Q 21.1875 48.484375 17.84375 46.4375 
Q 14.5 44.390625 14.5 40.28125 
Q 14.5 37.15625 16.890625 35.375 
Q 19.28125 33.59375 26.515625 31.984375 
L 29.59375 31.296875 
Q 39.15625 29.25 43.1875 25.515625 
Q 47.21875 21.78125 47.21875 15.09375 
Q 47.21875 7.46875 41.1875 3.015625 
Q 35.15625 -1.421875 24.609375 -1.421875 
Q 20.21875 -1.421875 15.453125 -0.5625 
Q 10.6875 0.296875 5.421875 2 
L 5.421875 11.28125 
Q 10.40625 8.6875 15.234375 7.390625 
Q 20.0625 6.109375 24.8125 6.109375 
Q 31.15625 6.109375 34.5625 8.28125 
Q 37.984375 10.453125 37.984375 14.40625 
Q 37.984375 18.0625 35.515625 20.015625 
Q 33.0625 21.96875 24.703125 23.78125 
L 21.578125 24.515625 
Q 13.234375 26.265625 9.515625 29.90625 
Q 5.8125 33.546875 5.8125 39.890625 
Q 5.8125 47.609375 11.28125 51.796875 
Q 16.75 56 26.8125 56 
Q 31.78125 56 36.171875 55.265625 
Q 40.578125 54.546875 44.28125 53.078125 
z
" id="DejaVuSans-115"/>
     </defs>
     <g transform="translate(81.925 42.076562)scale(0.1 -0.1)">
      <use xlink:href="#DejaVuSans-101"/>
      <use x="61.507812" xlink:href="#DejaVuSans-120"/>
      <use x="120.6875" xlink:href="#DejaVuSans-112"/>
      <use x="184.164062" xlink:href="#DejaVuSans-101"/>
      <use x="245.6875" xlink:href="#DejaVuSans-114"/>
      <use x="286.800781" xlink:href="#DejaVuSans-105"/>
      <use x="314.583984" xlink:href="#DejaVuSans-109"/>
      <use x="411.996094" xlink:href="#DejaVuSans-101"/>
      <use x="473.519531" xlink:href="#DejaVuSans-110"/>
      <use x="536.898438" xlink:href="#DejaVuSans-116"/>
      <use x="576.107422" xlink:href="#DejaVuSans-58"/>
      <use x="609.798828" xlink:href="#DejaVuSans-32"/>
      <use x="641.585938" xlink:href="#DejaVuSans-116"/>
      <use x="680.794922" xlink:href="#DejaVuSans-119"/>
      <use x="762.582031" xlink:href="#DejaVuSans-105"/>
      <use x="790.365234" xlink:href="#DejaVuSans-115"/>
      <use x="842.464844" xlink:href="#DejaVuSans-116"/>
     </g>
    </g>
    <g id="line2d_20">
     <path d="M 53.925 53.254687 
L 73.925 53.254687 
" style="fill:none;stroke:#2ca02c;stroke-linecap:square;stroke-width:1.5;"/>
    </g>
    <g id="line2d_21"/>
    <g id="text_13">
     <!-- theory: twist -->
     <defs>
      <path d="M 30.609375 48.390625 
Q 23.390625 48.390625 19.1875 42.75 
Q 14.984375 37.109375 14.984375 27.296875 
Q 14.984375 17.484375 19.15625 11.84375 
Q 23.34375 6.203125 30.609375 6.203125 
Q 37.796875 6.203125 41.984375 11.859375 
Q 46.1875 17.53125 46.1875 27.296875 
Q 46.1875 37.015625 41.984375 42.703125 
Q 37.796875 48.390625 30.609375 48.390625 
z
M 30.609375 56 
Q 42.328125 56 49.015625 48.375 
Q 55.71875 40.765625 55.71875 27.296875 
Q 55.71875 13.875 49.015625 6.21875 
Q 42.328125 -1.421875 30.609375 -1.421875 
Q 18.84375 -1.421875 12.171875 6.21875 
Q 5.515625 13.875 5.515625 27.296875 
Q 5.515625 40.765625 12.171875 48.375 
Q 18.84375 56 30.609375 56 
z
" id="DejaVuSans-111"/>
      <path d="M 32.171875 -5.078125 
Q 28.375 -14.84375 24.75 -17.8125 
Q 21.140625 -20.796875 15.09375 -20.796875 
L 7.90625 -20.796875 
L 7.90625 -13.28125 
L 13.1875 -13.28125 
Q 16.890625 -13.28125 18.9375 -11.515625 
Q 21 -9.765625 23.484375 -3.21875 
L 25.09375 0.875 
L 2.984375 54.6875 
L 12.5 54.6875 
L 29.59375 11.921875 
L 46.6875 54.6875 
L 56.203125 54.6875 
z
" id="DejaVuSans-121"/>
     </defs>
     <g transform="translate(81.925 56.754687)scale(0.1 -0.1)">
      <use xlink:href="#DejaVuSans-116"/>
      <use x="39.208984" xlink:href="#DejaVuSans-104"/>
      <use x="102.587891" xlink:href="#DejaVuSans-101"/>
      <use x="164.111328" xlink:href="#DejaVuSans-111"/>
      <use x="225.292969" xlink:href="#DejaVuSans-114"/>
      <use x="266.40625" xlink:href="#DejaVuSans-121"/>
      <use x="325.476562" xlink:href="#DejaVuSans-58"/>
      <use x="359.167969" xlink:href="#DejaVuSans-32"/>
      <use x="390.955078" xlink:href="#DejaVuSans-116"/>
      <use x="430.164062" xlink:href="#DejaVuSans-119"/>
      <use x="511.951172" xlink:href="#DejaVuSans-105"/>
      <use x="539.734375" xlink:href="#DejaVuSans-115"/>
      <use x="591.833984" xlink:href="#DejaVuSans-116"/>
     </g>
    </g>
    <g id="line2d_22">
     <path d="M 53.925 67.932813 
L 73.925 67.932813 
" style="fill:none;stroke:#ff0000;stroke-linecap:square;stroke-width:1.5;"/>
    </g>
    <g id="line2d_23"/>
    <g id="text_14">
     <!-- theory: ratchet -->
     <g transform="translate(81.925 71.432813)scale(0.1 -0.1)">
      <use xlink:href="#DejaVuSans-116"/>
      <use x="39.208984" xlink:href="#DejaVuSans-104"/>
      <use x="102.587891" xlink:href="#DejaVuSans-101"/>
      <use x="164.111328" xlink:href="#DejaVuSans-111"/>
      <use x="225.292969" xlink:href="#DejaVuSans-114"/>
      <use x="266.40625" xlink:href="#DejaVuSans-121"/>
      <use x="325.476562" xlink:href="#DejaVuSans-58"/>
      <use x="359.167969" xlink:href="#DejaVuSans-32"/>
      <use x="390.955078" xlink:href="#DejaVuSans-114"/>
      <use x="432.068359" xlink:href="#DejaVuSans-97"/>
      <use x="493.347656" xlink:href="#DejaVuSans-116"/>
      <use x="532.556641" xlink:href="#DejaVuSans-99"/>
      <use x="587.537109" xlink:href="#DejaVuSans-104"/>
      <use x="650.916016" xlink:href="#DejaVuSans-101"/>
      <use x="712.439453" xlink:href="#DejaVuSans-116"/>
     </g>
    </g>
   </g>
  </g>
 </g>
 <defs>
  <clipPath id="p146fbf01b5">
   <rect height="252.9" width="232.275" x="44.925" y="10.8"/>
  </clipPath>
 </defs>
</svg>
