<?xml version="1.0" encoding="utf-8" standalone="no"?>
<!DOCTYPE svg PUBLIC "-//W3C//DTD SVG 1.1//EN"
  "http://www.w3.org/Graphics/SVG/1.1/DTD/svg11.dtd">
<!-- Created with matplotlib (https://matplotlib.org/) -->
<svg height="288pt" version="1.1" viewBox="0 0 288 288" width="288pt" xmlns="http://www.w3.org/2000/svg" xmlns:xlink="http://www.w3.org/1999/xlink">
 <defs>
  <style type="text/css">
*{stroke-linecap:butt;stroke-linejoin:round;}
  </style>
 </defs>
 <g id="figure_1">
  <g id="patch_1">
   <path d="M 0 288 
L 288 288 
L 288 0 
L 0 0 
z
" style="fill:#ffffff;"/>
  </g>
  <g id="axes_1">
   <g id="patch_2">
    <path d="M 36.675 263.7 
L 277.2 263.7 
L 277.2 10.8 
L 36.675 10.8 
z
" style="fill:#ffffff;"/>
   </g>
   <g id="matplotlib.axis_1">
    <g id="xtick_1">
     <g id="line2d_1">
      <defs>
       <path d="M 0 0 
L 0 -3.5 
" id="m3ab5a565a7" style="stroke:#000000;stroke-width:0.8;"/>
      </defs>
      <g>
       <use style="stroke:#000000;stroke-width:0.8;" x="47.607955" xlink:href="#m3ab5a565a7" y="263.7"/>
      </g>
     </g>
     <g id="text_1">
      <!-- 0.0 -->
      <defs>
       <path d="M 31.78125 66.40625 
Q 24.171875 66.40625 20.328125 58.90625 
Q 16.5 51.421875 16.5 36.375 
Q 16.5 21.390625 20.328125 13.890625 
Q 24.171875 6.390625 31.78125 6.390625 
Q 39.453125 6.390625 43.28125 13.890625 
Q 47.125 21.390625 47.125 36.375 
Q 47.125 51.421875 43.28125 58.90625 
Q 39.453125 66.40625 31.78125 66.40625 
z
M 31.78125 74.21875 
Q 44.046875 74.21875 50.515625 64.515625 
Q 56.984375 54.828125 56.984375 36.375 
Q 56.984375 17.96875 50.515625 8.265625 
Q 44.046875 -1.421875 31.78125 -1.421875 
Q 19.53125 -1.421875 13.0625 8.265625 
Q 6.59375 17.96875 6.59375 36.375 
Q 6.59375 54.828125 13.0625 64.515625 
Q 19.53125 74.21875 31.78125 74.21875 
z
" id="DejaVuSans-48"/>
       <path d="M 10.6875 12.40625 
L 21 12.40625 
L 21 0 
L 10.6875 0 
z
" id="DejaVuSans-46"/>
      </defs>
      <g transform="translate(39.656392 274.798438)scale(0.1 -0.1)">
       <use xlink:href="#DejaVuSans-48"/>
       <use x="63.623047" xlink:href="#DejaVuSans-46"/>
       <use x="95.410156" xlink:href="#DejaVuSans-48"/>
      </g>
     </g>
    </g>
    <g id="xtick_2">
     <g id="line2d_2">
      <g>
       <use style="stroke:#000000;stroke-width:0.8;" x="81.934342" xlink:href="#m3ab5a565a7" y="263.7"/>
      </g>
     </g>
     <g id="text_2">
      <!-- 2.5 -->
      <defs>
       <path d="M 19.1875 8.296875 
L 53.609375 8.296875 
L 53.609375 0 
L 7.328125 0 
L 7.328125 8.296875 
Q 12.9375 14.109375 22.625 23.890625 
Q 32.328125 33.6875 34.8125 36.53125 
Q 39.546875 41.84375 41.421875 45.53125 
Q 43.3125 49.21875 43.3125 52.78125 
Q 43.3125 58.59375 39.234375 62.25 
Q 35.15625 65.921875 28.609375 65.921875 
Q 23.96875 65.921875 18.8125 64.3125 
Q 13.671875 62.703125 7.8125 59.421875 
L 7.8125 69.390625 
Q 13.765625 71.78125 18.9375 73 
Q 24.125 74.21875 28.421875 74.21875 
Q 39.75 74.21875 46.484375 68.546875 
Q 53.21875 62.890625 53.21875 53.421875 
Q 53.21875 48.921875 51.53125 44.890625 
Q 49.859375 40.875 45.40625 35.40625 
Q 44.1875 33.984375 37.640625 27.21875 
Q 31.109375 20.453125 19.1875 8.296875 
z
" id="DejaVuSans-50"/>
       <path d="M 10.796875 72.90625 
L 49.515625 72.90625 
L 49.515625 64.59375 
L 19.828125 64.59375 
L 19.828125 46.734375 
Q 21.96875 47.46875 24.109375 47.828125 
Q 26.265625 48.1875 28.421875 48.1875 
Q 40.625 48.1875 47.75 41.5 
Q 54.890625 34.8125 54.890625 23.390625 
Q 54.890625 11.625 47.5625 5.09375 
Q 40.234375 -1.421875 26.90625 -1.421875 
Q 22.3125 -1.421875 17.546875 -0.640625 
Q 12.796875 0.140625 7.71875 1.703125 
L 7.71875 11.625 
Q 12.109375 9.234375 16.796875 8.0625 
Q 21.484375 6.890625 26.703125 6.890625 
Q 35.15625 6.890625 40.078125 11.328125 
Q 45.015625 15.765625 45.015625 23.390625 
Q 45.015625 31 40.078125 35.4375 
Q 35.15625 39.890625 26.703125 39.890625 
Q 22.75 39.890625 18.8125 39.015625 
Q 14.890625 38.140625 10.796875 36.28125 
z
" id="DejaVuSans-53"/>
      </defs>
      <g transform="translate(73.98278 274.798438)scale(0.1 -0.1)">
       <use xlink:href="#DejaVuSans-50"/>
       <use x="63.623047" xlink:href="#DejaVuSans-46"/>
       <use x="95.410156" xlink:href="#DejaVuSans-53"/>
      </g>
     </g>
    </g>
    <g id="xtick_3">
     <g id="line2d_3">
      <g>
       <use style="stroke:#000000;stroke-width:0.8;" x="116.26073" xlink:href="#m3ab5a565a7" y="263.7"/>
      </g>
     </g>
     <g id="text_3">
      <!-- 5.0 -->
      <g transform="translate(108.309168 274.798438)scale(0.1 -0.1)">
       <use xlink:href="#DejaVuSans-53"/>
       <use x="63.623047" xlink:href="#DejaVuSans-46"/>
       <use x="95.410156" xlink:href="#DejaVuSans-48"/>
      </g>
     </g>
    </g>
    <g id="xtick_4">
     <g id="line2d_4">
      <g>
       <use style="stroke:#000000;stroke-width:0.8;" x="150.587118" xlink:href="#m3ab5a565a7" y="263.7"/>
      </g>
     </g>
     <g id="text_4">
      <!-- 7.5 -->
      <defs>
       <path d="M 8.203125 72.90625 
L 55.078125 72.90625 
L 55.078125 68.703125 
L 28.609375 0 
L 18.3125 0 
L 43.21875 64.59375 
L 8.203125 64.59375 
z
" id="DejaVuSans-55"/>
      </defs>
      <g transform="translate(142.635556 274.798438)scale(0.1 -0.1)">
       <use xlink:href="#DejaVuSans-55"/>
       <use x="63.623047" xlink:href="#DejaVuSans-46"/>
       <use x="95.410156" xlink:href="#DejaVuSans-53"/>
      </g>
     </g>
    </g>
    <g id="xtick_5">
     <g id="line2d_5">
      <g>
       <use style="stroke:#000000;stroke-width:0.8;" x="184.913506" xlink:href="#m3ab5a565a7" y="263.7"/>
      </g>
     </g>
     <g id="text_5">
      <!-- 10.0 -->
      <defs>
       <path d="M 12.40625 8.296875 
L 28.515625 8.296875 
L 28.515625 63.921875 
L 10.984375 60.40625 
L 10.984375 69.390625 
L 28.421875 72.90625 
L 38.28125 72.90625 
L 38.28125 8.296875 
L 54.390625 8.296875 
L 54.390625 0 
L 12.40625 0 
z
" id="DejaVuSans-49"/>
      </defs>
      <g transform="translate(173.780694 274.798438)scale(0.1 -0.1)">
       <use xlink:href="#DejaVuSans-49"/>
       <use x="63.623047" xlink:href="#DejaVuSans-48"/>
       <use x="127.246094" xlink:href="#DejaVuSans-46"/>
       <use x="159.033203" xlink:href="#DejaVuSans-48"/>
      </g>
     </g>
    </g>
    <g id="xtick_6">
     <g id="line2d_6">
      <g>
       <use style="stroke:#000000;stroke-width:0.8;" x="219.239894" xlink:href="#m3ab5a565a7" y="263.7"/>
      </g>
     </g>
     <g id="text_6">
      <!-- 12.5 -->
      <g transform="translate(208.107082 274.798438)scale(0.1 -0.1)">
       <use xlink:href="#DejaVuSans-49"/>
       <use x="63.623047" xlink:href="#DejaVuSans-50"/>
       <use x="127.246094" xlink:href="#DejaVuSans-46"/>
       <use x="159.033203" xlink:href="#DejaVuSans-53"/>
      </g>
     </g>
    </g>
    <g id="xtick_7">
     <g id="line2d_7">
      <g>
       <use style="stroke:#000000;stroke-width:0.8;" x="253.566282" xlink:href="#m3ab5a565a7" y="263.7"/>
      </g>
     </g>
     <g id="text_7">
      <!-- 15.0 -->
      <g transform="translate(242.433469 274.798438)scale(0.1 -0.1)">
       <use xlink:href="#DejaVuSans-49"/>
       <use x="63.623047" xlink:href="#DejaVuSans-53"/>
       <use x="127.246094" xlink:href="#DejaVuSans-46"/>
       <use x="159.033203" xlink:href="#DejaVuSans-48"/>
      </g>
     </g>
    </g>
   </g>
   <g id="matplotlib.axis_2">
    <g id="ytick_1">
     <g id="line2d_8">
      <defs>
       <path d="M 0 0 
L 3.5 0 
" id="mabaeb2de30" style="stroke:#000000;stroke-width:0.8;"/>
      </defs>
      <g>
       <use style="stroke:#000000;stroke-width:0.8;" x="36.675" xlink:href="#mabaeb2de30" y="251.079097"/>
      </g>
     </g>
     <g id="text_8">
      <!-- 0.00 -->
      <g transform="translate(10.909375 254.878315)scale(0.1 -0.1)">
       <use xlink:href="#DejaVuSans-48"/>
       <use x="63.623047" xlink:href="#DejaVuSans-46"/>
       <use x="95.410156" xlink:href="#DejaVuSans-48"/>
       <use x="159.033203" xlink:href="#DejaVuSans-48"/>
      </g>
     </g>
    </g>
    <g id="ytick_2">
     <g id="line2d_9">
      <g>
       <use style="stroke:#000000;stroke-width:0.8;" x="36.675" xlink:href="#mabaeb2de30" y="193.88332"/>
      </g>
     </g>
     <g id="text_9">
      <!-- 0.79 -->
      <defs>
       <path d="M 10.984375 1.515625 
L 10.984375 10.5 
Q 14.703125 8.734375 18.5 7.8125 
Q 22.3125 6.890625 25.984375 6.890625 
Q 35.75 6.890625 40.890625 13.453125 
Q 46.046875 20.015625 46.78125 33.40625 
Q 43.953125 29.203125 39.59375 26.953125 
Q 35.25 24.703125 29.984375 24.703125 
Q 19.046875 24.703125 12.671875 31.3125 
Q 6.296875 37.9375 6.296875 49.421875 
Q 6.296875 60.640625 12.9375 67.421875 
Q 19.578125 74.21875 30.609375 74.21875 
Q 43.265625 74.21875 49.921875 64.515625 
Q 56.59375 54.828125 56.59375 36.375 
Q 56.59375 19.140625 48.40625 8.859375 
Q 40.234375 -1.421875 26.421875 -1.421875 
Q 22.703125 -1.421875 18.890625 -0.6875 
Q 15.09375 0.046875 10.984375 1.515625 
z
M 30.609375 32.421875 
Q 37.25 32.421875 41.125 36.953125 
Q 45.015625 41.5 45.015625 49.421875 
Q 45.015625 57.28125 41.125 61.84375 
Q 37.25 66.40625 30.609375 66.40625 
Q 23.96875 66.40625 20.09375 61.84375 
Q 16.21875 57.28125 16.21875 49.421875 
Q 16.21875 41.5 20.09375 36.953125 
Q 23.96875 32.421875 30.609375 32.421875 
z
" id="DejaVuSans-57"/>
      </defs>
      <g transform="translate(10.909375 197.682539)scale(0.1 -0.1)">
       <use xlink:href="#DejaVuSans-48"/>
       <use x="63.623047" xlink:href="#DejaVuSans-46"/>
       <use x="95.410156" xlink:href="#DejaVuSans-55"/>
       <use x="159.033203" xlink:href="#DejaVuSans-57"/>
      </g>
     </g>
    </g>
    <g id="ytick_3">
     <g id="line2d_10">
      <g>
       <use style="stroke:#000000;stroke-width:0.8;" x="36.675" xlink:href="#mabaeb2de30" y="136.687543"/>
      </g>
     </g>
     <g id="text_10">
      <!-- 1.57 -->
      <g transform="translate(10.909375 140.486762)scale(0.1 -0.1)">
       <use xlink:href="#DejaVuSans-49"/>
       <use x="63.623047" xlink:href="#DejaVuSans-46"/>
       <use x="95.410156" xlink:href="#DejaVuSans-53"/>
       <use x="159.033203" xlink:href="#DejaVuSans-55"/>
      </g>
     </g>
    </g>
    <g id="ytick_4">
     <g id="line2d_11">
      <g>
       <use style="stroke:#000000;stroke-width:0.8;" x="36.675" xlink:href="#mabaeb2de30" y="79.491766"/>
      </g>
     </g>
     <g id="text_11">
      <!-- 2.36 -->
      <defs>
       <path d="M 40.578125 39.3125 
Q 47.65625 37.796875 51.625 33 
Q 55.609375 28.21875 55.609375 21.1875 
Q 55.609375 10.40625 48.1875 4.484375 
Q 40.765625 -1.421875 27.09375 -1.421875 
Q 22.515625 -1.421875 17.65625 -0.515625 
Q 12.796875 0.390625 7.625 2.203125 
L 7.625 11.71875 
Q 11.71875 9.328125 16.59375 8.109375 
Q 21.484375 6.890625 26.8125 6.890625 
Q 36.078125 6.890625 40.9375 10.546875 
Q 45.796875 14.203125 45.796875 21.1875 
Q 45.796875 27.640625 41.28125 31.265625 
Q 36.765625 34.90625 28.71875 34.90625 
L 20.21875 34.90625 
L 20.21875 43.015625 
L 29.109375 43.015625 
Q 36.375 43.015625 40.234375 45.921875 
Q 44.09375 48.828125 44.09375 54.296875 
Q 44.09375 59.90625 40.109375 62.90625 
Q 36.140625 65.921875 28.71875 65.921875 
Q 24.65625 65.921875 20.015625 65.03125 
Q 15.375 64.15625 9.8125 62.3125 
L 9.8125 71.09375 
Q 15.4375 72.65625 20.34375 73.4375 
Q 25.25 74.21875 29.59375 74.21875 
Q 40.828125 74.21875 47.359375 69.109375 
Q 53.90625 64.015625 53.90625 55.328125 
Q 53.90625 49.265625 50.4375 45.09375 
Q 46.96875 40.921875 40.578125 39.3125 
z
" id="DejaVuSans-51"/>
       <path d="M 33.015625 40.375 
Q 26.375 40.375 22.484375 35.828125 
Q 18.609375 31.296875 18.609375 23.390625 
Q 18.609375 15.53125 22.484375 10.953125 
Q 26.375 6.390625 33.015625 6.390625 
Q 39.65625 6.390625 43.53125 10.953125 
Q 47.40625 15.53125 47.40625 23.390625 
Q 47.40625 31.296875 43.53125 35.828125 
Q 39.65625 40.375 33.015625 40.375 
z
M 52.59375 71.296875 
L 52.59375 62.3125 
Q 48.875 64.0625 45.09375 64.984375 
Q 41.3125 65.921875 37.59375 65.921875 
Q 27.828125 65.921875 22.671875 59.328125 
Q 17.53125 52.734375 16.796875 39.40625 
Q 19.671875 43.65625 24.015625 45.921875 
Q 28.375 48.1875 33.59375 48.1875 
Q 44.578125 48.1875 50.953125 41.515625 
Q 57.328125 34.859375 57.328125 23.390625 
Q 57.328125 12.15625 50.6875 5.359375 
Q 44.046875 -1.421875 33.015625 -1.421875 
Q 20.359375 -1.421875 13.671875 8.265625 
Q 6.984375 17.96875 6.984375 36.375 
Q 6.984375 53.65625 15.1875 63.9375 
Q 23.390625 74.21875 37.203125 74.21875 
Q 40.921875 74.21875 44.703125 73.484375 
Q 48.484375 72.75 52.59375 71.296875 
z
" id="DejaVuSans-54"/>
      </defs>
      <g transform="translate(10.909375 83.290985)scale(0.1 -0.1)">
       <use xlink:href="#DejaVuSans-50"/>
       <use x="63.623047" xlink:href="#DejaVuSans-46"/>
       <use x="95.410156" xlink:href="#DejaVuSans-51"/>
       <use x="159.033203" xlink:href="#DejaVuSans-54"/>
      </g>
     </g>
    </g>
    <g id="ytick_5">
     <g id="line2d_12">
      <g>
       <use style="stroke:#000000;stroke-width:0.8;" x="36.675" xlink:href="#mabaeb2de30" y="22.29599"/>
      </g>
     </g>
     <g id="text_12">
      <!-- 3.14 -->
      <defs>
       <path d="M 37.796875 64.3125 
L 12.890625 25.390625 
L 37.796875 25.390625 
z
M 35.203125 72.90625 
L 47.609375 72.90625 
L 47.609375 25.390625 
L 58.015625 25.390625 
L 58.015625 17.1875 
L 47.609375 17.1875 
L 47.609375 0 
L 37.796875 0 
L 37.796875 17.1875 
L 4.890625 17.1875 
L 4.890625 26.703125 
z
" id="DejaVuSans-52"/>
      </defs>
      <g transform="translate(10.909375 26.095208)scale(0.1 -0.1)">
       <use xlink:href="#DejaVuSans-51"/>
       <use x="63.623047" xlink:href="#DejaVuSans-46"/>
       <use x="95.410156" xlink:href="#DejaVuSans-49"/>
       <use x="159.033203" xlink:href="#DejaVuSans-52"/>
      </g>
     </g>
    </g>
   </g>
   <g id="line2d_13">
    <path clip-path="url(#pbb5a6d16c1)" d="M 47.607955 251.079097 
L 48.408904 248.928074 
L 49.209853 251.827297 
L 50.010802 250.150697 
L 50.811751 252.204545 
L 51.6127 251.427416 
L 52.413649 249.386016 
L 53.214598 248.876564 
L 54.015547 247.528683 
L 54.816496 247.161291 
L 55.617445 250.131929 
L 56.418394 248.757504 
L 57.219343 249.522398 
L 58.020292 244.653234 
L 58.821241 243.667492 
L 59.62219 244.408747 
L 61.224088 240.625131 
L 62.025037 239.255511 
L 62.825987 235.214479 
L 63.626936 237.643037 
L 64.427885 231.60468 
L 65.228834 235.859365 
L 66.029783 233.158583 
L 66.830732 235.798428 
L 67.631681 237.108714 
L 68.43263 234.149261 
L 69.233579 239.726166 
L 70.034528 241.804282 
L 70.835477 237.12173 
L 71.636426 235.939888 
L 72.437375 226.3672 
L 74.039273 225.777836 
L 74.840222 227.598153 
L 75.641171 226.713587 
L 76.44212 226.630156 
L 77.243069 226.171496 
L 78.044018 227.414746 
L 78.844968 226.120928 
L 79.645917 220.798061 
L 80.446866 221.080619 
L 81.247815 222.426886 
L 82.048764 219.607003 
L 82.849713 221.229487 
L 83.650662 220.524323 
L 84.451611 223.15148 
L 85.25256 220.765057 
L 86.053509 218.991665 
L 86.854458 216.291492 
L 88.456356 220.59793 
L 89.257305 220.141496 
L 90.058254 218.910668 
L 90.859203 218.183747 
L 91.660152 215.861671 
L 92.461101 218.133027 
L 93.26205 216.125893 
L 94.063 213.269919 
L 94.863949 217.996647 
L 95.664898 213.173098 
L 96.465847 209.422968 
L 97.266796 213.065748 
L 98.067745 211.625114 
L 98.868694 212.615956 
L 99.669643 211.381666 
L 100.470592 211.473784 
L 101.271541 208.871691 
L 102.07249 209.11488 
L 102.873439 210.011036 
L 103.674388 205.09994 
L 104.475337 207.918324 
L 105.276286 208.404721 
L 106.077235 205.561553 
L 106.878184 206.250266 
L 107.679133 209.155378 
L 108.480082 212.873664 
L 110.081981 208.355764 
L 110.88293 203.838318 
L 111.683879 206.368044 
L 112.484828 202.72307 
L 113.285777 207.596582 
L 114.086726 206.501147 
L 114.887675 209.589655 
L 115.688624 211.258913 
L 116.489573 207.902036 
L 117.290522 206.294584 
L 118.091471 204.246108 
L 118.89242 203.033699 
L 119.693369 203.172314 
L 120.494318 201.508417 
L 121.295267 200.525105 
L 122.096216 198.022113 
L 122.897165 200.813045 
L 123.698114 196.183647 
L 124.499063 201.013732 
L 125.300012 199.630348 
L 126.100962 201.441831 
L 126.901911 198.937136 
L 127.70286 197.98306 
L 128.503809 198.809364 
L 129.304758 199.141106 
L 130.105707 200.478257 
L 130.906656 197.950996 
L 131.707605 199.238146 
L 132.508554 195.997643 
L 133.309503 196.981457 
L 134.110452 200.061257 
L 134.911401 202.369248 
L 135.71235 205.31841 
L 136.513299 206.503411 
L 137.314248 204.679095 
L 138.115197 206.095304 
L 138.916146 207.230376 
L 139.717095 208.067704 
L 140.518044 208.590829 
L 141.318994 203.119406 
L 142.119943 205.797867 
L 142.920892 202.231971 
L 143.721841 207.863739 
L 144.52279 209.241318 
L 145.323739 211.507026 
L 146.124688 210.811267 
L 146.925637 211.562631 
L 147.726586 203.952209 
L 148.527535 201.504454 
L 149.328484 199.644484 
L 150.129433 195.707926 
L 150.930382 194.061341 
L 151.731331 188.053971 
L 152.53228 184.733073 
L 153.333229 183.504902 
L 154.134178 174.601279 
L 154.935127 170.476828 
L 156.537025 152.396747 
L 157.337975 139.73967 
L 158.138924 131.12668 
L 158.939873 120.340077 
L 159.740822 112.492597 
L 160.541771 109.34595 
L 161.34272 103.791993 
L 162.143669 100.783217 
L 162.944618 98.723348 
L 163.745567 97.182088 
L 164.546516 94.704818 
L 165.347465 90.291551 
L 166.148414 90.251307 
L 166.949363 90.733272 
L 167.750312 91.667663 
L 168.551261 89.934641 
L 169.35221 90.541955 
L 170.153159 84.773225 
L 170.954108 82.433569 
L 171.755057 83.247859 
L 172.556006 81.622248 
L 173.356956 82.741046 
L 174.157905 81.655505 
L 174.958854 79.72368 
L 175.759803 78.919496 
L 176.560752 80.435809 
L 177.361701 78.987011 
L 178.16265 77.231498 
L 178.963599 76.156127 
L 180.565497 78.579073 
L 181.366446 77.634878 
L 182.167395 77.671767 
L 182.968344 74.233546 
L 183.769293 76.351726 
L 184.570242 74.076479 
L 185.371191 74.618924 
L 186.973089 70.609789 
L 187.774038 69.403479 
L 188.574988 71.006406 
L 189.375937 72.26577 
L 190.176886 69.420934 
L 190.977835 70.272816 
L 191.778784 70.071682 
L 192.579733 69.45071 
L 193.380682 72.14531 
L 194.181631 72.85124 
L 194.98258 71.600813 
L 195.783529 71.500601 
L 196.584478 69.597734 
L 197.385427 68.879325 
L 198.186376 70.350901 
L 198.987325 68.624772 
L 200.589223 66.925537 
L 201.390172 67.194313 
L 202.99207 66.34691 
L 203.793019 65.157929 
L 204.593969 66.771026 
L 206.195867 64.808267 
L 206.996816 63.464279 
L 207.797765 64.398923 
L 208.598714 66.290013 
L 209.399663 63.092116 
L 210.200612 61.870243 
L 211.001561 64.905204 
L 212.603459 68.863633 
L 213.404408 67.034775 
L 214.205357 62.778437 
L 215.006306 59.373099 
L 215.807255 59.309276 
L 216.608204 58.256866 
L 217.409153 63.213344 
L 218.210102 63.526123 
L 219.011051 64.056662 
L 219.812 63.02077 
L 220.61295 62.544568 
L 221.413899 60.212138 
L 223.015797 58.197883 
L 223.816746 60.311352 
L 224.617695 58.226384 
L 225.418644 56.70942 
L 226.219593 58.031052 
L 227.020542 55.079968 
L 227.821491 56.112178 
L 228.62244 56.497459 
L 229.423389 54.72984 
L 230.224338 58.011848 
L 231.025287 54.828669 
L 231.826236 54.954307 
L 232.627185 49.853376 
L 233.428134 50.221961 
L 234.229083 54.285157 
L 235.030032 52.618915 
L 235.830982 53.682182 
L 236.631931 50.198688 
L 237.43288 50.632396 
L 238.233829 50.047827 
L 239.034778 51.965521 
L 239.835727 49.871018 
L 240.636676 48.916477 
L 241.437625 48.944023 
L 242.238574 46.356226 
L 243.039523 46.644349 
L 243.840472 45.766398 
L 244.641421 44.678825 
L 245.44237 44.895158 
L 246.243319 43.744655 
L 247.044268 43.790191 
L 247.845217 42.153737 
L 249.447115 41.980827 
L 250.248064 38.68723 
L 251.049013 37.488422 
L 251.849963 38.937916 
L 252.650912 40.098104 
L 253.451861 37.10858 
L 254.25281 35.375362 
L 255.053759 37.146095 
L 256.655657 37.169628 
L 257.456606 32.34761 
L 258.257555 34.460497 
L 259.058504 33.704481 
L 259.859453 35.412676 
L 260.660402 31.211569 
L 261.461351 32.369652 
L 262.2623 32.862585 
L 263.063249 35.390487 
L 263.864198 32.633701 
L 264.665147 33.114024 
L 265.466096 31.800563 
L 266.267045 31.197471 
L 266.267045 31.197471 
" style="fill:none;stroke:#1f77b4;stroke-linecap:square;stroke-width:1.5;"/>
   </g>
   <g id="line2d_14">
    <path clip-path="url(#pbb5a6d16c1)" d="M 47.607955 251.079097 
L 51.26354 243.454432 
L 54.919126 239.638458 
L 58.574712 235.829767 
L 62.230298 232.013793 
L 65.885883 232.013793 
L 69.541469 228.197819 
L 73.197055 224.389128 
L 76.852641 220.573154 
L 80.508227 216.764463 
L 84.163812 216.764463 
L 87.819398 212.94849 
L 91.474984 209.132516 
L 95.13057 209.132516 
L 98.786155 205.323825 
L 102.441741 205.323825 
L 106.097327 205.323825 
L 109.752913 201.507851 
L 113.408498 201.507851 
L 117.064084 197.69916 
L 120.71967 197.69916 
L 124.375256 193.883186 
L 128.030842 193.883186 
L 131.686427 190.067212 
L 135.342013 190.067212 
L 138.997599 186.258521 
L 142.653185 182.442547 
L 146.30877 159.568553 
L 149.964356 144.31194 
L 153.619942 125.246637 
L 157.275528 109.997307 
L 160.931113 87.11603 
L 164.586699 83.307339 
L 168.242285 79.491365 
L 171.897871 79.491365 
L 175.553457 75.675391 
L 179.209042 75.675391 
L 182.864628 71.8667 
L 186.520214 71.8667 
L 190.1758 68.050726 
L 193.831385 68.050726 
L 197.486971 64.242035 
L 201.142557 64.242035 
L 204.798143 64.242035 
L 208.453728 60.426062 
L 212.109314 60.426062 
L 215.7649 56.610088 
L 219.420486 52.801397 
L 223.076072 52.801397 
L 226.731657 48.985423 
L 230.387243 45.176732 
L 234.042829 41.360758 
L 237.698415 37.544784 
L 241.354 37.544784 
L 245.009586 33.736093 
L 248.665172 29.920119 
L 252.320758 26.111428 
L 255.976343 26.111428 
L 259.631929 26.111428 
L 263.287515 22.295455 
" style="fill:none;stroke:#ff0000;stroke-linecap:square;stroke-width:1.5;"/>
   </g>
   <g id="patch_3">
    <path d="M 36.675 263.7 
L 36.675 10.8 
" style="fill:none;stroke:#000000;stroke-linecap:square;stroke-linejoin:miter;stroke-width:0.8;"/>
   </g>
   <g id="patch_4">
    <path d="M 277.2 263.7 
L 277.2 10.8 
" style="fill:none;stroke:#000000;stroke-linecap:square;stroke-linejoin:miter;stroke-width:0.8;"/>
   </g>
   <g id="patch_5">
    <path d="M 36.675 263.7 
L 277.2 263.7 
" style="fill:none;stroke:#000000;stroke-linecap:square;stroke-linejoin:miter;stroke-width:0.8;"/>
   </g>
   <g id="patch_6">
    <path d="M 36.675 10.8 
L 277.2 10.8 
" style="fill:none;stroke:#000000;stroke-linecap:square;stroke-linejoin:miter;stroke-width:0.8;"/>
   </g>
   <g id="legend_1">
    <g id="patch_7">
     <path d="M 150.034375 48.15625 
L 270.2 48.15625 
Q 272.2 48.15625 272.2 46.15625 
L 272.2 17.8 
Q 272.2 15.8 270.2 15.8 
L 150.034375 15.8 
Q 148.034375 15.8 148.034375 17.8 
L 148.034375 46.15625 
Q 148.034375 48.15625 150.034375 48.15625 
z
" style="fill:#ffffff;opacity:0.8;stroke:#cccccc;stroke-linejoin:miter;"/>
    </g>
    <g id="line2d_15">
     <path d="M 152.034375 23.898438 
L 172.034375 23.898438 
" style="fill:none;stroke:#1f77b4;stroke-linecap:square;stroke-width:1.5;"/>
    </g>
    <g id="line2d_16"/>
    <g id="text_13">
     <!-- experiment: twist -->
     <defs>
      <path d="M 56.203125 29.59375 
L 56.203125 25.203125 
L 14.890625 25.203125 
Q 15.484375 15.921875 20.484375 11.0625 
Q 25.484375 6.203125 34.421875 6.203125 
Q 39.59375 6.203125 44.453125 7.46875 
Q 49.3125 8.734375 54.109375 11.28125 
L 54.109375 2.78125 
Q 49.265625 0.734375 44.1875 -0.34375 
Q 39.109375 -1.421875 33.890625 -1.421875 
Q 20.796875 -1.421875 13.15625 6.1875 
Q 5.515625 13.8125 5.515625 26.8125 
Q 5.515625 40.234375 12.765625 48.109375 
Q 20.015625 56 32.328125 56 
Q 43.359375 56 49.78125 48.890625 
Q 56.203125 41.796875 56.203125 29.59375 
z
M 47.21875 32.234375 
Q 47.125 39.59375 43.09375 43.984375 
Q 39.0625 48.390625 32.421875 48.390625 
Q 24.90625 48.390625 20.390625 44.140625 
Q 15.875 39.890625 15.1875 32.171875 
z
" id="DejaVuSans-101"/>
      <path d="M 54.890625 54.6875 
L 35.109375 28.078125 
L 55.90625 0 
L 45.3125 0 
L 29.390625 21.484375 
L 13.484375 0 
L 2.875 0 
L 24.125 28.609375 
L 4.6875 54.6875 
L 15.28125 54.6875 
L 29.78125 35.203125 
L 44.28125 54.6875 
z
" id="DejaVuSans-120"/>
      <path d="M 18.109375 8.203125 
L 18.109375 -20.796875 
L 9.078125 -20.796875 
L 9.078125 54.6875 
L 18.109375 54.6875 
L 18.109375 46.390625 
Q 20.953125 51.265625 25.265625 53.625 
Q 29.59375 56 35.59375 56 
Q 45.5625 56 51.78125 48.09375 
Q 58.015625 40.1875 58.015625 27.296875 
Q 58.015625 14.40625 51.78125 6.484375 
Q 45.5625 -1.421875 35.59375 -1.421875 
Q 29.59375 -1.421875 25.265625 0.953125 
Q 20.953125 3.328125 18.109375 8.203125 
z
M 48.6875 27.296875 
Q 48.6875 37.203125 44.609375 42.84375 
Q 40.53125 48.484375 33.40625 48.484375 
Q 26.265625 48.484375 22.1875 42.84375 
Q 18.109375 37.203125 18.109375 27.296875 
Q 18.109375 17.390625 22.1875 11.75 
Q 26.265625 6.109375 33.40625 6.109375 
Q 40.53125 6.109375 44.609375 11.75 
Q 48.6875 17.390625 48.6875 27.296875 
z
" id="DejaVuSans-112"/>
      <path d="M 41.109375 46.296875 
Q 39.59375 47.171875 37.8125 47.578125 
Q 36.03125 48 33.890625 48 
Q 26.265625 48 22.1875 43.046875 
Q 18.109375 38.09375 18.109375 28.8125 
L 18.109375 0 
L 9.078125 0 
L 9.078125 54.6875 
L 18.109375 54.6875 
L 18.109375 46.1875 
Q 20.953125 51.171875 25.484375 53.578125 
Q 30.03125 56 36.53125 56 
Q 37.453125 56 38.578125 55.875 
Q 39.703125 55.765625 41.0625 55.515625 
z
" id="DejaVuSans-114"/>
      <path d="M 9.421875 54.6875 
L 18.40625 54.6875 
L 18.40625 0 
L 9.421875 0 
z
M 9.421875 75.984375 
L 18.40625 75.984375 
L 18.40625 64.59375 
L 9.421875 64.59375 
z
" id="DejaVuSans-105"/>
      <path d="M 52 44.1875 
Q 55.375 50.25 60.0625 53.125 
Q 64.75 56 71.09375 56 
Q 79.640625 56 84.28125 50.015625 
Q 88.921875 44.046875 88.921875 33.015625 
L 88.921875 0 
L 79.890625 0 
L 79.890625 32.71875 
Q 79.890625 40.578125 77.09375 44.375 
Q 74.3125 48.1875 68.609375 48.1875 
Q 61.625 48.1875 57.5625 43.546875 
Q 53.515625 38.921875 53.515625 30.90625 
L 53.515625 0 
L 44.484375 0 
L 44.484375 32.71875 
Q 44.484375 40.625 41.703125 44.40625 
Q 38.921875 48.1875 33.109375 48.1875 
Q 26.21875 48.1875 22.15625 43.53125 
Q 18.109375 38.875 18.109375 30.90625 
L 18.109375 0 
L 9.078125 0 
L 9.078125 54.6875 
L 18.109375 54.6875 
L 18.109375 46.1875 
Q 21.1875 51.21875 25.484375 53.609375 
Q 29.78125 56 35.6875 56 
Q 41.65625 56 45.828125 52.96875 
Q 50 49.953125 52 44.1875 
z
" id="DejaVuSans-109"/>
      <path d="M 54.890625 33.015625 
L 54.890625 0 
L 45.90625 0 
L 45.90625 32.71875 
Q 45.90625 40.484375 42.875 44.328125 
Q 39.84375 48.1875 33.796875 48.1875 
Q 26.515625 48.1875 22.3125 43.546875 
Q 18.109375 38.921875 18.109375 30.90625 
L 18.109375 0 
L 9.078125 0 
L 9.078125 54.6875 
L 18.109375 54.6875 
L 18.109375 46.1875 
Q 21.34375 51.125 25.703125 53.5625 
Q 30.078125 56 35.796875 56 
Q 45.21875 56 50.046875 50.171875 
Q 54.890625 44.34375 54.890625 33.015625 
z
" id="DejaVuSans-110"/>
      <path d="M 18.3125 70.21875 
L 18.3125 54.6875 
L 36.8125 54.6875 
L 36.8125 47.703125 
L 18.3125 47.703125 
L 18.3125 18.015625 
Q 18.3125 11.328125 20.140625 9.421875 
Q 21.96875 7.515625 27.59375 7.515625 
L 36.8125 7.515625 
L 36.8125 0 
L 27.59375 0 
Q 17.1875 0 13.234375 3.875 
Q 9.28125 7.765625 9.28125 18.015625 
L 9.28125 47.703125 
L 2.6875 47.703125 
L 2.6875 54.6875 
L 9.28125 54.6875 
L 9.28125 70.21875 
z
" id="DejaVuSans-116"/>
      <path d="M 11.71875 12.40625 
L 22.015625 12.40625 
L 22.015625 0 
L 11.71875 0 
z
M 11.71875 51.703125 
L 22.015625 51.703125 
L 22.015625 39.3125 
L 11.71875 39.3125 
z
" id="DejaVuSans-58"/>
      <path id="DejaVuSans-32"/>
      <path d="M 4.203125 54.6875 
L 13.1875 54.6875 
L 24.421875 12.015625 
L 35.59375 54.6875 
L 46.1875 54.6875 
L 57.421875 12.015625 
L 68.609375 54.6875 
L 77.59375 54.6875 
L 63.28125 0 
L 52.6875 0 
L 40.921875 44.828125 
L 29.109375 0 
L 18.5 0 
z
" id="DejaVuSans-119"/>
      <path d="M 44.28125 53.078125 
L 44.28125 44.578125 
Q 40.484375 46.53125 36.375 47.5 
Q 32.28125 48.484375 27.875 48.484375 
Q 21.1875 48.484375 17.84375 46.4375 
Q 14.5 44.390625 14.5 40.28125 
Q 14.5 37.15625 16.890625 35.375 
Q 19.28125 33.59375 26.515625 31.984375 
L 29.59375 31.296875 
Q 39.15625 29.25 43.1875 25.515625 
Q 47.21875 21.78125 47.21875 15.09375 
Q 47.21875 7.46875 41.1875 3.015625 
Q 35.15625 -1.421875 24.609375 -1.421875 
Q 20.21875 -1.421875 15.453125 -0.5625 
Q 10.6875 0.296875 5.421875 2 
L 5.421875 11.28125 
Q 10.40625 8.6875 15.234375 7.390625 
Q 20.0625 6.109375 24.8125 6.109375 
Q 31.15625 6.109375 34.5625 8.28125 
Q 37.984375 10.453125 37.984375 14.40625 
Q 37.984375 18.0625 35.515625 20.015625 
Q 33.0625 21.96875 24.703125 23.78125 
L 21.578125 24.515625 
Q 13.234375 26.265625 9.515625 29.90625 
Q 5.8125 33.546875 5.8125 39.890625 
Q 5.8125 47.609375 11.28125 51.796875 
Q 16.75 56 26.8125 56 
Q 31.78125 56 36.171875 55.265625 
Q 40.578125 54.546875 44.28125 53.078125 
z
" id="DejaVuSans-115"/>
     </defs>
     <g transform="translate(180.034375 27.398438)scale(0.1 -0.1)">
      <use xlink:href="#DejaVuSans-101"/>
      <use x="61.507812" xlink:href="#DejaVuSans-120"/>
      <use x="120.6875" xlink:href="#DejaVuSans-112"/>
      <use x="184.164062" xlink:href="#DejaVuSans-101"/>
      <use x="245.6875" xlink:href="#DejaVuSans-114"/>
      <use x="286.800781" xlink:href="#DejaVuSans-105"/>
      <use x="314.583984" xlink:href="#DejaVuSans-109"/>
      <use x="411.996094" xlink:href="#DejaVuSans-101"/>
      <use x="473.519531" xlink:href="#DejaVuSans-110"/>
      <use x="536.898438" xlink:href="#DejaVuSans-116"/>
      <use x="576.107422" xlink:href="#DejaVuSans-58"/>
      <use x="609.798828" xlink:href="#DejaVuSans-32"/>
      <use x="641.585938" xlink:href="#DejaVuSans-116"/>
      <use x="680.794922" xlink:href="#DejaVuSans-119"/>
      <use x="762.582031" xlink:href="#DejaVuSans-105"/>
      <use x="790.365234" xlink:href="#DejaVuSans-115"/>
      <use x="842.464844" xlink:href="#DejaVuSans-116"/>
     </g>
    </g>
    <g id="line2d_17">
     <path d="M 152.034375 38.576562 
L 172.034375 38.576562 
" style="fill:none;stroke:#ff0000;stroke-linecap:square;stroke-width:1.5;"/>
    </g>
    <g id="line2d_18"/>
    <g id="text_14">
     <!-- theory: twist -->
     <defs>
      <path d="M 54.890625 33.015625 
L 54.890625 0 
L 45.90625 0 
L 45.90625 32.71875 
Q 45.90625 40.484375 42.875 44.328125 
Q 39.84375 48.1875 33.796875 48.1875 
Q 26.515625 48.1875 22.3125 43.546875 
Q 18.109375 38.921875 18.109375 30.90625 
L 18.109375 0 
L 9.078125 0 
L 9.078125 75.984375 
L 18.109375 75.984375 
L 18.109375 46.1875 
Q 21.34375 51.125 25.703125 53.5625 
Q 30.078125 56 35.796875 56 
Q 45.21875 56 50.046875 50.171875 
Q 54.890625 44.34375 54.890625 33.015625 
z
" id="DejaVuSans-104"/>
      <path d="M 30.609375 48.390625 
Q 23.390625 48.390625 19.1875 42.75 
Q 14.984375 37.109375 14.984375 27.296875 
Q 14.984375 17.484375 19.15625 11.84375 
Q 23.34375 6.203125 30.609375 6.203125 
Q 37.796875 6.203125 41.984375 11.859375 
Q 46.1875 17.53125 46.1875 27.296875 
Q 46.1875 37.015625 41.984375 42.703125 
Q 37.796875 48.390625 30.609375 48.390625 
z
M 30.609375 56 
Q 42.328125 56 49.015625 48.375 
Q 55.71875 40.765625 55.71875 27.296875 
Q 55.71875 13.875 49.015625 6.21875 
Q 42.328125 -1.421875 30.609375 -1.421875 
Q 18.84375 -1.421875 12.171875 6.21875 
Q 5.515625 13.875 5.515625 27.296875 
Q 5.515625 40.765625 12.171875 48.375 
Q 18.84375 56 30.609375 56 
z
" id="DejaVuSans-111"/>
      <path d="M 32.171875 -5.078125 
Q 28.375 -14.84375 24.75 -17.8125 
Q 21.140625 -20.796875 15.09375 -20.796875 
L 7.90625 -20.796875 
L 7.90625 -13.28125 
L 13.1875 -13.28125 
Q 16.890625 -13.28125 18.9375 -11.515625 
Q 21 -9.765625 23.484375 -3.21875 
L 25.09375 0.875 
L 2.984375 54.6875 
L 12.5 54.6875 
L 29.59375 11.921875 
L 46.6875 54.6875 
L 56.203125 54.6875 
z
" id="DejaVuSans-121"/>
     </defs>
     <g transform="translate(180.034375 42.076562)scale(0.1 -0.1)">
      <use xlink:href="#DejaVuSans-116"/>
      <use x="39.208984" xlink:href="#DejaVuSans-104"/>
      <use x="102.587891" xlink:href="#DejaVuSans-101"/>
      <use x="164.111328" xlink:href="#DejaVuSans-111"/>
      <use x="225.292969" xlink:href="#DejaVuSans-114"/>
      <use x="266.40625" xlink:href="#DejaVuSans-121"/>
      <use x="325.476562" xlink:href="#DejaVuSans-58"/>
      <use x="359.167969" xlink:href="#DejaVuSans-32"/>
      <use x="390.955078" xlink:href="#DejaVuSans-116"/>
      <use x="430.164062" xlink:href="#DejaVuSans-119"/>
      <use x="511.951172" xlink:href="#DejaVuSans-105"/>
      <use x="539.734375" xlink:href="#DejaVuSans-115"/>
      <use x="591.833984" xlink:href="#DejaVuSans-116"/>
     </g>
    </g>
   </g>
  </g>
 </g>
 <defs>
  <clipPath id="pbb5a6d16c1">
   <rect height="252.9" width="240.525" x="36.675" y="10.8"/>
  </clipPath>
 </defs>
</svg>
