<?xml version="1.0" encoding="utf-8" standalone="no"?>
<!DOCTYPE svg PUBLIC "-//W3C//DTD SVG 1.1//EN"
  "http://www.w3.org/Graphics/SVG/1.1/DTD/svg11.dtd">
<!-- Created with matplotlib (https://matplotlib.org/) -->
<svg height="288pt" version="1.1" viewBox="0 0 288 288" width="288pt" xmlns="http://www.w3.org/2000/svg" xmlns:xlink="http://www.w3.org/1999/xlink">
 <defs>
  <style type="text/css">
*{stroke-linecap:butt;stroke-linejoin:round;}
  </style>
 </defs>
 <g id="figure_1">
  <g id="patch_1">
   <path d="M 0 288 
L 288 288 
L 288 0 
L 0 0 
z
" style="fill:#ffffff;"/>
  </g>
  <g id="axes_1">
   <g id="patch_2">
    <path d="M 44.925 263.7 
L 277.2 263.7 
L 277.2 10.8 
L 44.925 10.8 
z
" style="fill:#ffffff;"/>
   </g>
   <g id="matplotlib.axis_1">
    <g id="xtick_1">
     <g id="line2d_1">
      <defs>
       <path d="M 0 0 
L 0 -3.5 
" id="m52100eb35b" style="stroke:#000000;stroke-width:0.8;"/>
      </defs>
      <g>
       <use style="stroke:#000000;stroke-width:0.8;" x="55.482955" xlink:href="#m52100eb35b" y="263.7"/>
      </g>
     </g>
     <g id="text_1">
      <!-- 0 -->
      <defs>
       <path d="M 31.78125 66.40625 
Q 24.171875 66.40625 20.328125 58.90625 
Q 16.5 51.421875 16.5 36.375 
Q 16.5 21.390625 20.328125 13.890625 
Q 24.171875 6.390625 31.78125 6.390625 
Q 39.453125 6.390625 43.28125 13.890625 
Q 47.125 21.390625 47.125 36.375 
Q 47.125 51.421875 43.28125 58.90625 
Q 39.453125 66.40625 31.78125 66.40625 
z
M 31.78125 74.21875 
Q 44.046875 74.21875 50.515625 64.515625 
Q 56.984375 54.828125 56.984375 36.375 
Q 56.984375 17.96875 50.515625 8.265625 
Q 44.046875 -1.421875 31.78125 -1.421875 
Q 19.53125 -1.421875 13.0625 8.265625 
Q 6.59375 17.96875 6.59375 36.375 
Q 6.59375 54.828125 13.0625 64.515625 
Q 19.53125 74.21875 31.78125 74.21875 
z
" id="DejaVuSans-48"/>
      </defs>
      <g transform="translate(52.301705 274.798438)scale(0.1 -0.1)">
       <use xlink:href="#DejaVuSans-48"/>
      </g>
     </g>
    </g>
    <g id="xtick_2">
     <g id="line2d_2">
      <g>
       <use style="stroke:#000000;stroke-width:0.8;" x="121.780942" xlink:href="#m52100eb35b" y="263.7"/>
      </g>
     </g>
     <g id="text_2">
      <!-- 5 -->
      <defs>
       <path d="M 10.796875 72.90625 
L 49.515625 72.90625 
L 49.515625 64.59375 
L 19.828125 64.59375 
L 19.828125 46.734375 
Q 21.96875 47.46875 24.109375 47.828125 
Q 26.265625 48.1875 28.421875 48.1875 
Q 40.625 48.1875 47.75 41.5 
Q 54.890625 34.8125 54.890625 23.390625 
Q 54.890625 11.625 47.5625 5.09375 
Q 40.234375 -1.421875 26.90625 -1.421875 
Q 22.3125 -1.421875 17.546875 -0.640625 
Q 12.796875 0.140625 7.71875 1.703125 
L 7.71875 11.625 
Q 12.109375 9.234375 16.796875 8.0625 
Q 21.484375 6.890625 26.703125 6.890625 
Q 35.15625 6.890625 40.078125 11.328125 
Q 45.015625 15.765625 45.015625 23.390625 
Q 45.015625 31 40.078125 35.4375 
Q 35.15625 39.890625 26.703125 39.890625 
Q 22.75 39.890625 18.8125 39.015625 
Q 14.890625 38.140625 10.796875 36.28125 
z
" id="DejaVuSans-53"/>
      </defs>
      <g transform="translate(118.599692 274.798438)scale(0.1 -0.1)">
       <use xlink:href="#DejaVuSans-53"/>
      </g>
     </g>
    </g>
    <g id="xtick_3">
     <g id="line2d_3">
      <g>
       <use style="stroke:#000000;stroke-width:0.8;" x="188.07893" xlink:href="#m52100eb35b" y="263.7"/>
      </g>
     </g>
     <g id="text_3">
      <!-- 10 -->
      <defs>
       <path d="M 12.40625 8.296875 
L 28.515625 8.296875 
L 28.515625 63.921875 
L 10.984375 60.40625 
L 10.984375 69.390625 
L 28.421875 72.90625 
L 38.28125 72.90625 
L 38.28125 8.296875 
L 54.390625 8.296875 
L 54.390625 0 
L 12.40625 0 
z
" id="DejaVuSans-49"/>
      </defs>
      <g transform="translate(181.71643 274.798438)scale(0.1 -0.1)">
       <use xlink:href="#DejaVuSans-49"/>
       <use x="63.623047" xlink:href="#DejaVuSans-48"/>
      </g>
     </g>
    </g>
    <g id="xtick_4">
     <g id="line2d_4">
      <g>
       <use style="stroke:#000000;stroke-width:0.8;" x="254.376918" xlink:href="#m52100eb35b" y="263.7"/>
      </g>
     </g>
     <g id="text_4">
      <!-- 15 -->
      <g transform="translate(248.014418 274.798438)scale(0.1 -0.1)">
       <use xlink:href="#DejaVuSans-49"/>
       <use x="63.623047" xlink:href="#DejaVuSans-53"/>
      </g>
     </g>
    </g>
   </g>
   <g id="matplotlib.axis_2">
    <g id="ytick_1">
     <g id="line2d_5">
      <defs>
       <path d="M 0 0 
L 3.5 0 
" id="m4e2af5f2ea" style="stroke:#000000;stroke-width:0.8;"/>
      </defs>
      <g>
       <use style="stroke:#000000;stroke-width:0.8;" x="44.925" xlink:href="#m4e2af5f2ea" y="244.266886"/>
      </g>
     </g>
     <g id="text_5">
      <!-- −0.79 -->
      <defs>
       <path d="M 10.59375 35.5 
L 73.1875 35.5 
L 73.1875 27.203125 
L 10.59375 27.203125 
z
" id="DejaVuSans-8722"/>
       <path d="M 10.6875 12.40625 
L 21 12.40625 
L 21 0 
L 10.6875 0 
z
" id="DejaVuSans-46"/>
       <path d="M 8.203125 72.90625 
L 55.078125 72.90625 
L 55.078125 68.703125 
L 28.609375 0 
L 18.3125 0 
L 43.21875 64.59375 
L 8.203125 64.59375 
z
" id="DejaVuSans-55"/>
       <path d="M 10.984375 1.515625 
L 10.984375 10.5 
Q 14.703125 8.734375 18.5 7.8125 
Q 22.3125 6.890625 25.984375 6.890625 
Q 35.75 6.890625 40.890625 13.453125 
Q 46.046875 20.015625 46.78125 33.40625 
Q 43.953125 29.203125 39.59375 26.953125 
Q 35.25 24.703125 29.984375 24.703125 
Q 19.046875 24.703125 12.671875 31.3125 
Q 6.296875 37.9375 6.296875 49.421875 
Q 6.296875 60.640625 12.9375 67.421875 
Q 19.578125 74.21875 30.609375 74.21875 
Q 43.265625 74.21875 49.921875 64.515625 
Q 56.59375 54.828125 56.59375 36.375 
Q 56.59375 19.140625 48.40625 8.859375 
Q 40.234375 -1.421875 26.421875 -1.421875 
Q 22.703125 -1.421875 18.890625 -0.6875 
Q 15.09375 0.046875 10.984375 1.515625 
z
M 30.609375 32.421875 
Q 37.25 32.421875 41.125 36.953125 
Q 45.015625 41.5 45.015625 49.421875 
Q 45.015625 57.28125 41.125 61.84375 
Q 37.25 66.40625 30.609375 66.40625 
Q 23.96875 66.40625 20.09375 61.84375 
Q 16.21875 57.28125 16.21875 49.421875 
Q 16.21875 41.5 20.09375 36.953125 
Q 23.96875 32.421875 30.609375 32.421875 
z
" id="DejaVuSans-57"/>
      </defs>
      <g transform="translate(10.779688 248.066105)scale(0.1 -0.1)">
       <use xlink:href="#DejaVuSans-8722"/>
       <use x="83.789062" xlink:href="#DejaVuSans-48"/>
       <use x="147.412109" xlink:href="#DejaVuSans-46"/>
       <use x="179.199219" xlink:href="#DejaVuSans-55"/>
       <use x="242.822266" xlink:href="#DejaVuSans-57"/>
      </g>
     </g>
    </g>
    <g id="ytick_2">
     <g id="line2d_6">
      <g>
       <use style="stroke:#000000;stroke-width:0.8;" x="44.925" xlink:href="#m4e2af5f2ea" y="136.864131"/>
      </g>
     </g>
     <g id="text_6">
      <!-- 0.00 -->
      <g transform="translate(19.159375 140.66335)scale(0.1 -0.1)">
       <use xlink:href="#DejaVuSans-48"/>
       <use x="63.623047" xlink:href="#DejaVuSans-46"/>
       <use x="95.410156" xlink:href="#DejaVuSans-48"/>
       <use x="159.033203" xlink:href="#DejaVuSans-48"/>
      </g>
     </g>
    </g>
    <g id="ytick_3">
     <g id="line2d_7">
      <g>
       <use style="stroke:#000000;stroke-width:0.8;" x="44.925" xlink:href="#m4e2af5f2ea" y="29.461376"/>
      </g>
     </g>
     <g id="text_7">
      <!-- 0.79 -->
      <g transform="translate(19.159375 33.260595)scale(0.1 -0.1)">
       <use xlink:href="#DejaVuSans-48"/>
       <use x="63.623047" xlink:href="#DejaVuSans-46"/>
       <use x="95.410156" xlink:href="#DejaVuSans-55"/>
       <use x="159.033203" xlink:href="#DejaVuSans-57"/>
      </g>
     </g>
    </g>
   </g>
   <g id="line2d_8">
    <path clip-path="url(#pa99c809dc6)" d="M 55.482955 136.864131 
L 56.256431 128.56214 
L 57.029908 129.196452 
L 57.803384 130.04888 
L 58.576861 129.503376 
L 59.350337 133.840602 
L 60.123814 127.986066 
L 60.89729 134.793506 
L 61.670767 127.066887 
L 62.444243 132.050064 
L 63.21772 128.668489 
L 63.991196 126.619966 
L 64.764673 127.47926 
L 65.538149 123.600064 
L 66.311626 128.453225 
L 67.085102 126.002613 
L 67.858579 126.518463 
L 68.632055 122.824322 
L 70.179008 124.865136 
L 70.952485 123.027755 
L 71.725962 125.703572 
L 72.499438 117.998281 
L 73.272915 118.420284 
L 74.046391 118.139668 
L 74.819868 114.509585 
L 75.593344 112.833211 
L 76.366821 114.768197 
L 77.140297 111.678332 
L 77.913774 111.119852 
L 78.68725 108.424981 
L 79.460727 104.110351 
L 80.234203 102.144449 
L 81.00768 105.797046 
L 81.781156 98.479293 
L 82.554633 94.790961 
L 83.328109 98.805994 
L 84.101586 97.17788 
L 84.875062 97.31803 
L 85.648539 91.268349 
L 86.422015 92.335257 
L 87.195492 94.742552 
L 87.968969 96.078909 
L 88.742445 96.229765 
L 89.515922 96.161746 
L 90.289398 99.355331 
L 91.062875 91.916085 
L 91.836351 94.01247 
L 92.609828 90.34984 
L 93.383304 92.525599 
L 94.156781 87.146153 
L 94.930257 91.112364 
L 95.703734 89.41374 
L 96.47721 82.807152 
L 97.250687 80.630859 
L 98.024163 80.55513 
L 98.79764 84.158589 
L 99.571116 79.249255 
L 100.344593 82.212524 
L 101.118069 84.207406 
L 101.891546 83.136602 
L 102.665022 75.921789 
L 103.438499 79.953466 
L 104.211976 76.425161 
L 104.985452 74.176045 
L 105.758929 76.472435 
L 106.532405 77.407611 
L 107.305882 82.023568 
L 108.079358 77.563233 
L 108.852835 82.84315 
L 109.626311 77.768323 
L 110.399788 76.393041 
L 111.173264 71.379067 
L 111.946741 74.512429 
L 112.720217 69.362232 
L 113.493694 75.431212 
L 114.26717 72.601774 
L 115.040647 74.003377 
L 115.814123 74.796197 
L 116.5876 74.4404 
L 117.361076 83.76879 
L 118.134553 70.906457 
L 118.908029 79.562997 
L 119.681506 74.622059 
L 120.454983 74.37502 
L 121.228459 70.207541 
L 122.001936 79.988481 
L 122.775412 74.529259 
L 123.548889 76.591786 
L 124.322365 75.911952 
L 125.095842 70.286111 
L 125.869318 72.381132 
L 126.642795 73.159428 
L 127.416271 72.98476 
L 128.189748 73.142046 
L 128.963224 75.605844 
L 129.736701 70.902465 
L 130.510177 72.62178 
L 131.283654 70.16368 
L 132.05713 70.311331 
L 132.830607 69.51084 
L 133.604083 69.232913 
L 134.37756 68.504404 
L 135.151036 71.620162 
L 135.924513 68.01576 
L 136.69799 72.95376 
L 137.471466 71.814551 
L 138.244943 71.737599 
L 139.018419 71.806607 
L 139.791896 75.96851 
L 140.565372 76.960583 
L 141.338849 73.098612 
L 142.112325 74.756825 
L 142.885802 70.306347 
L 143.659278 69.796431 
L 144.432755 67.710811 
L 145.206231 67.698909 
L 145.979708 76.323075 
L 146.753184 72.518086 
L 147.526661 71.168653 
L 148.300137 75.342668 
L 149.073614 73.304385 
L 149.84709 79.869881 
L 150.620567 74.60971 
L 151.394043 80.58485 
L 152.16752 81.618443 
L 152.940997 78.319295 
L 153.714473 81.855457 
L 154.48795 83.17062 
L 155.261426 81.356492 
L 157.581856 90.684409 
L 158.355332 91.172014 
L 159.902285 103.812473 
L 160.675762 116.898248 
L 161.449238 118.170523 
L 162.222715 123.713248 
L 162.996191 145.140066 
L 163.769668 147.384531 
L 164.543144 163.816789 
L 166.090097 201.194026 
L 166.863574 225.742077 
L 168.410527 252.204545 
L 169.184003 247.048342 
L 169.95748 248.836272 
L 170.730957 247.50291 
L 171.504433 233.386904 
L 172.27791 230.760195 
L 173.051386 220.937698 
L 173.824863 218.514747 
L 175.371816 227.191473 
L 176.145292 228.023449 
L 176.918769 229.892851 
L 177.692245 232.793186 
L 178.465722 236.280854 
L 180.012675 229.668044 
L 180.786151 227.878082 
L 181.559628 231.303461 
L 182.333104 223.548113 
L 183.106581 228.427573 
L 183.880057 220.467996 
L 184.653534 223.115698 
L 185.42701 224.504042 
L 186.200487 224.373237 
L 186.973964 225.5474 
L 187.74744 220.484415 
L 188.520917 225.959834 
L 189.294393 220.340651 
L 190.06787 221.702357 
L 190.841346 226.731183 
L 191.614823 221.235853 
L 192.388299 221.572351 
L 193.161776 219.727628 
L 193.935252 219.67335 
L 194.708729 217.854476 
L 195.482205 223.214409 
L 196.255682 216.265341 
L 197.029158 216.993437 
L 197.802635 220.537156 
L 198.576111 219.458995 
L 199.349588 215.751058 
L 200.123064 218.804979 
L 200.896541 216.497477 
L 201.670017 218.135264 
L 202.443494 218.921436 
L 203.216971 212.404496 
L 203.990447 217.050853 
L 204.763924 214.218355 
L 205.5374 213.833186 
L 206.310877 214.376012 
L 207.084353 216.413755 
L 207.85783 215.135152 
L 208.631306 214.354644 
L 209.404783 214.054533 
L 210.178259 212.209668 
L 210.951736 209.686466 
L 211.725212 208.405121 
L 212.498689 209.914626 
L 213.272165 206.519964 
L 214.045642 205.426459 
L 214.819118 207.19601 
L 215.592595 209.418407 
L 216.366071 207.754662 
L 217.139548 204.829692 
L 217.913024 208.627338 
L 218.686501 208.771087 
L 220.233454 202.815607 
L 221.006931 206.439639 
L 221.780407 202.878343 
L 222.553884 202.132787 
L 223.32736 200.496323 
L 224.100837 201.397299 
L 224.874313 199.224196 
L 225.64779 199.412145 
L 226.421266 199.194179 
L 227.194743 200.798027 
L 227.968219 194.241522 
L 228.741696 195.656046 
L 229.515172 191.62857 
L 230.288649 197.586344 
L 231.062125 194.404751 
L 231.835602 193.95776 
L 233.382555 190.353721 
L 234.156031 192.236846 
L 234.929508 189.977327 
L 235.702985 191.127175 
L 236.476461 186.299636 
L 237.249938 186.729039 
L 238.023414 180.14336 
L 238.796891 184.465 
L 239.570367 182.795457 
L 240.343844 184.353993 
L 241.11732 184.364199 
L 241.890797 183.301747 
L 242.664273 187.151788 
L 243.43775 183.549477 
L 244.211226 182.498671 
L 244.984703 180.861711 
L 246.531656 171.421002 
L 248.078609 165.387671 
L 248.852085 170.283174 
L 249.625562 164.195468 
L 250.399038 174.007217 
L 251.172515 163.1567 
L 251.945992 167.12785 
L 252.719468 164.307647 
L 253.492945 171.596802 
L 254.266421 161.430872 
L 255.039898 153.953452 
L 255.813374 155.921497 
L 256.586851 155.977779 
L 258.133804 159.752337 
L 258.90728 156.038673 
L 259.680757 155.142214 
L 260.454233 150.997772 
L 261.22771 155.758718 
L 262.001186 146.187343 
L 262.774663 147.577128 
L 263.548139 142.518908 
L 264.321616 142.513082 
L 265.095092 143.984234 
L 265.868569 137.145368 
L 266.642045 143.995854 
L 266.642045 143.995854 
" style="fill:none;stroke:#1f77b4;stroke-linecap:square;stroke-width:1.5;"/>
   </g>
   <g id="line2d_9">
    <path clip-path="url(#pa99c809dc6)" d="M 55.482955 136.864131 
L 59.013154 122.546465 
L 62.543353 115.380795 
L 66.073552 108.2288 
L 69.603752 101.063129 
L 73.133951 101.063129 
L 76.66415 93.897459 
L 80.19435 86.745463 
L 83.724549 79.579793 
L 87.254748 72.427797 
L 90.784947 72.427797 
L 94.315147 65.262127 
L 97.845346 58.096457 
L 101.375545 58.096457 
L 104.905745 58.096457 
L 108.435944 50.944461 
L 111.966143 50.944461 
L 115.496343 43.778791 
L 119.026542 43.778791 
L 122.556741 36.626795 
L 126.08694 36.626795 
L 129.61714 29.461125 
L 133.147339 29.461125 
L 136.677538 29.461125 
L 140.207738 29.461125 
L 143.737937 22.295455 
L 147.268136 22.295455 
L 150.798335 22.295455 
L 154.328535 29.461125 
L 157.858734 29.461125 
L 161.388933 36.626795 
L 164.919133 43.778791 
L 168.449332 50.944461 
L 171.979531 58.096457 
" style="fill:none;stroke:#ff0000;stroke-linecap:square;stroke-width:1.5;"/>
   </g>
   <g id="line2d_10">
    <path clip-path="url(#pa99c809dc6)" d="M 179.03993 237.101467 
L 182.570129 229.949472 
L 186.100328 229.949472 
L 189.630528 229.949472 
L 193.160727 222.783801 
L 196.690926 222.783801 
L 200.221126 215.631806 
L 203.751325 215.631806 
L 207.281524 208.466135 
L 210.811723 208.466135 
L 214.341923 208.466135 
L 217.872122 201.300465 
L 221.402321 194.14847 
L 224.932521 194.14847 
L 228.46272 186.982799 
L 231.992919 179.830804 
L 235.523118 172.665133 
L 239.053318 165.499463 
L 242.583517 165.499463 
L 246.113716 158.347467 
L 249.643916 151.181797 
L 253.174115 144.029802 
L 256.704314 144.029802 
L 260.234513 144.029802 
L 263.764713 136.864131 
" style="fill:none;stroke:#ff0000;stroke-linecap:square;stroke-width:1.5;"/>
   </g>
   <g id="patch_3">
    <path d="M 44.925 263.7 
L 44.925 10.8 
" style="fill:none;stroke:#000000;stroke-linecap:square;stroke-linejoin:miter;stroke-width:0.8;"/>
   </g>
   <g id="patch_4">
    <path d="M 277.2 263.7 
L 277.2 10.8 
" style="fill:none;stroke:#000000;stroke-linecap:square;stroke-linejoin:miter;stroke-width:0.8;"/>
   </g>
   <g id="patch_5">
    <path d="M 44.925 263.7 
L 277.2 263.7 
" style="fill:none;stroke:#000000;stroke-linecap:square;stroke-linejoin:miter;stroke-width:0.8;"/>
   </g>
   <g id="patch_6">
    <path d="M 44.925 10.8 
L 277.2 10.8 
" style="fill:none;stroke:#000000;stroke-linecap:square;stroke-linejoin:miter;stroke-width:0.8;"/>
   </g>
   <g id="legend_1">
    <g id="patch_7">
     <path d="M 137.971875 48.15625 
L 270.2 48.15625 
Q 272.2 48.15625 272.2 46.15625 
L 272.2 17.8 
Q 272.2 15.8 270.2 15.8 
L 137.971875 15.8 
Q 135.971875 15.8 135.971875 17.8 
L 135.971875 46.15625 
Q 135.971875 48.15625 137.971875 48.15625 
z
" style="fill:#ffffff;opacity:0.8;stroke:#cccccc;stroke-linejoin:miter;"/>
    </g>
    <g id="line2d_11">
     <path d="M 139.971875 23.898438 
L 159.971875 23.898438 
" style="fill:none;stroke:#1f77b4;stroke-linecap:square;stroke-width:1.5;"/>
    </g>
    <g id="line2d_12"/>
    <g id="text_8">
     <!-- experiment: ratchet -->
     <defs>
      <path d="M 56.203125 29.59375 
L 56.203125 25.203125 
L 14.890625 25.203125 
Q 15.484375 15.921875 20.484375 11.0625 
Q 25.484375 6.203125 34.421875 6.203125 
Q 39.59375 6.203125 44.453125 7.46875 
Q 49.3125 8.734375 54.109375 11.28125 
L 54.109375 2.78125 
Q 49.265625 0.734375 44.1875 -0.34375 
Q 39.109375 -1.421875 33.890625 -1.421875 
Q 20.796875 -1.421875 13.15625 6.1875 
Q 5.515625 13.8125 5.515625 26.8125 
Q 5.515625 40.234375 12.765625 48.109375 
Q 20.015625 56 32.328125 56 
Q 43.359375 56 49.78125 48.890625 
Q 56.203125 41.796875 56.203125 29.59375 
z
M 47.21875 32.234375 
Q 47.125 39.59375 43.09375 43.984375 
Q 39.0625 48.390625 32.421875 48.390625 
Q 24.90625 48.390625 20.390625 44.140625 
Q 15.875 39.890625 15.1875 32.171875 
z
" id="DejaVuSans-101"/>
      <path d="M 54.890625 54.6875 
L 35.109375 28.078125 
L 55.90625 0 
L 45.3125 0 
L 29.390625 21.484375 
L 13.484375 0 
L 2.875 0 
L 24.125 28.609375 
L 4.6875 54.6875 
L 15.28125 54.6875 
L 29.78125 35.203125 
L 44.28125 54.6875 
z
" id="DejaVuSans-120"/>
      <path d="M 18.109375 8.203125 
L 18.109375 -20.796875 
L 9.078125 -20.796875 
L 9.078125 54.6875 
L 18.109375 54.6875 
L 18.109375 46.390625 
Q 20.953125 51.265625 25.265625 53.625 
Q 29.59375 56 35.59375 56 
Q 45.5625 56 51.78125 48.09375 
Q 58.015625 40.1875 58.015625 27.296875 
Q 58.015625 14.40625 51.78125 6.484375 
Q 45.5625 -1.421875 35.59375 -1.421875 
Q 29.59375 -1.421875 25.265625 0.953125 
Q 20.953125 3.328125 18.109375 8.203125 
z
M 48.6875 27.296875 
Q 48.6875 37.203125 44.609375 42.84375 
Q 40.53125 48.484375 33.40625 48.484375 
Q 26.265625 48.484375 22.1875 42.84375 
Q 18.109375 37.203125 18.109375 27.296875 
Q 18.109375 17.390625 22.1875 11.75 
Q 26.265625 6.109375 33.40625 6.109375 
Q 40.53125 6.109375 44.609375 11.75 
Q 48.6875 17.390625 48.6875 27.296875 
z
" id="DejaVuSans-112"/>
      <path d="M 41.109375 46.296875 
Q 39.59375 47.171875 37.8125 47.578125 
Q 36.03125 48 33.890625 48 
Q 26.265625 48 22.1875 43.046875 
Q 18.109375 38.09375 18.109375 28.8125 
L 18.109375 0 
L 9.078125 0 
L 9.078125 54.6875 
L 18.109375 54.6875 
L 18.109375 46.1875 
Q 20.953125 51.171875 25.484375 53.578125 
Q 30.03125 56 36.53125 56 
Q 37.453125 56 38.578125 55.875 
Q 39.703125 55.765625 41.0625 55.515625 
z
" id="DejaVuSans-114"/>
      <path d="M 9.421875 54.6875 
L 18.40625 54.6875 
L 18.40625 0 
L 9.421875 0 
z
M 9.421875 75.984375 
L 18.40625 75.984375 
L 18.40625 64.59375 
L 9.421875 64.59375 
z
" id="DejaVuSans-105"/>
      <path d="M 52 44.1875 
Q 55.375 50.25 60.0625 53.125 
Q 64.75 56 71.09375 56 
Q 79.640625 56 84.28125 50.015625 
Q 88.921875 44.046875 88.921875 33.015625 
L 88.921875 0 
L 79.890625 0 
L 79.890625 32.71875 
Q 79.890625 40.578125 77.09375 44.375 
Q 74.3125 48.1875 68.609375 48.1875 
Q 61.625 48.1875 57.5625 43.546875 
Q 53.515625 38.921875 53.515625 30.90625 
L 53.515625 0 
L 44.484375 0 
L 44.484375 32.71875 
Q 44.484375 40.625 41.703125 44.40625 
Q 38.921875 48.1875 33.109375 48.1875 
Q 26.21875 48.1875 22.15625 43.53125 
Q 18.109375 38.875 18.109375 30.90625 
L 18.109375 0 
L 9.078125 0 
L 9.078125 54.6875 
L 18.109375 54.6875 
L 18.109375 46.1875 
Q 21.1875 51.21875 25.484375 53.609375 
Q 29.78125 56 35.6875 56 
Q 41.65625 56 45.828125 52.96875 
Q 50 49.953125 52 44.1875 
z
" id="DejaVuSans-109"/>
      <path d="M 54.890625 33.015625 
L 54.890625 0 
L 45.90625 0 
L 45.90625 32.71875 
Q 45.90625 40.484375 42.875 44.328125 
Q 39.84375 48.1875 33.796875 48.1875 
Q 26.515625 48.1875 22.3125 43.546875 
Q 18.109375 38.921875 18.109375 30.90625 
L 18.109375 0 
L 9.078125 0 
L 9.078125 54.6875 
L 18.109375 54.6875 
L 18.109375 46.1875 
Q 21.34375 51.125 25.703125 53.5625 
Q 30.078125 56 35.796875 56 
Q 45.21875 56 50.046875 50.171875 
Q 54.890625 44.34375 54.890625 33.015625 
z
" id="DejaVuSans-110"/>
      <path d="M 18.3125 70.21875 
L 18.3125 54.6875 
L 36.8125 54.6875 
L 36.8125 47.703125 
L 18.3125 47.703125 
L 18.3125 18.015625 
Q 18.3125 11.328125 20.140625 9.421875 
Q 21.96875 7.515625 27.59375 7.515625 
L 36.8125 7.515625 
L 36.8125 0 
L 27.59375 0 
Q 17.1875 0 13.234375 3.875 
Q 9.28125 7.765625 9.28125 18.015625 
L 9.28125 47.703125 
L 2.6875 47.703125 
L 2.6875 54.6875 
L 9.28125 54.6875 
L 9.28125 70.21875 
z
" id="DejaVuSans-116"/>
      <path d="M 11.71875 12.40625 
L 22.015625 12.40625 
L 22.015625 0 
L 11.71875 0 
z
M 11.71875 51.703125 
L 22.015625 51.703125 
L 22.015625 39.3125 
L 11.71875 39.3125 
z
" id="DejaVuSans-58"/>
      <path id="DejaVuSans-32"/>
      <path d="M 34.28125 27.484375 
Q 23.390625 27.484375 19.1875 25 
Q 14.984375 22.515625 14.984375 16.5 
Q 14.984375 11.71875 18.140625 8.90625 
Q 21.296875 6.109375 26.703125 6.109375 
Q 34.1875 6.109375 38.703125 11.40625 
Q 43.21875 16.703125 43.21875 25.484375 
L 43.21875 27.484375 
z
M 52.203125 31.203125 
L 52.203125 0 
L 43.21875 0 
L 43.21875 8.296875 
Q 40.140625 3.328125 35.546875 0.953125 
Q 30.953125 -1.421875 24.3125 -1.421875 
Q 15.921875 -1.421875 10.953125 3.296875 
Q 6 8.015625 6 15.921875 
Q 6 25.140625 12.171875 29.828125 
Q 18.359375 34.515625 30.609375 34.515625 
L 43.21875 34.515625 
L 43.21875 35.40625 
Q 43.21875 41.609375 39.140625 45 
Q 35.0625 48.390625 27.6875 48.390625 
Q 23 48.390625 18.546875 47.265625 
Q 14.109375 46.140625 10.015625 43.890625 
L 10.015625 52.203125 
Q 14.9375 54.109375 19.578125 55.046875 
Q 24.21875 56 28.609375 56 
Q 40.484375 56 46.34375 49.84375 
Q 52.203125 43.703125 52.203125 31.203125 
z
" id="DejaVuSans-97"/>
      <path d="M 48.78125 52.59375 
L 48.78125 44.1875 
Q 44.96875 46.296875 41.140625 47.34375 
Q 37.3125 48.390625 33.40625 48.390625 
Q 24.65625 48.390625 19.8125 42.84375 
Q 14.984375 37.3125 14.984375 27.296875 
Q 14.984375 17.28125 19.8125 11.734375 
Q 24.65625 6.203125 33.40625 6.203125 
Q 37.3125 6.203125 41.140625 7.25 
Q 44.96875 8.296875 48.78125 10.40625 
L 48.78125 2.09375 
Q 45.015625 0.34375 40.984375 -0.53125 
Q 36.96875 -1.421875 32.421875 -1.421875 
Q 20.0625 -1.421875 12.78125 6.34375 
Q 5.515625 14.109375 5.515625 27.296875 
Q 5.515625 40.671875 12.859375 48.328125 
Q 20.21875 56 33.015625 56 
Q 37.15625 56 41.109375 55.140625 
Q 45.0625 54.296875 48.78125 52.59375 
z
" id="DejaVuSans-99"/>
      <path d="M 54.890625 33.015625 
L 54.890625 0 
L 45.90625 0 
L 45.90625 32.71875 
Q 45.90625 40.484375 42.875 44.328125 
Q 39.84375 48.1875 33.796875 48.1875 
Q 26.515625 48.1875 22.3125 43.546875 
Q 18.109375 38.921875 18.109375 30.90625 
L 18.109375 0 
L 9.078125 0 
L 9.078125 75.984375 
L 18.109375 75.984375 
L 18.109375 46.1875 
Q 21.34375 51.125 25.703125 53.5625 
Q 30.078125 56 35.796875 56 
Q 45.21875 56 50.046875 50.171875 
Q 54.890625 44.34375 54.890625 33.015625 
z
" id="DejaVuSans-104"/>
     </defs>
     <g transform="translate(167.971875 27.398438)scale(0.1 -0.1)">
      <use xlink:href="#DejaVuSans-101"/>
      <use x="61.507812" xlink:href="#DejaVuSans-120"/>
      <use x="120.6875" xlink:href="#DejaVuSans-112"/>
      <use x="184.164062" xlink:href="#DejaVuSans-101"/>
      <use x="245.6875" xlink:href="#DejaVuSans-114"/>
      <use x="286.800781" xlink:href="#DejaVuSans-105"/>
      <use x="314.583984" xlink:href="#DejaVuSans-109"/>
      <use x="411.996094" xlink:href="#DejaVuSans-101"/>
      <use x="473.519531" xlink:href="#DejaVuSans-110"/>
      <use x="536.898438" xlink:href="#DejaVuSans-116"/>
      <use x="576.107422" xlink:href="#DejaVuSans-58"/>
      <use x="609.798828" xlink:href="#DejaVuSans-32"/>
      <use x="641.585938" xlink:href="#DejaVuSans-114"/>
      <use x="682.699219" xlink:href="#DejaVuSans-97"/>
      <use x="743.978516" xlink:href="#DejaVuSans-116"/>
      <use x="783.1875" xlink:href="#DejaVuSans-99"/>
      <use x="838.167969" xlink:href="#DejaVuSans-104"/>
      <use x="901.546875" xlink:href="#DejaVuSans-101"/>
      <use x="963.070312" xlink:href="#DejaVuSans-116"/>
     </g>
    </g>
    <g id="line2d_13">
     <path d="M 139.971875 38.576562 
L 159.971875 38.576562 
" style="fill:none;stroke:#ff0000;stroke-linecap:square;stroke-width:1.5;"/>
    </g>
    <g id="line2d_14"/>
    <g id="text_9">
     <!-- theory: ratchet -->
     <defs>
      <path d="M 30.609375 48.390625 
Q 23.390625 48.390625 19.1875 42.75 
Q 14.984375 37.109375 14.984375 27.296875 
Q 14.984375 17.484375 19.15625 11.84375 
Q 23.34375 6.203125 30.609375 6.203125 
Q 37.796875 6.203125 41.984375 11.859375 
Q 46.1875 17.53125 46.1875 27.296875 
Q 46.1875 37.015625 41.984375 42.703125 
Q 37.796875 48.390625 30.609375 48.390625 
z
M 30.609375 56 
Q 42.328125 56 49.015625 48.375 
Q 55.71875 40.765625 55.71875 27.296875 
Q 55.71875 13.875 49.015625 6.21875 
Q 42.328125 -1.421875 30.609375 -1.421875 
Q 18.84375 -1.421875 12.171875 6.21875 
Q 5.515625 13.875 5.515625 27.296875 
Q 5.515625 40.765625 12.171875 48.375 
Q 18.84375 56 30.609375 56 
z
" id="DejaVuSans-111"/>
      <path d="M 32.171875 -5.078125 
Q 28.375 -14.84375 24.75 -17.8125 
Q 21.140625 -20.796875 15.09375 -20.796875 
L 7.90625 -20.796875 
L 7.90625 -13.28125 
L 13.1875 -13.28125 
Q 16.890625 -13.28125 18.9375 -11.515625 
Q 21 -9.765625 23.484375 -3.21875 
L 25.09375 0.875 
L 2.984375 54.6875 
L 12.5 54.6875 
L 29.59375 11.921875 
L 46.6875 54.6875 
L 56.203125 54.6875 
z
" id="DejaVuSans-121"/>
     </defs>
     <g transform="translate(167.971875 42.076562)scale(0.1 -0.1)">
      <use xlink:href="#DejaVuSans-116"/>
      <use x="39.208984" xlink:href="#DejaVuSans-104"/>
      <use x="102.587891" xlink:href="#DejaVuSans-101"/>
      <use x="164.111328" xlink:href="#DejaVuSans-111"/>
      <use x="225.292969" xlink:href="#DejaVuSans-114"/>
      <use x="266.40625" xlink:href="#DejaVuSans-121"/>
      <use x="325.476562" xlink:href="#DejaVuSans-58"/>
      <use x="359.167969" xlink:href="#DejaVuSans-32"/>
      <use x="390.955078" xlink:href="#DejaVuSans-114"/>
      <use x="432.068359" xlink:href="#DejaVuSans-97"/>
      <use x="493.347656" xlink:href="#DejaVuSans-116"/>
      <use x="532.556641" xlink:href="#DejaVuSans-99"/>
      <use x="587.537109" xlink:href="#DejaVuSans-104"/>
      <use x="650.916016" xlink:href="#DejaVuSans-101"/>
      <use x="712.439453" xlink:href="#DejaVuSans-116"/>
     </g>
    </g>
   </g>
  </g>
 </g>
 <defs>
  <clipPath id="pa99c809dc6">
   <rect height="252.9" width="232.275" x="44.925" y="10.8"/>
  </clipPath>
 </defs>
</svg>
