<?xml version="1.0" encoding="utf-8" standalone="no"?>
<!DOCTYPE svg PUBLIC "-//W3C//DTD SVG 1.1//EN"
  "http://www.w3.org/Graphics/SVG/1.1/DTD/svg11.dtd">
<!-- Created with matplotlib (https://matplotlib.org/) -->
<svg height="288pt" version="1.1" viewBox="0 0 288 288" width="288pt" xmlns="http://www.w3.org/2000/svg" xmlns:xlink="http://www.w3.org/1999/xlink">
 <defs>
  <style type="text/css">
*{stroke-linecap:butt;stroke-linejoin:round;}
  </style>
 </defs>
 <g id="figure_1">
  <g id="patch_1">
   <path d="M 0 288 
L 288 288 
L 288 0 
L 0 0 
z
" style="fill:#ffffff;"/>
  </g>
  <g id="axes_1">
   <g id="patch_2">
    <path d="M 45.05 263.7 
L 277.2 263.7 
L 277.2 10.8 
L 45.05 10.8 
z
" style="fill:#ffffff;"/>
   </g>
   <g id="PathCollection_1">
    <defs>
     <path d="M 0 0.5 
C 0.132602 0.5 0.25979 0.447317 0.353553 0.353553 
C 0.447317 0.25979 0.5 0.132602 0.5 0 
C 0.5 -0.132602 0.447317 -0.25979 0.353553 -0.353553 
C 0.25979 -0.447317 0.132602 -0.5 0 -0.5 
C -0.132602 -0.5 -0.25979 -0.447317 -0.353553 -0.353553 
C -0.447317 -0.25979 -0.5 -0.132602 -0.5 0 
C -0.5 0.132602 -0.447317 0.25979 -0.353553 0.353553 
C -0.25979 0.447317 -0.132602 0.5 0 0.5 
z
" id="mceacc9bd2f" style="stroke:#1f77b4;"/>
    </defs>
    <g clip-path="url(#p9e1c7c758e)">
     <use style="fill:#1f77b4;stroke:#1f77b4;" x="55.948436" xlink:href="#mceacc9bd2f" y="137.25"/>
     <use style="fill:#1f77b4;stroke:#1f77b4;" x="56.720156" xlink:href="#mceacc9bd2f" y="132.734284"/>
     <use style="fill:#1f77b4;stroke:#1f77b4;" x="57.491876" xlink:href="#mceacc9bd2f" y="133.079306"/>
     <use style="fill:#1f77b4;stroke:#1f77b4;" x="58.263596" xlink:href="#mceacc9bd2f" y="133.542969"/>
     <use style="fill:#1f77b4;stroke:#1f77b4;" x="59.035316" xlink:href="#mceacc9bd2f" y="133.246252"/>
     <use style="fill:#1f77b4;stroke:#1f77b4;" x="59.807036" xlink:href="#mceacc9bd2f" y="135.605407"/>
     <use style="fill:#1f77b4;stroke:#1f77b4;" x="60.578755" xlink:href="#mceacc9bd2f" y="132.420939"/>
     <use style="fill:#1f77b4;stroke:#1f77b4;" x="61.350475" xlink:href="#mceacc9bd2f" y="136.123721"/>
     <use style="fill:#1f77b4;stroke:#1f77b4;" x="62.122195" xlink:href="#mceacc9bd2f" y="131.920968"/>
     <use style="fill:#1f77b4;stroke:#1f77b4;" x="62.893915" xlink:href="#mceacc9bd2f" y="134.631476"/>
     <use style="fill:#1f77b4;stroke:#1f77b4;" x="63.665635" xlink:href="#mceacc9bd2f" y="132.79213"/>
     <use style="fill:#1f77b4;stroke:#1f77b4;" x="64.437355" xlink:href="#mceacc9bd2f" y="131.677874"/>
     <use style="fill:#1f77b4;stroke:#1f77b4;" x="65.209075" xlink:href="#mceacc9bd2f" y="132.145271"/>
     <use style="fill:#1f77b4;stroke:#1f77b4;" x="65.980795" xlink:href="#mceacc9bd2f" y="130.035253"/>
     <use style="fill:#1f77b4;stroke:#1f77b4;" x="66.752515" xlink:href="#mceacc9bd2f" y="132.675042"/>
     <use style="fill:#1f77b4;stroke:#1f77b4;" x="67.524235" xlink:href="#mceacc9bd2f" y="131.342076"/>
     <use style="fill:#1f77b4;stroke:#1f77b4;" x="68.295955" xlink:href="#mceacc9bd2f" y="131.622663"/>
     <use style="fill:#1f77b4;stroke:#1f77b4;" x="69.067674" xlink:href="#mceacc9bd2f" y="129.613303"/>
     <use style="fill:#1f77b4;stroke:#1f77b4;" x="69.839394" xlink:href="#mceacc9bd2f" y="130.160993"/>
     <use style="fill:#1f77b4;stroke:#1f77b4;" x="70.611114" xlink:href="#mceacc9bd2f" y="130.723366"/>
     <use style="fill:#1f77b4;stroke:#1f77b4;" x="71.382834" xlink:href="#mceacc9bd2f" y="129.723956"/>
     <use style="fill:#1f77b4;stroke:#1f77b4;" x="72.154554" xlink:href="#mceacc9bd2f" y="131.179418"/>
     <use style="fill:#1f77b4;stroke:#1f77b4;" x="72.926274" xlink:href="#mceacc9bd2f" y="126.988266"/>
     <use style="fill:#1f77b4;stroke:#1f77b4;" x="73.697994" xlink:href="#mceacc9bd2f" y="127.217807"/>
     <use style="fill:#1f77b4;stroke:#1f77b4;" x="74.469714" xlink:href="#mceacc9bd2f" y="127.065171"/>
     <use style="fill:#1f77b4;stroke:#1f77b4;" x="75.241434" xlink:href="#mceacc9bd2f" y="125.090654"/>
     <use style="fill:#1f77b4;stroke:#1f77b4;" x="76.013154" xlink:href="#mceacc9bd2f" y="124.178821"/>
     <use style="fill:#1f77b4;stroke:#1f77b4;" x="76.784873" xlink:href="#mceacc9bd2f" y="125.231321"/>
     <use style="fill:#1f77b4;stroke:#1f77b4;" x="77.556593" xlink:href="#mceacc9bd2f" y="123.550645"/>
     <use style="fill:#1f77b4;stroke:#1f77b4;" x="78.328313" xlink:href="#mceacc9bd2f" y="123.246871"/>
     <use style="fill:#1f77b4;stroke:#1f77b4;" x="79.100033" xlink:href="#mceacc9bd2f" y="121.781045"/>
     <use style="fill:#1f77b4;stroke:#1f77b4;" x="79.871753" xlink:href="#mceacc9bd2f" y="119.43418"/>
     <use style="fill:#1f77b4;stroke:#1f77b4;" x="80.643473" xlink:href="#mceacc9bd2f" y="118.364864"/>
     <use style="fill:#1f77b4;stroke:#1f77b4;" x="81.415193" xlink:href="#mceacc9bd2f" y="120.351628"/>
     <use style="fill:#1f77b4;stroke:#1f77b4;" x="82.186913" xlink:href="#mceacc9bd2f" y="116.37127"/>
     <use style="fill:#1f77b4;stroke:#1f77b4;" x="82.958633" xlink:href="#mceacc9bd2f" y="114.365069"/>
     <use style="fill:#1f77b4;stroke:#1f77b4;" x="83.730353" xlink:href="#mceacc9bd2f" y="116.548973"/>
     <use style="fill:#1f77b4;stroke:#1f77b4;" x="84.502073" xlink:href="#mceacc9bd2f" y="115.66339"/>
     <use style="fill:#1f77b4;stroke:#1f77b4;" x="85.273792" xlink:href="#mceacc9bd2f" y="115.739622"/>
     <use style="fill:#1f77b4;stroke:#1f77b4;" x="86.045512" xlink:href="#mceacc9bd2f" y="112.449008"/>
     <use style="fill:#1f77b4;stroke:#1f77b4;" x="86.817232" xlink:href="#mceacc9bd2f" y="113.029334"/>
     <use style="fill:#1f77b4;stroke:#1f77b4;" x="87.588952" xlink:href="#mceacc9bd2f" y="114.338738"/>
     <use style="fill:#1f77b4;stroke:#1f77b4;" x="88.360672" xlink:href="#mceacc9bd2f" y="115.065625"/>
     <use style="fill:#1f77b4;stroke:#1f77b4;" x="89.132392" xlink:href="#mceacc9bd2f" y="115.14768"/>
     <use style="fill:#1f77b4;stroke:#1f77b4;" x="89.904112" xlink:href="#mceacc9bd2f" y="115.110683"/>
     <use style="fill:#1f77b4;stroke:#1f77b4;" x="90.675832" xlink:href="#mceacc9bd2f" y="116.847774"/>
     <use style="fill:#1f77b4;stroke:#1f77b4;" x="91.447552" xlink:href="#mceacc9bd2f" y="112.801333"/>
     <use style="fill:#1f77b4;stroke:#1f77b4;" x="92.219272" xlink:href="#mceacc9bd2f" y="113.941623"/>
     <use style="fill:#1f77b4;stroke:#1f77b4;" x="92.990991" xlink:href="#mceacc9bd2f" y="111.949402"/>
     <use style="fill:#1f77b4;stroke:#1f77b4;" x="93.762711" xlink:href="#mceacc9bd2f" y="113.132867"/>
     <use style="fill:#1f77b4;stroke:#1f77b4;" x="94.534431" xlink:href="#mceacc9bd2f" y="110.206815"/>
     <use style="fill:#1f77b4;stroke:#1f77b4;" x="95.306151" xlink:href="#mceacc9bd2f" y="112.364163"/>
     <use style="fill:#1f77b4;stroke:#1f77b4;" x="96.077871" xlink:href="#mceacc9bd2f" y="111.440228"/>
     <use style="fill:#1f77b4;stroke:#1f77b4;" x="96.849591" xlink:href="#mceacc9bd2f" y="107.846695"/>
     <use style="fill:#1f77b4;stroke:#1f77b4;" x="97.621311" xlink:href="#mceacc9bd2f" y="106.662941"/>
     <use style="fill:#1f77b4;stroke:#1f77b4;" x="98.393031" xlink:href="#mceacc9bd2f" y="106.621749"/>
     <use style="fill:#1f77b4;stroke:#1f77b4;" x="99.164751" xlink:href="#mceacc9bd2f" y="108.581785"/>
     <use style="fill:#1f77b4;stroke:#1f77b4;" x="99.936471" xlink:href="#mceacc9bd2f" y="105.911442"/>
     <use style="fill:#1f77b4;stroke:#1f77b4;" x="100.708191" xlink:href="#mceacc9bd2f" y="107.523259"/>
     <use style="fill:#1f77b4;stroke:#1f77b4;" x="101.47991" xlink:href="#mceacc9bd2f" y="108.608338"/>
     <use style="fill:#1f77b4;stroke:#1f77b4;" x="102.25163" xlink:href="#mceacc9bd2f" y="108.025894"/>
     <use style="fill:#1f77b4;stroke:#1f77b4;" x="103.02335" xlink:href="#mceacc9bd2f" y="104.101528"/>
     <use style="fill:#1f77b4;stroke:#1f77b4;" x="103.79507" xlink:href="#mceacc9bd2f" y="106.294485"/>
     <use style="fill:#1f77b4;stroke:#1f77b4;" x="104.56679" xlink:href="#mceacc9bd2f" y="104.375328"/>
     <use style="fill:#1f77b4;stroke:#1f77b4;" x="105.33851" xlink:href="#mceacc9bd2f" y="103.151963"/>
     <use style="fill:#1f77b4;stroke:#1f77b4;" x="106.11023" xlink:href="#mceacc9bd2f" y="104.401042"/>
     <use style="fill:#1f77b4;stroke:#1f77b4;" x="106.88195" xlink:href="#mceacc9bd2f" y="104.909714"/>
     <use style="fill:#1f77b4;stroke:#1f77b4;" x="107.65367" xlink:href="#mceacc9bd2f" y="107.420479"/>
     <use style="fill:#1f77b4;stroke:#1f77b4;" x="108.42539" xlink:href="#mceacc9bd2f" y="104.994361"/>
     <use style="fill:#1f77b4;stroke:#1f77b4;" x="109.197109" xlink:href="#mceacc9bd2f" y="107.866276"/>
     <use style="fill:#1f77b4;stroke:#1f77b4;" x="109.968829" xlink:href="#mceacc9bd2f" y="105.105916"/>
     <use style="fill:#1f77b4;stroke:#1f77b4;" x="110.740549" xlink:href="#mceacc9bd2f" y="104.357857"/>
     <use style="fill:#1f77b4;stroke:#1f77b4;" x="111.512269" xlink:href="#mceacc9bd2f" y="101.630597"/>
     <use style="fill:#1f77b4;stroke:#1f77b4;" x="112.283989" xlink:href="#mceacc9bd2f" y="103.334932"/>
     <use style="fill:#1f77b4;stroke:#1f77b4;" x="113.055709" xlink:href="#mceacc9bd2f" y="100.533577"/>
     <use style="fill:#1f77b4;stroke:#1f77b4;" x="113.827429" xlink:href="#mceacc9bd2f" y="103.834688"/>
     <use style="fill:#1f77b4;stroke:#1f77b4;" x="114.599149" xlink:href="#mceacc9bd2f" y="102.295667"/>
     <use style="fill:#1f77b4;stroke:#1f77b4;" x="115.370869" xlink:href="#mceacc9bd2f" y="103.058043"/>
     <use style="fill:#1f77b4;stroke:#1f77b4;" x="116.142589" xlink:href="#mceacc9bd2f" y="103.489283"/>
     <use style="fill:#1f77b4;stroke:#1f77b4;" x="116.914308" xlink:href="#mceacc9bd2f" y="103.295753"/>
     <use style="fill:#1f77b4;stroke:#1f77b4;" x="117.686028" xlink:href="#mceacc9bd2f" y="108.36976"/>
     <use style="fill:#1f77b4;stroke:#1f77b4;" x="118.457748" xlink:href="#mceacc9bd2f" y="101.37353"/>
     <use style="fill:#1f77b4;stroke:#1f77b4;" x="119.229468" xlink:href="#mceacc9bd2f" y="106.082097"/>
     <use style="fill:#1f77b4;stroke:#1f77b4;" x="120.001188" xlink:href="#mceacc9bd2f" y="103.394564"/>
     <use style="fill:#1f77b4;stroke:#1f77b4;" x="120.772908" xlink:href="#mceacc9bd2f" y="103.260191"/>
     <use style="fill:#1f77b4;stroke:#1f77b4;" x="121.544628" xlink:href="#mceacc9bd2f" y="100.993367"/>
     <use style="fill:#1f77b4;stroke:#1f77b4;" x="122.316348" xlink:href="#mceacc9bd2f" y="106.313531"/>
     <use style="fill:#1f77b4;stroke:#1f77b4;" x="123.088068" xlink:href="#mceacc9bd2f" y="103.344087"/>
     <use style="fill:#1f77b4;stroke:#1f77b4;" x="123.859788" xlink:href="#mceacc9bd2f" y="104.465961"/>
     <use style="fill:#1f77b4;stroke:#1f77b4;" x="124.631508" xlink:href="#mceacc9bd2f" y="104.096178"/>
     <use style="fill:#1f77b4;stroke:#1f77b4;" x="125.403227" xlink:href="#mceacc9bd2f" y="101.036104"/>
     <use style="fill:#1f77b4;stroke:#1f77b4;" x="126.174947" xlink:href="#mceacc9bd2f" y="102.175652"/>
     <use style="fill:#1f77b4;stroke:#1f77b4;" x="126.946667" xlink:href="#mceacc9bd2f" y="102.598992"/>
     <use style="fill:#1f77b4;stroke:#1f77b4;" x="127.718387" xlink:href="#mceacc9bd2f" y="102.503985"/>
     <use style="fill:#1f77b4;stroke:#1f77b4;" x="128.490107" xlink:href="#mceacc9bd2f" y="102.589538"/>
     <use style="fill:#1f77b4;stroke:#1f77b4;" x="129.261827" xlink:href="#mceacc9bd2f" y="103.929676"/>
     <use style="fill:#1f77b4;stroke:#1f77b4;" x="130.033547" xlink:href="#mceacc9bd2f" y="101.371359"/>
     <use style="fill:#1f77b4;stroke:#1f77b4;" x="130.805267" xlink:href="#mceacc9bd2f" y="102.306548"/>
     <use style="fill:#1f77b4;stroke:#1f77b4;" x="131.576987" xlink:href="#mceacc9bd2f" y="100.96951"/>
     <use style="fill:#1f77b4;stroke:#1f77b4;" x="132.348707" xlink:href="#mceacc9bd2f" y="101.049822"/>
     <use style="fill:#1f77b4;stroke:#1f77b4;" x="133.120426" xlink:href="#mceacc9bd2f" y="100.61441"/>
     <use style="fill:#1f77b4;stroke:#1f77b4;" x="133.892146" xlink:href="#mceacc9bd2f" y="100.463237"/>
     <use style="fill:#1f77b4;stroke:#1f77b4;" x="134.663866" xlink:href="#mceacc9bd2f" y="100.066977"/>
     <use style="fill:#1f77b4;stroke:#1f77b4;" x="135.435586" xlink:href="#mceacc9bd2f" y="101.761737"/>
     <use style="fill:#1f77b4;stroke:#1f77b4;" x="136.207306" xlink:href="#mceacc9bd2f" y="99.801188"/>
     <use style="fill:#1f77b4;stroke:#1f77b4;" x="136.979026" xlink:href="#mceacc9bd2f" y="102.487123"/>
     <use style="fill:#1f77b4;stroke:#1f77b4;" x="137.750746" xlink:href="#mceacc9bd2f" y="101.867471"/>
     <use style="fill:#1f77b4;stroke:#1f77b4;" x="138.522466" xlink:href="#mceacc9bd2f" y="101.825614"/>
     <use style="fill:#1f77b4;stroke:#1f77b4;" x="139.294186" xlink:href="#mceacc9bd2f" y="101.86315"/>
     <use style="fill:#1f77b4;stroke:#1f77b4;" x="140.065906" xlink:href="#mceacc9bd2f" y="104.126941"/>
     <use style="fill:#1f77b4;stroke:#1f77b4;" x="140.837626" xlink:href="#mceacc9bd2f" y="104.666561"/>
     <use style="fill:#1f77b4;stroke:#1f77b4;" x="141.609345" xlink:href="#mceacc9bd2f" y="102.565913"/>
     <use style="fill:#1f77b4;stroke:#1f77b4;" x="142.381065" xlink:href="#mceacc9bd2f" y="103.467867"/>
     <use style="fill:#1f77b4;stroke:#1f77b4;" x="143.152785" xlink:href="#mceacc9bd2f" y="101.047111"/>
     <use style="fill:#1f77b4;stroke:#1f77b4;" x="143.924505" xlink:href="#mceacc9bd2f" y="100.769752"/>
     <use style="fill:#1f77b4;stroke:#1f77b4;" x="144.696225" xlink:href="#mceacc9bd2f" y="99.635317"/>
     <use style="fill:#1f77b4;stroke:#1f77b4;" x="145.467945" xlink:href="#mceacc9bd2f" y="99.628843"/>
     <use style="fill:#1f77b4;stroke:#1f77b4;" x="146.239665" xlink:href="#mceacc9bd2f" y="104.319801"/>
     <use style="fill:#1f77b4;stroke:#1f77b4;" x="147.011385" xlink:href="#mceacc9bd2f" y="102.250146"/>
     <use style="fill:#1f77b4;stroke:#1f77b4;" x="147.783105" xlink:href="#mceacc9bd2f" y="101.516147"/>
     <use style="fill:#1f77b4;stroke:#1f77b4;" x="148.554825" xlink:href="#mceacc9bd2f" y="103.786526"/>
     <use style="fill:#1f77b4;stroke:#1f77b4;" x="149.326544" xlink:href="#mceacc9bd2f" y="102.677839"/>
     <use style="fill:#1f77b4;stroke:#1f77b4;" x="150.098264" xlink:href="#mceacc9bd2f" y="106.249021"/>
     <use style="fill:#1f77b4;stroke:#1f77b4;" x="150.869984" xlink:href="#mceacc9bd2f" y="103.387846"/>
     <use style="fill:#1f77b4;stroke:#1f77b4;" x="151.641704" xlink:href="#mceacc9bd2f" y="106.637915"/>
     <use style="fill:#1f77b4;stroke:#1f77b4;" x="152.413424" xlink:href="#mceacc9bd2f" y="107.200119"/>
     <use style="fill:#1f77b4;stroke:#1f77b4;" x="153.185144" xlink:href="#mceacc9bd2f" y="105.405608"/>
     <use style="fill:#1f77b4;stroke:#1f77b4;" x="153.956864" xlink:href="#mceacc9bd2f" y="107.329038"/>
     <use style="fill:#1f77b4;stroke:#1f77b4;" x="154.728584" xlink:href="#mceacc9bd2f" y="108.044397"/>
     <use style="fill:#1f77b4;stroke:#1f77b4;" x="155.500304" xlink:href="#mceacc9bd2f" y="107.057635"/>
     <use style="fill:#1f77b4;stroke:#1f77b4;" x="156.272024" xlink:href="#mceacc9bd2f" y="108.725725"/>
     <use style="fill:#1f77b4;stroke:#1f77b4;" x="157.043744" xlink:href="#mceacc9bd2f" y="110.314295"/>
     <use style="fill:#1f77b4;stroke:#1f77b4;" x="157.815463" xlink:href="#mceacc9bd2f" y="112.131385"/>
     <use style="fill:#1f77b4;stroke:#1f77b4;" x="158.587183" xlink:href="#mceacc9bd2f" y="112.396609"/>
     <use style="fill:#1f77b4;stroke:#1f77b4;" x="159.358903" xlink:href="#mceacc9bd2f" y="115.842162"/>
     <use style="fill:#1f77b4;stroke:#1f77b4;" x="160.130623" xlink:href="#mceacc9bd2f" y="119.272155"/>
     <use style="fill:#1f77b4;stroke:#1f77b4;" x="160.902343" xlink:href="#mceacc9bd2f" y="126.389923"/>
     <use style="fill:#1f77b4;stroke:#1f77b4;" x="161.674063" xlink:href="#mceacc9bd2f" y="127.081954"/>
     <use style="fill:#1f77b4;stroke:#1f77b4;" x="162.445783" xlink:href="#mceacc9bd2f" y="130.096818"/>
     <use style="fill:#1f77b4;stroke:#1f77b4;" x="163.217503" xlink:href="#mceacc9bd2f" y="141.751543"/>
     <use style="fill:#1f77b4;stroke:#1f77b4;" x="163.989223" xlink:href="#mceacc9bd2f" y="142.972379"/>
     <use style="fill:#1f77b4;stroke:#1f77b4;" x="164.760943" xlink:href="#mceacc9bd2f" y="151.910405"/>
     <use style="fill:#1f77b4;stroke:#1f77b4;" x="165.532662" xlink:href="#mceacc9bd2f" y="162.163107"/>
     <use style="fill:#1f77b4;stroke:#1f77b4;" x="166.304382" xlink:href="#mceacc9bd2f" y="172.241069"/>
     <use style="fill:#1f77b4;stroke:#1f77b4;" x="167.076102" xlink:href="#mceacc9bd2f" y="185.593533"/>
     <use style="fill:#1f77b4;stroke:#1f77b4;" x="167.847822" xlink:href="#mceacc9bd2f" y="192.88092"/>
     <use style="fill:#1f77b4;stroke:#1f77b4;" x="168.619542" xlink:href="#mceacc9bd2f" y="199.987308"/>
     <use style="fill:#1f77b4;stroke:#1f77b4;" x="169.391262" xlink:href="#mceacc9bd2f" y="197.182686"/>
     <use style="fill:#1f77b4;stroke:#1f77b4;" x="170.162982" xlink:href="#mceacc9bd2f" y="198.155197"/>
     <use style="fill:#1f77b4;stroke:#1f77b4;" x="170.934702" xlink:href="#mceacc9bd2f" y="197.429939"/>
     <use style="fill:#1f77b4;stroke:#1f77b4;" x="171.706422" xlink:href="#mceacc9bd2f" y="189.751796"/>
     <use style="fill:#1f77b4;stroke:#1f77b4;" x="172.478142" xlink:href="#mceacc9bd2f" y="188.323046"/>
     <use style="fill:#1f77b4;stroke:#1f77b4;" x="173.249862" xlink:href="#mceacc9bd2f" y="182.980278"/>
     <use style="fill:#1f77b4;stroke:#1f77b4;" x="174.021581" xlink:href="#mceacc9bd2f" y="181.662358"/>
     <use style="fill:#1f77b4;stroke:#1f77b4;" x="174.793301" xlink:href="#mceacc9bd2f" y="183.936075"/>
     <use style="fill:#1f77b4;stroke:#1f77b4;" x="175.565021" xlink:href="#mceacc9bd2f" y="186.381905"/>
     <use style="fill:#1f77b4;stroke:#1f77b4;" x="176.336741" xlink:href="#mceacc9bd2f" y="186.834443"/>
     <use style="fill:#1f77b4;stroke:#1f77b4;" x="177.108461" xlink:href="#mceacc9bd2f" y="187.85127"/>
     <use style="fill:#1f77b4;stroke:#1f77b4;" x="177.880181" xlink:href="#mceacc9bd2f" y="189.428854"/>
     <use style="fill:#1f77b4;stroke:#1f77b4;" x="178.651901" xlink:href="#mceacc9bd2f" y="191.325907"/>
     <use style="fill:#1f77b4;stroke:#1f77b4;" x="179.423621" xlink:href="#mceacc9bd2f" y="189.520191"/>
     <use style="fill:#1f77b4;stroke:#1f77b4;" x="180.195341" xlink:href="#mceacc9bd2f" y="187.728991"/>
     <use style="fill:#1f77b4;stroke:#1f77b4;" x="180.967061" xlink:href="#mceacc9bd2f" y="186.755373"/>
     <use style="fill:#1f77b4;stroke:#1f77b4;" x="181.73878" xlink:href="#mceacc9bd2f" y="188.618546"/>
     <use style="fill:#1f77b4;stroke:#1f77b4;" x="182.5105" xlink:href="#mceacc9bd2f" y="184.400166"/>
     <use style="fill:#1f77b4;stroke:#1f77b4;" x="183.28222" xlink:href="#mceacc9bd2f" y="187.054258"/>
     <use style="fill:#1f77b4;stroke:#1f77b4;" x="184.05394" xlink:href="#mceacc9bd2f" y="182.724793"/>
     <use style="fill:#1f77b4;stroke:#1f77b4;" x="184.82566" xlink:href="#mceacc9bd2f" y="184.164962"/>
     <use style="fill:#1f77b4;stroke:#1f77b4;" x="185.59738" xlink:href="#mceacc9bd2f" y="184.920126"/>
     <use style="fill:#1f77b4;stroke:#1f77b4;" x="186.3691" xlink:href="#mceacc9bd2f" y="184.848977"/>
     <use style="fill:#1f77b4;stroke:#1f77b4;" x="187.14082" xlink:href="#mceacc9bd2f" y="185.487641"/>
     <use style="fill:#1f77b4;stroke:#1f77b4;" x="187.91254" xlink:href="#mceacc9bd2f" y="182.733723"/>
     <use style="fill:#1f77b4;stroke:#1f77b4;" x="188.68426" xlink:href="#mceacc9bd2f" y="185.711977"/>
     <use style="fill:#1f77b4;stroke:#1f77b4;" x="189.45598" xlink:href="#mceacc9bd2f" y="182.655525"/>
     <use style="fill:#1f77b4;stroke:#1f77b4;" x="190.227699" xlink:href="#mceacc9bd2f" y="183.396201"/>
     <use style="fill:#1f77b4;stroke:#1f77b4;" x="190.999419" xlink:href="#mceacc9bd2f" y="186.131538"/>
     <use style="fill:#1f77b4;stroke:#1f77b4;" x="191.771139" xlink:href="#mceacc9bd2f" y="183.142454"/>
     <use style="fill:#1f77b4;stroke:#1f77b4;" x="192.542859" xlink:href="#mceacc9bd2f" y="183.325486"/>
     <use style="fill:#1f77b4;stroke:#1f77b4;" x="193.314579" xlink:href="#mceacc9bd2f" y="182.322083"/>
     <use style="fill:#1f77b4;stroke:#1f77b4;" x="194.086299" xlink:href="#mceacc9bd2f" y="182.292559"/>
     <use style="fill:#1f77b4;stroke:#1f77b4;" x="194.858019" xlink:href="#mceacc9bd2f" y="181.303216"/>
     <use style="fill:#1f77b4;stroke:#1f77b4;" x="195.629739" xlink:href="#mceacc9bd2f" y="184.218654"/>
     <use style="fill:#1f77b4;stroke:#1f77b4;" x="196.401459" xlink:href="#mceacc9bd2f" y="180.438835"/>
     <use style="fill:#1f77b4;stroke:#1f77b4;" x="197.173179" xlink:href="#mceacc9bd2f" y="180.834869"/>
     <use style="fill:#1f77b4;stroke:#1f77b4;" x="197.944898" xlink:href="#mceacc9bd2f" y="182.762411"/>
     <use style="fill:#1f77b4;stroke:#1f77b4;" x="198.716618" xlink:href="#mceacc9bd2f" y="182.175965"/>
     <use style="fill:#1f77b4;stroke:#1f77b4;" x="199.488338" xlink:href="#mceacc9bd2f" y="180.1591"/>
     <use style="fill:#1f77b4;stroke:#1f77b4;" x="200.260058" xlink:href="#mceacc9bd2f" y="181.820225"/>
     <use style="fill:#1f77b4;stroke:#1f77b4;" x="201.031778" xlink:href="#mceacc9bd2f" y="180.565101"/>
     <use style="fill:#1f77b4;stroke:#1f77b4;" x="201.803498" xlink:href="#mceacc9bd2f" y="181.455945"/>
     <use style="fill:#1f77b4;stroke:#1f77b4;" x="202.575218" xlink:href="#mceacc9bd2f" y="181.88357"/>
     <use style="fill:#1f77b4;stroke:#1f77b4;" x="203.346938" xlink:href="#mceacc9bd2f" y="178.338799"/>
     <use style="fill:#1f77b4;stroke:#1f77b4;" x="204.118658" xlink:href="#mceacc9bd2f" y="180.8661"/>
     <use style="fill:#1f77b4;stroke:#1f77b4;" x="204.890378" xlink:href="#mceacc9bd2f" y="179.325415"/>
     <use style="fill:#1f77b4;stroke:#1f77b4;" x="205.662098" xlink:href="#mceacc9bd2f" y="179.115909"/>
     <use style="fill:#1f77b4;stroke:#1f77b4;" x="206.433817" xlink:href="#mceacc9bd2f" y="179.411169"/>
     <use style="fill:#1f77b4;stroke:#1f77b4;" x="207.205537" xlink:href="#mceacc9bd2f" y="180.519562"/>
     <use style="fill:#1f77b4;stroke:#1f77b4;" x="207.977257" xlink:href="#mceacc9bd2f" y="179.82409"/>
     <use style="fill:#1f77b4;stroke:#1f77b4;" x="208.748977" xlink:href="#mceacc9bd2f" y="179.399546"/>
     <use style="fill:#1f77b4;stroke:#1f77b4;" x="209.520697" xlink:href="#mceacc9bd2f" y="179.236307"/>
     <use style="fill:#1f77b4;stroke:#1f77b4;" x="210.292417" xlink:href="#mceacc9bd2f" y="178.232826"/>
     <use style="fill:#1f77b4;stroke:#1f77b4;" x="211.064137" xlink:href="#mceacc9bd2f" y="176.860377"/>
     <use style="fill:#1f77b4;stroke:#1f77b4;" x="211.835857" xlink:href="#mceacc9bd2f" y="176.163412"/>
     <use style="fill:#1f77b4;stroke:#1f77b4;" x="212.607577" xlink:href="#mceacc9bd2f" y="176.98448"/>
     <use style="fill:#1f77b4;stroke:#1f77b4;" x="213.379297" xlink:href="#mceacc9bd2f" y="175.138016"/>
     <use style="fill:#1f77b4;stroke:#1f77b4;" x="214.151016" xlink:href="#mceacc9bd2f" y="174.543224"/>
     <use style="fill:#1f77b4;stroke:#1f77b4;" x="214.922736" xlink:href="#mceacc9bd2f" y="175.505739"/>
     <use style="fill:#1f77b4;stroke:#1f77b4;" x="215.694456" xlink:href="#mceacc9bd2f" y="176.714571"/>
     <use style="fill:#1f77b4;stroke:#1f77b4;" x="216.466176" xlink:href="#mceacc9bd2f" y="175.809607"/>
     <use style="fill:#1f77b4;stroke:#1f77b4;" x="217.237896" xlink:href="#mceacc9bd2f" y="174.218623"/>
     <use style="fill:#1f77b4;stroke:#1f77b4;" x="218.009616" xlink:href="#mceacc9bd2f" y="176.284283"/>
     <use style="fill:#1f77b4;stroke:#1f77b4;" x="218.781336" xlink:href="#mceacc9bd2f" y="176.362473"/>
     <use style="fill:#1f77b4;stroke:#1f77b4;" x="219.553056" xlink:href="#mceacc9bd2f" y="174.642714"/>
     <use style="fill:#1f77b4;stroke:#1f77b4;" x="220.324776" xlink:href="#mceacc9bd2f" y="173.123099"/>
     <use style="fill:#1f77b4;stroke:#1f77b4;" x="221.096496" xlink:href="#mceacc9bd2f" y="175.094324"/>
     <use style="fill:#1f77b4;stroke:#1f77b4;" x="221.868216" xlink:href="#mceacc9bd2f" y="173.157223"/>
     <use style="fill:#1f77b4;stroke:#1f77b4;" x="222.639935" xlink:href="#mceacc9bd2f" y="172.751691"/>
     <use style="fill:#1f77b4;stroke:#1f77b4;" x="223.411655" xlink:href="#mceacc9bd2f" y="171.861567"/>
     <use style="fill:#1f77b4;stroke:#1f77b4;" x="224.183375" xlink:href="#mceacc9bd2f" y="172.351636"/>
     <use style="fill:#1f77b4;stroke:#1f77b4;" x="224.955095" xlink:href="#mceacc9bd2f" y="171.169616"/>
     <use style="fill:#1f77b4;stroke:#1f77b4;" x="225.726815" xlink:href="#mceacc9bd2f" y="171.271848"/>
     <use style="fill:#1f77b4;stroke:#1f77b4;" x="226.498535" xlink:href="#mceacc9bd2f" y="171.153289"/>
     <use style="fill:#1f77b4;stroke:#1f77b4;" x="227.270255" xlink:href="#mceacc9bd2f" y="172.025673"/>
     <use style="fill:#1f77b4;stroke:#1f77b4;" x="228.041975" xlink:href="#mceacc9bd2f" y="168.459382"/>
     <use style="fill:#1f77b4;stroke:#1f77b4;" x="228.813695" xlink:href="#mceacc9bd2f" y="169.228786"/>
     <use style="fill:#1f77b4;stroke:#1f77b4;" x="229.585415" xlink:href="#mceacc9bd2f" y="167.038114"/>
     <use style="fill:#1f77b4;stroke:#1f77b4;" x="230.357134" xlink:href="#mceacc9bd2f" y="170.278737"/>
     <use style="fill:#1f77b4;stroke:#1f77b4;" x="231.128854" xlink:href="#mceacc9bd2f" y="168.548167"/>
     <use style="fill:#1f77b4;stroke:#1f77b4;" x="231.900574" xlink:href="#mceacc9bd2f" y="168.305035"/>
     <use style="fill:#1f77b4;stroke:#1f77b4;" x="232.672294" xlink:href="#mceacc9bd2f" y="167.280026"/>
     <use style="fill:#1f77b4;stroke:#1f77b4;" x="233.444014" xlink:href="#mceacc9bd2f" y="166.344684"/>
     <use style="fill:#1f77b4;stroke:#1f77b4;" x="234.215734" xlink:href="#mceacc9bd2f" y="167.368975"/>
     <use style="fill:#1f77b4;stroke:#1f77b4;" x="234.987454" xlink:href="#mceacc9bd2f" y="166.139951"/>
     <use style="fill:#1f77b4;stroke:#1f77b4;" x="235.759174" xlink:href="#mceacc9bd2f" y="166.76539"/>
     <use style="fill:#1f77b4;stroke:#1f77b4;" x="236.530894" xlink:href="#mceacc9bd2f" y="164.139538"/>
     <use style="fill:#1f77b4;stroke:#1f77b4;" x="237.302614" xlink:href="#mceacc9bd2f" y="164.373104"/>
     <use style="fill:#1f77b4;stroke:#1f77b4;" x="238.074334" xlink:href="#mceacc9bd2f" y="160.790944"/>
     <use style="fill:#1f77b4;stroke:#1f77b4;" x="238.846053" xlink:href="#mceacc9bd2f" y="163.141621"/>
     <use style="fill:#1f77b4;stroke:#1f77b4;" x="239.617773" xlink:href="#mceacc9bd2f" y="162.233504"/>
     <use style="fill:#1f77b4;stroke:#1f77b4;" x="240.389493" xlink:href="#mceacc9bd2f" y="163.081241"/>
     <use style="fill:#1f77b4;stroke:#1f77b4;" x="241.161213" xlink:href="#mceacc9bd2f" y="163.086793"/>
     <use style="fill:#1f77b4;stroke:#1f77b4;" x="241.932933" xlink:href="#mceacc9bd2f" y="162.508891"/>
     <use style="fill:#1f77b4;stroke:#1f77b4;" x="242.704653" xlink:href="#mceacc9bd2f" y="164.603051"/>
     <use style="fill:#1f77b4;stroke:#1f77b4;" x="243.476373" xlink:href="#mceacc9bd2f" y="162.64364"/>
     <use style="fill:#1f77b4;stroke:#1f77b4;" x="244.248093" xlink:href="#mceacc9bd2f" y="162.072073"/>
     <use style="fill:#1f77b4;stroke:#1f77b4;" x="245.019813" xlink:href="#mceacc9bd2f" y="161.181679"/>
     <use style="fill:#1f77b4;stroke:#1f77b4;" x="245.791533" xlink:href="#mceacc9bd2f" y="158.561187"/>
     <use style="fill:#1f77b4;stroke:#1f77b4;" x="246.563252" xlink:href="#mceacc9bd2f" y="156.046577"/>
     <use style="fill:#1f77b4;stroke:#1f77b4;" x="247.334972" xlink:href="#mceacc9bd2f" y="154.415791"/>
     <use style="fill:#1f77b4;stroke:#1f77b4;" x="248.106692" xlink:href="#mceacc9bd2f" y="152.764858"/>
     <use style="fill:#1f77b4;stroke:#1f77b4;" x="248.878412" xlink:href="#mceacc9bd2f" y="155.427677"/>
     <use style="fill:#1f77b4;stroke:#1f77b4;" x="249.650132" xlink:href="#mceacc9bd2f" y="152.116381"/>
     <use style="fill:#1f77b4;stroke:#1f77b4;" x="250.421852" xlink:href="#mceacc9bd2f" y="157.453302"/>
     <use style="fill:#1f77b4;stroke:#1f77b4;" x="251.193572" xlink:href="#mceacc9bd2f" y="151.551362"/>
     <use style="fill:#1f77b4;stroke:#1f77b4;" x="251.965292" xlink:href="#mceacc9bd2f" y="153.711396"/>
     <use style="fill:#1f77b4;stroke:#1f77b4;" x="252.737012" xlink:href="#mceacc9bd2f" y="152.177398"/>
     <use style="fill:#1f77b4;stroke:#1f77b4;" x="253.508732" xlink:href="#mceacc9bd2f" y="156.142201"/>
     <use style="fill:#1f77b4;stroke:#1f77b4;" x="254.280452" xlink:href="#mceacc9bd2f" y="150.612629"/>
     <use style="fill:#1f77b4;stroke:#1f77b4;" x="255.052171" xlink:href="#mceacc9bd2f" y="146.545423"/>
     <use style="fill:#1f77b4;stroke:#1f77b4;" x="255.823891" xlink:href="#mceacc9bd2f" y="147.615906"/>
     <use style="fill:#1f77b4;stroke:#1f77b4;" x="256.595611" xlink:href="#mceacc9bd2f" y="147.646519"/>
     <use style="fill:#1f77b4;stroke:#1f77b4;" x="257.367331" xlink:href="#mceacc9bd2f" y="148.68029"/>
     <use style="fill:#1f77b4;stroke:#1f77b4;" x="258.139051" xlink:href="#mceacc9bd2f" y="149.699621"/>
     <use style="fill:#1f77b4;stroke:#1f77b4;" x="258.910771" xlink:href="#mceacc9bd2f" y="147.679641"/>
     <use style="fill:#1f77b4;stroke:#1f77b4;" x="259.682491" xlink:href="#mceacc9bd2f" y="147.192029"/>
     <use style="fill:#1f77b4;stroke:#1f77b4;" x="260.454211" xlink:href="#mceacc9bd2f" y="144.937735"/>
     <use style="fill:#1f77b4;stroke:#1f77b4;" x="261.225931" xlink:href="#mceacc9bd2f" y="147.527365"/>
     <use style="fill:#1f77b4;stroke:#1f77b4;" x="261.997651" xlink:href="#mceacc9bd2f" y="142.32119"/>
     <use style="fill:#1f77b4;stroke:#1f77b4;" x="262.76937" xlink:href="#mceacc9bd2f" y="143.077139"/>
     <use style="fill:#1f77b4;stroke:#1f77b4;" x="263.54109" xlink:href="#mceacc9bd2f" y="140.325812"/>
     <use style="fill:#1f77b4;stroke:#1f77b4;" x="264.31281" xlink:href="#mceacc9bd2f" y="140.322643"/>
     <use style="fill:#1f77b4;stroke:#1f77b4;" x="265.08453" xlink:href="#mceacc9bd2f" y="141.12285"/>
     <use style="fill:#1f77b4;stroke:#1f77b4;" x="265.85625" xlink:href="#mceacc9bd2f" y="137.402974"/>
     <use style="fill:#1f77b4;stroke:#1f77b4;" x="266.62797" xlink:href="#mceacc9bd2f" y="141.12917"/>
    </g>
   </g>
   <g id="PathCollection_2">
    <defs>
     <path d="M 0 0.5 
C 0.132602 0.5 0.25979 0.447317 0.353553 0.353553 
C 0.447317 0.25979 0.5 0.132602 0.5 0 
C 0.5 -0.132602 0.447317 -0.25979 0.353553 -0.353553 
C 0.25979 -0.447317 0.132602 -0.5 0 -0.5 
C -0.132602 -0.5 -0.25979 -0.447317 -0.353553 -0.353553 
C -0.447317 -0.25979 -0.5 -0.132602 -0.5 0 
C -0.5 0.132602 -0.447317 0.25979 -0.353553 0.353553 
C -0.25979 0.447317 -0.132602 0.5 0 0.5 
z
" id="m449eb9a220" style="stroke:#ff7f0e;"/>
    </defs>
    <g clip-path="url(#p9e1c7c758e)">
     <use style="fill:#ff7f0e;stroke:#ff7f0e;" x="55.948436" xlink:href="#m449eb9a220" y="137.25"/>
     <use style="fill:#ff7f0e;stroke:#ff7f0e;" x="59.470618" xlink:href="#m449eb9a220" y="129.462168"/>
     <use style="fill:#ff7f0e;stroke:#ff7f0e;" x="62.9928" xlink:href="#m449eb9a220" y="125.564532"/>
     <use style="fill:#ff7f0e;stroke:#ff7f0e;" x="66.514982" xlink:href="#m449eb9a220" y="121.674335"/>
     <use style="fill:#ff7f0e;stroke:#ff7f0e;" x="70.037164" xlink:href="#m449eb9a220" y="117.7767"/>
     <use style="fill:#ff7f0e;stroke:#ff7f0e;" x="73.559346" xlink:href="#m449eb9a220" y="117.7767"/>
     <use style="fill:#ff7f0e;stroke:#ff7f0e;" x="77.081528" xlink:href="#m449eb9a220" y="113.879065"/>
     <use style="fill:#ff7f0e;stroke:#ff7f0e;" x="80.60371" xlink:href="#m449eb9a220" y="109.988868"/>
     <use style="fill:#ff7f0e;stroke:#ff7f0e;" x="84.125892" xlink:href="#m449eb9a220" y="106.091232"/>
     <use style="fill:#ff7f0e;stroke:#ff7f0e;" x="87.648074" xlink:href="#m449eb9a220" y="102.201035"/>
     <use style="fill:#ff7f0e;stroke:#ff7f0e;" x="91.170256" xlink:href="#m449eb9a220" y="102.201035"/>
     <use style="fill:#ff7f0e;stroke:#ff7f0e;" x="94.692438" xlink:href="#m449eb9a220" y="98.3034"/>
     <use style="fill:#ff7f0e;stroke:#ff7f0e;" x="98.21462" xlink:href="#m449eb9a220" y="94.405765"/>
     <use style="fill:#ff7f0e;stroke:#ff7f0e;" x="101.736802" xlink:href="#m449eb9a220" y="94.405765"/>
     <use style="fill:#ff7f0e;stroke:#ff7f0e;" x="105.258984" xlink:href="#m449eb9a220" y="94.405765"/>
     <use style="fill:#ff7f0e;stroke:#ff7f0e;" x="108.781165" xlink:href="#m449eb9a220" y="90.515568"/>
     <use style="fill:#ff7f0e;stroke:#ff7f0e;" x="112.303347" xlink:href="#m449eb9a220" y="90.515568"/>
     <use style="fill:#ff7f0e;stroke:#ff7f0e;" x="115.825529" xlink:href="#m449eb9a220" y="86.617932"/>
     <use style="fill:#ff7f0e;stroke:#ff7f0e;" x="119.347711" xlink:href="#m449eb9a220" y="86.617932"/>
     <use style="fill:#ff7f0e;stroke:#ff7f0e;" x="122.869893" xlink:href="#m449eb9a220" y="82.727735"/>
     <use style="fill:#ff7f0e;stroke:#ff7f0e;" x="126.392075" xlink:href="#m449eb9a220" y="82.727735"/>
     <use style="fill:#ff7f0e;stroke:#ff7f0e;" x="129.914257" xlink:href="#m449eb9a220" y="78.8301"/>
     <use style="fill:#ff7f0e;stroke:#ff7f0e;" x="133.436439" xlink:href="#m449eb9a220" y="78.8301"/>
     <use style="fill:#ff7f0e;stroke:#ff7f0e;" x="136.958621" xlink:href="#m449eb9a220" y="78.8301"/>
     <use style="fill:#ff7f0e;stroke:#ff7f0e;" x="140.480803" xlink:href="#m449eb9a220" y="78.8301"/>
     <use style="fill:#ff7f0e;stroke:#ff7f0e;" x="144.002985" xlink:href="#m449eb9a220" y="74.932465"/>
     <use style="fill:#ff7f0e;stroke:#ff7f0e;" x="147.525167" xlink:href="#m449eb9a220" y="74.932465"/>
     <use style="fill:#ff7f0e;stroke:#ff7f0e;" x="151.047349" xlink:href="#m449eb9a220" y="74.932465"/>
     <use style="fill:#ff7f0e;stroke:#ff7f0e;" x="154.569531" xlink:href="#m449eb9a220" y="78.8301"/>
     <use style="fill:#ff7f0e;stroke:#ff7f0e;" x="158.091713" xlink:href="#m449eb9a220" y="78.8301"/>
     <use style="fill:#ff7f0e;stroke:#ff7f0e;" x="161.613895" xlink:href="#m449eb9a220" y="82.727735"/>
     <use style="fill:#ff7f0e;stroke:#ff7f0e;" x="165.136077" xlink:href="#m449eb9a220" y="86.617932"/>
     <use style="fill:#ff7f0e;stroke:#ff7f0e;" x="168.658259" xlink:href="#m449eb9a220" y="90.515568"/>
     <use style="fill:#ff7f0e;stroke:#ff7f0e;" x="172.180441" xlink:href="#m449eb9a220" y="94.405765"/>
     <use style="fill:#ff7f0e;stroke:#ff7f0e;" x="175.702623" xlink:href="#m449eb9a220" y="191.772265"/>
     <use style="fill:#ff7f0e;stroke:#ff7f0e;" x="179.224805" xlink:href="#m449eb9a220" y="191.772265"/>
     <use style="fill:#ff7f0e;stroke:#ff7f0e;" x="182.746987" xlink:href="#m449eb9a220" y="187.882068"/>
     <use style="fill:#ff7f0e;stroke:#ff7f0e;" x="186.269169" xlink:href="#m449eb9a220" y="187.882068"/>
     <use style="fill:#ff7f0e;stroke:#ff7f0e;" x="189.791351" xlink:href="#m449eb9a220" y="187.882068"/>
     <use style="fill:#ff7f0e;stroke:#ff7f0e;" x="193.313533" xlink:href="#m449eb9a220" y="183.984432"/>
     <use style="fill:#ff7f0e;stroke:#ff7f0e;" x="196.835715" xlink:href="#m449eb9a220" y="183.984432"/>
     <use style="fill:#ff7f0e;stroke:#ff7f0e;" x="200.357897" xlink:href="#m449eb9a220" y="180.094235"/>
     <use style="fill:#ff7f0e;stroke:#ff7f0e;" x="203.880079" xlink:href="#m449eb9a220" y="180.094235"/>
     <use style="fill:#ff7f0e;stroke:#ff7f0e;" x="207.402261" xlink:href="#m449eb9a220" y="176.1966"/>
     <use style="fill:#ff7f0e;stroke:#ff7f0e;" x="210.924442" xlink:href="#m449eb9a220" y="176.1966"/>
     <use style="fill:#ff7f0e;stroke:#ff7f0e;" x="214.446624" xlink:href="#m449eb9a220" y="176.1966"/>
     <use style="fill:#ff7f0e;stroke:#ff7f0e;" x="217.968806" xlink:href="#m449eb9a220" y="172.298965"/>
     <use style="fill:#ff7f0e;stroke:#ff7f0e;" x="221.490988" xlink:href="#m449eb9a220" y="168.408768"/>
     <use style="fill:#ff7f0e;stroke:#ff7f0e;" x="225.01317" xlink:href="#m449eb9a220" y="168.408768"/>
     <use style="fill:#ff7f0e;stroke:#ff7f0e;" x="228.535352" xlink:href="#m449eb9a220" y="164.511132"/>
     <use style="fill:#ff7f0e;stroke:#ff7f0e;" x="232.057534" xlink:href="#m449eb9a220" y="160.620935"/>
     <use style="fill:#ff7f0e;stroke:#ff7f0e;" x="235.579716" xlink:href="#m449eb9a220" y="156.7233"/>
     <use style="fill:#ff7f0e;stroke:#ff7f0e;" x="239.101898" xlink:href="#m449eb9a220" y="152.825665"/>
     <use style="fill:#ff7f0e;stroke:#ff7f0e;" x="242.62408" xlink:href="#m449eb9a220" y="152.825665"/>
     <use style="fill:#ff7f0e;stroke:#ff7f0e;" x="246.146262" xlink:href="#m449eb9a220" y="148.935468"/>
     <use style="fill:#ff7f0e;stroke:#ff7f0e;" x="249.668444" xlink:href="#m449eb9a220" y="145.037832"/>
     <use style="fill:#ff7f0e;stroke:#ff7f0e;" x="253.190626" xlink:href="#m449eb9a220" y="141.147635"/>
     <use style="fill:#ff7f0e;stroke:#ff7f0e;" x="256.712808" xlink:href="#m449eb9a220" y="141.147635"/>
     <use style="fill:#ff7f0e;stroke:#ff7f0e;" x="260.23499" xlink:href="#m449eb9a220" y="141.147635"/>
     <use style="fill:#ff7f0e;stroke:#ff7f0e;" x="263.757172" xlink:href="#m449eb9a220" y="137.25"/>
    </g>
   </g>
   <g id="matplotlib.axis_1">
    <g id="xtick_1">
     <g id="line2d_1">
      <defs>
       <path d="M 0 0 
L 0 -3.5 
" id="m902fce536e" style="stroke:#000000;stroke-width:0.8;"/>
      </defs>
      <g>
       <use style="stroke:#000000;stroke-width:0.8;" x="55.948436" xlink:href="#m902fce536e" y="263.7"/>
      </g>
     </g>
     <g id="text_1">
      <!-- 0 -->
      <defs>
       <path d="M 31.78125 66.40625 
Q 24.171875 66.40625 20.328125 58.90625 
Q 16.5 51.421875 16.5 36.375 
Q 16.5 21.390625 20.328125 13.890625 
Q 24.171875 6.390625 31.78125 6.390625 
Q 39.453125 6.390625 43.28125 13.890625 
Q 47.125 21.390625 47.125 36.375 
Q 47.125 51.421875 43.28125 58.90625 
Q 39.453125 66.40625 31.78125 66.40625 
z
M 31.78125 74.21875 
Q 44.046875 74.21875 50.515625 64.515625 
Q 56.984375 54.828125 56.984375 36.375 
Q 56.984375 17.96875 50.515625 8.265625 
Q 44.046875 -1.421875 31.78125 -1.421875 
Q 19.53125 -1.421875 13.0625 8.265625 
Q 6.59375 17.96875 6.59375 36.375 
Q 6.59375 54.828125 13.0625 64.515625 
Q 19.53125 74.21875 31.78125 74.21875 
z
" id="DejaVuSans-48"/>
      </defs>
      <g transform="translate(52.767186 274.798438)scale(0.1 -0.1)">
       <use xlink:href="#DejaVuSans-48"/>
      </g>
     </g>
    </g>
    <g id="xtick_2">
     <g id="line2d_2">
      <g>
       <use style="stroke:#000000;stroke-width:0.8;" x="122.095856" xlink:href="#m902fce536e" y="263.7"/>
      </g>
     </g>
     <g id="text_2">
      <!-- 5 -->
      <defs>
       <path d="M 10.796875 72.90625 
L 49.515625 72.90625 
L 49.515625 64.59375 
L 19.828125 64.59375 
L 19.828125 46.734375 
Q 21.96875 47.46875 24.109375 47.828125 
Q 26.265625 48.1875 28.421875 48.1875 
Q 40.625 48.1875 47.75 41.5 
Q 54.890625 34.8125 54.890625 23.390625 
Q 54.890625 11.625 47.5625 5.09375 
Q 40.234375 -1.421875 26.90625 -1.421875 
Q 22.3125 -1.421875 17.546875 -0.640625 
Q 12.796875 0.140625 7.71875 1.703125 
L 7.71875 11.625 
Q 12.109375 9.234375 16.796875 8.0625 
Q 21.484375 6.890625 26.703125 6.890625 
Q 35.15625 6.890625 40.078125 11.328125 
Q 45.015625 15.765625 45.015625 23.390625 
Q 45.015625 31 40.078125 35.4375 
Q 35.15625 39.890625 26.703125 39.890625 
Q 22.75 39.890625 18.8125 39.015625 
Q 14.890625 38.140625 10.796875 36.28125 
z
" id="DejaVuSans-53"/>
      </defs>
      <g transform="translate(118.914606 274.798438)scale(0.1 -0.1)">
       <use xlink:href="#DejaVuSans-53"/>
      </g>
     </g>
    </g>
    <g id="xtick_3">
     <g id="line2d_3">
      <g>
       <use style="stroke:#000000;stroke-width:0.8;" x="188.243277" xlink:href="#m902fce536e" y="263.7"/>
      </g>
     </g>
     <g id="text_3">
      <!-- 10 -->
      <defs>
       <path d="M 12.40625 8.296875 
L 28.515625 8.296875 
L 28.515625 63.921875 
L 10.984375 60.40625 
L 10.984375 69.390625 
L 28.421875 72.90625 
L 38.28125 72.90625 
L 38.28125 8.296875 
L 54.390625 8.296875 
L 54.390625 0 
L 12.40625 0 
z
" id="DejaVuSans-49"/>
      </defs>
      <g transform="translate(181.880777 274.798438)scale(0.1 -0.1)">
       <use xlink:href="#DejaVuSans-49"/>
       <use x="63.623047" xlink:href="#DejaVuSans-48"/>
      </g>
     </g>
    </g>
    <g id="xtick_4">
     <g id="line2d_4">
      <g>
       <use style="stroke:#000000;stroke-width:0.8;" x="254.390697" xlink:href="#m902fce536e" y="263.7"/>
      </g>
     </g>
     <g id="text_4">
      <!-- 15 -->
      <g transform="translate(248.028197 274.798438)scale(0.1 -0.1)">
       <use xlink:href="#DejaVuSans-49"/>
       <use x="63.623047" xlink:href="#DejaVuSans-53"/>
      </g>
     </g>
    </g>
   </g>
   <g id="matplotlib.axis_2">
    <g id="ytick_1">
     <g id="line2d_5">
      <defs>
       <path d="M 0 0 
L 3.5 0 
" id="mbac6f5896f" style="stroke:#000000;stroke-width:0.8;"/>
      </defs>
      <g>
       <use style="stroke:#000000;stroke-width:0.8;" x="45.05" xlink:href="#mbac6f5896f" y="254.089527"/>
      </g>
     </g>
     <g id="text_5">
      <!-- −1.57 -->
      <defs>
       <path d="M 10.59375 35.5 
L 73.1875 35.5 
L 73.1875 27.203125 
L 10.59375 27.203125 
z
" id="DejaVuSans-8722"/>
       <path d="M 10.6875 12.40625 
L 21 12.40625 
L 21 0 
L 10.6875 0 
z
" id="DejaVuSans-46"/>
       <path d="M 8.203125 72.90625 
L 55.078125 72.90625 
L 55.078125 68.703125 
L 28.609375 0 
L 18.3125 0 
L 43.21875 64.59375 
L 8.203125 64.59375 
z
" id="DejaVuSans-55"/>
      </defs>
      <g transform="translate(10.904687 257.888746)scale(0.1 -0.1)">
       <use xlink:href="#DejaVuSans-8722"/>
       <use x="83.789062" xlink:href="#DejaVuSans-49"/>
       <use x="147.412109" xlink:href="#DejaVuSans-46"/>
       <use x="179.199219" xlink:href="#DejaVuSans-53"/>
       <use x="242.822266" xlink:href="#DejaVuSans-55"/>
      </g>
     </g>
    </g>
    <g id="ytick_2">
     <g id="line2d_6">
      <g>
       <use style="stroke:#000000;stroke-width:0.8;" x="45.05" xlink:href="#mbac6f5896f" y="195.669763"/>
      </g>
     </g>
     <g id="text_6">
      <!-- −0.79 -->
      <defs>
       <path d="M 10.984375 1.515625 
L 10.984375 10.5 
Q 14.703125 8.734375 18.5 7.8125 
Q 22.3125 6.890625 25.984375 6.890625 
Q 35.75 6.890625 40.890625 13.453125 
Q 46.046875 20.015625 46.78125 33.40625 
Q 43.953125 29.203125 39.59375 26.953125 
Q 35.25 24.703125 29.984375 24.703125 
Q 19.046875 24.703125 12.671875 31.3125 
Q 6.296875 37.9375 6.296875 49.421875 
Q 6.296875 60.640625 12.9375 67.421875 
Q 19.578125 74.21875 30.609375 74.21875 
Q 43.265625 74.21875 49.921875 64.515625 
Q 56.59375 54.828125 56.59375 36.375 
Q 56.59375 19.140625 48.40625 8.859375 
Q 40.234375 -1.421875 26.421875 -1.421875 
Q 22.703125 -1.421875 18.890625 -0.6875 
Q 15.09375 0.046875 10.984375 1.515625 
z
M 30.609375 32.421875 
Q 37.25 32.421875 41.125 36.953125 
Q 45.015625 41.5 45.015625 49.421875 
Q 45.015625 57.28125 41.125 61.84375 
Q 37.25 66.40625 30.609375 66.40625 
Q 23.96875 66.40625 20.09375 61.84375 
Q 16.21875 57.28125 16.21875 49.421875 
Q 16.21875 41.5 20.09375 36.953125 
Q 23.96875 32.421875 30.609375 32.421875 
z
" id="DejaVuSans-57"/>
      </defs>
      <g transform="translate(10.904687 199.468982)scale(0.1 -0.1)">
       <use xlink:href="#DejaVuSans-8722"/>
       <use x="83.789062" xlink:href="#DejaVuSans-48"/>
       <use x="147.412109" xlink:href="#DejaVuSans-46"/>
       <use x="179.199219" xlink:href="#DejaVuSans-55"/>
       <use x="242.822266" xlink:href="#DejaVuSans-57"/>
      </g>
     </g>
    </g>
    <g id="ytick_3">
     <g id="line2d_7">
      <g>
       <use style="stroke:#000000;stroke-width:0.8;" x="45.05" xlink:href="#mbac6f5896f" y="137.25"/>
      </g>
     </g>
     <g id="text_7">
      <!-- 0.00 -->
      <g transform="translate(19.284375 141.049219)scale(0.1 -0.1)">
       <use xlink:href="#DejaVuSans-48"/>
       <use x="63.623047" xlink:href="#DejaVuSans-46"/>
       <use x="95.410156" xlink:href="#DejaVuSans-48"/>
       <use x="159.033203" xlink:href="#DejaVuSans-48"/>
      </g>
     </g>
    </g>
    <g id="ytick_4">
     <g id="line2d_8">
      <g>
       <use style="stroke:#000000;stroke-width:0.8;" x="45.05" xlink:href="#mbac6f5896f" y="78.830237"/>
      </g>
     </g>
     <g id="text_8">
      <!-- 0.79 -->
      <g transform="translate(19.284375 82.629455)scale(0.1 -0.1)">
       <use xlink:href="#DejaVuSans-48"/>
       <use x="63.623047" xlink:href="#DejaVuSans-46"/>
       <use x="95.410156" xlink:href="#DejaVuSans-55"/>
       <use x="159.033203" xlink:href="#DejaVuSans-57"/>
      </g>
     </g>
    </g>
    <g id="ytick_5">
     <g id="line2d_9">
      <g>
       <use style="stroke:#000000;stroke-width:0.8;" x="45.05" xlink:href="#mbac6f5896f" y="20.410473"/>
      </g>
     </g>
     <g id="text_9">
      <!-- 1.57 -->
      <g transform="translate(19.284375 24.209692)scale(0.1 -0.1)">
       <use xlink:href="#DejaVuSans-49"/>
       <use x="63.623047" xlink:href="#DejaVuSans-46"/>
       <use x="95.410156" xlink:href="#DejaVuSans-53"/>
       <use x="159.033203" xlink:href="#DejaVuSans-55"/>
      </g>
     </g>
    </g>
   </g>
   <g id="patch_3">
    <path d="M 45.05 263.7 
L 45.05 10.8 
" style="fill:none;stroke:#000000;stroke-linecap:square;stroke-linejoin:miter;stroke-width:0.8;"/>
   </g>
   <g id="patch_4">
    <path d="M 277.2 263.7 
L 277.2 10.8 
" style="fill:none;stroke:#000000;stroke-linecap:square;stroke-linejoin:miter;stroke-width:0.8;"/>
   </g>
   <g id="patch_5">
    <path d="M 45.05 263.7 
L 277.2 263.7 
" style="fill:none;stroke:#000000;stroke-linecap:square;stroke-linejoin:miter;stroke-width:0.8;"/>
   </g>
   <g id="patch_6">
    <path d="M 45.05 10.8 
L 277.2 10.8 
" style="fill:none;stroke:#000000;stroke-linecap:square;stroke-linejoin:miter;stroke-width:0.8;"/>
   </g>
  </g>
 </g>
 <defs>
  <clipPath id="p9e1c7c758e">
   <rect height="252.9" width="232.15" x="45.05" y="10.8"/>
  </clipPath>
 </defs>
</svg>
