<?xml version="1.0" encoding="utf-8" standalone="no"?>
<!DOCTYPE svg PUBLIC "-//W3C//DTD SVG 1.1//EN"
  "http://www.w3.org/Graphics/SVG/1.1/DTD/svg11.dtd">
<!-- Created with matplotlib (https://matplotlib.org/) -->
<svg height="288pt" version="1.1" viewBox="0 0 288 288" width="288pt" xmlns="http://www.w3.org/2000/svg" xmlns:xlink="http://www.w3.org/1999/xlink">
 <defs>
  <style type="text/css">
*{stroke-linecap:butt;stroke-linejoin:round;}
  </style>
 </defs>
 <g id="figure_1">
  <g id="patch_1">
   <path d="M 0 288 
L 288 288 
L 288 0 
L 0 0 
z
" style="fill:#ffffff;"/>
  </g>
  <g id="axes_1">
   <g id="patch_2">
    <path d="M 36.675 263.7 
L 277.2 263.7 
L 277.2 10.8 
L 36.675 10.8 
z
" style="fill:#ffffff;"/>
   </g>
   <g id="PathCollection_1">
    <defs>
     <path d="M 0 0.5 
C 0.132602 0.5 0.25979 0.447317 0.353553 0.353553 
C 0.447317 0.25979 0.5 0.132602 0.5 0 
C 0.5 -0.132602 0.447317 -0.25979 0.353553 -0.353553 
C 0.25979 -0.447317 0.132602 -0.5 0 -0.5 
C -0.132602 -0.5 -0.25979 -0.447317 -0.353553 -0.353553 
C -0.447317 -0.25979 -0.5 -0.132602 -0.5 0 
C -0.5 0.132602 -0.447317 0.25979 -0.353553 0.353553 
C -0.25979 0.447317 -0.132602 0.5 0 0.5 
z
" id="m5bd9f9b473" style="stroke:#1f77b4;"/>
    </defs>
    <g clip-path="url(#p178cab8f9d)">
     <use style="fill:#1f77b4;stroke:#1f77b4;" x="47.966606" xlink:href="#m5bd9f9b473" y="247.990984"/>
     <use style="fill:#1f77b4;stroke:#1f77b4;" x="48.766166" xlink:href="#m5bd9f9b473" y="245.874316"/>
     <use style="fill:#1f77b4;stroke:#1f77b4;" x="49.565727" xlink:href="#m5bd9f9b473" y="248.727235"/>
     <use style="fill:#1f77b4;stroke:#1f77b4;" x="50.365287" xlink:href="#m5bd9f9b473" y="247.077412"/>
     <use style="fill:#1f77b4;stroke:#1f77b4;" x="51.164847" xlink:href="#m5bd9f9b473" y="249.098458"/>
     <use style="fill:#1f77b4;stroke:#1f77b4;" x="51.964408" xlink:href="#m5bd9f9b473" y="248.333741"/>
     <use style="fill:#1f77b4;stroke:#1f77b4;" x="52.763968" xlink:href="#m5bd9f9b473" y="246.324944"/>
     <use style="fill:#1f77b4;stroke:#1f77b4;" x="53.563528" xlink:href="#m5bd9f9b473" y="245.823628"/>
     <use style="fill:#1f77b4;stroke:#1f77b4;" x="54.363089" xlink:href="#m5bd9f9b473" y="244.497275"/>
     <use style="fill:#1f77b4;stroke:#1f77b4;" x="55.162649" xlink:href="#m5bd9f9b473" y="244.13575"/>
     <use style="fill:#1f77b4;stroke:#1f77b4;" x="55.962209" xlink:href="#m5bd9f9b473" y="247.058944"/>
     <use style="fill:#1f77b4;stroke:#1f77b4;" x="56.76177" xlink:href="#m5bd9f9b473" y="245.706469"/>
     <use style="fill:#1f77b4;stroke:#1f77b4;" x="57.56133" xlink:href="#m5bd9f9b473" y="246.459147"/>
     <use style="fill:#1f77b4;stroke:#1f77b4;" x="58.36089" xlink:href="#m5bd9f9b473" y="241.66775"/>
     <use style="fill:#1f77b4;stroke:#1f77b4;" x="59.160451" xlink:href="#m5bd9f9b473" y="240.697751"/>
     <use style="fill:#1f77b4;stroke:#1f77b4;" x="59.960011" xlink:href="#m5bd9f9b473" y="241.427167"/>
     <use style="fill:#1f77b4;stroke:#1f77b4;" x="60.759571" xlink:href="#m5bd9f9b473" y="239.58154"/>
     <use style="fill:#1f77b4;stroke:#1f77b4;" x="61.559132" xlink:href="#m5bd9f9b473" y="237.70398"/>
     <use style="fill:#1f77b4;stroke:#1f77b4;" x="62.358692" xlink:href="#m5bd9f9b473" y="236.356234"/>
     <use style="fill:#1f77b4;stroke:#1f77b4;" x="63.158252" xlink:href="#m5bd9f9b473" y="232.379741"/>
     <use style="fill:#1f77b4;stroke:#1f77b4;" x="63.957813" xlink:href="#m5bd9f9b473" y="234.769513"/>
     <use style="fill:#1f77b4;stroke:#1f77b4;" x="64.757373" xlink:href="#m5bd9f9b473" y="228.827595"/>
     <use style="fill:#1f77b4;stroke:#1f77b4;" x="65.556933" xlink:href="#m5bd9f9b473" y="233.014328"/>
     <use style="fill:#1f77b4;stroke:#1f77b4;" x="66.356494" xlink:href="#m5bd9f9b473" y="230.35668"/>
     <use style="fill:#1f77b4;stroke:#1f77b4;" x="67.156054" xlink:href="#m5bd9f9b473" y="232.954364"/>
     <use style="fill:#1f77b4;stroke:#1f77b4;" x="67.955614" xlink:href="#m5bd9f9b473" y="234.243723"/>
     <use style="fill:#1f77b4;stroke:#1f77b4;" x="68.755174" xlink:href="#m5bd9f9b473" y="231.331536"/>
     <use style="fill:#1f77b4;stroke:#1f77b4;" x="69.554735" xlink:href="#m5bd9f9b473" y="236.819372"/>
     <use style="fill:#1f77b4;stroke:#1f77b4;" x="70.354295" xlink:href="#m5bd9f9b473" y="238.864298"/>
     <use style="fill:#1f77b4;stroke:#1f77b4;" x="71.153855" xlink:href="#m5bd9f9b473" y="234.256532"/>
     <use style="fill:#1f77b4;stroke:#1f77b4;" x="71.953416" xlink:href="#m5bd9f9b473" y="233.093564"/>
     <use style="fill:#1f77b4;stroke:#1f77b4;" x="72.752976" xlink:href="#m5bd9f9b473" y="223.673763"/>
     <use style="fill:#1f77b4;stroke:#1f77b4;" x="73.552536" xlink:href="#m5bd9f9b473" y="223.348214"/>
     <use style="fill:#1f77b4;stroke:#1f77b4;" x="74.352097" xlink:href="#m5bd9f9b473" y="223.093812"/>
     <use style="fill:#1f77b4;stroke:#1f77b4;" x="75.151657" xlink:href="#m5bd9f9b473" y="224.885057"/>
     <use style="fill:#1f77b4;stroke:#1f77b4;" x="75.951217" xlink:href="#m5bd9f9b473" y="224.014618"/>
     <use style="fill:#1f77b4;stroke:#1f77b4;" x="76.750778" xlink:href="#m5bd9f9b473" y="223.932519"/>
     <use style="fill:#1f77b4;stroke:#1f77b4;" x="77.550338" xlink:href="#m5bd9f9b473" y="223.481185"/>
     <use style="fill:#1f77b4;stroke:#1f77b4;" x="78.349898" xlink:href="#m5bd9f9b473" y="224.704579"/>
     <use style="fill:#1f77b4;stroke:#1f77b4;" x="79.149459" xlink:href="#m5bd9f9b473" y="223.431424"/>
     <use style="fill:#1f77b4;stroke:#1f77b4;" x="79.949019" xlink:href="#m5bd9f9b473" y="218.193569"/>
     <use style="fill:#1f77b4;stroke:#1f77b4;" x="80.748579" xlink:href="#m5bd9f9b473" y="218.471615"/>
     <use style="fill:#1f77b4;stroke:#1f77b4;" x="81.54814" xlink:href="#m5bd9f9b473" y="219.79638"/>
     <use style="fill:#1f77b4;stroke:#1f77b4;" x="82.3477" xlink:href="#m5bd9f9b473" y="217.021534"/>
     <use style="fill:#1f77b4;stroke:#1f77b4;" x="83.14726" xlink:href="#m5bd9f9b473" y="218.618105"/>
     <use style="fill:#1f77b4;stroke:#1f77b4;" x="83.946821" xlink:href="#m5bd9f9b473" y="217.924203"/>
     <use style="fill:#1f77b4;stroke:#1f77b4;" x="84.746381" xlink:href="#m5bd9f9b473" y="220.509401"/>
     <use style="fill:#1f77b4;stroke:#1f77b4;" x="85.545941" xlink:href="#m5bd9f9b473" y="218.161093"/>
     <use style="fill:#1f77b4;stroke:#1f77b4;" x="86.345502" xlink:href="#m5bd9f9b473" y="216.416023"/>
     <use style="fill:#1f77b4;stroke:#1f77b4;" x="87.145062" xlink:href="#m5bd9f9b473" y="213.758975"/>
     <use style="fill:#1f77b4;stroke:#1f77b4;" x="87.944622" xlink:href="#m5bd9f9b473" y="216.020832"/>
     <use style="fill:#1f77b4;stroke:#1f77b4;" x="88.744183" xlink:href="#m5bd9f9b473" y="217.996635"/>
     <use style="fill:#1f77b4;stroke:#1f77b4;" x="89.543743" xlink:href="#m5bd9f9b473" y="217.54749"/>
     <use style="fill:#1f77b4;stroke:#1f77b4;" x="90.343303" xlink:href="#m5bd9f9b473" y="216.33632"/>
     <use style="fill:#1f77b4;stroke:#1f77b4;" x="91.142864" xlink:href="#m5bd9f9b473" y="215.621009"/>
     <use style="fill:#1f77b4;stroke:#1f77b4;" x="91.942424" xlink:href="#m5bd9f9b473" y="213.336018"/>
     <use style="fill:#1f77b4;stroke:#1f77b4;" x="92.741984" xlink:href="#m5bd9f9b473" y="215.571099"/>
     <use style="fill:#1f77b4;stroke:#1f77b4;" x="93.541545" xlink:href="#m5bd9f9b473" y="213.59602"/>
     <use style="fill:#1f77b4;stroke:#1f77b4;" x="94.341105" xlink:href="#m5bd9f9b473" y="210.78566"/>
     <use style="fill:#1f77b4;stroke:#1f77b4;" x="95.140665" xlink:href="#m5bd9f9b473" y="215.436897"/>
     <use style="fill:#1f77b4;stroke:#1f77b4;" x="95.940226" xlink:href="#m5bd9f9b473" y="210.690385"/>
     <use style="fill:#1f77b4;stroke:#1f77b4;" x="96.739786" xlink:href="#m5bd9f9b473" y="207.000148"/>
     <use style="fill:#1f77b4;stroke:#1f77b4;" x="97.539346" xlink:href="#m5bd9f9b473" y="210.58475"/>
     <use style="fill:#1f77b4;stroke:#1f77b4;" x="98.338907" xlink:href="#m5bd9f9b473" y="209.167123"/>
     <use style="fill:#1f77b4;stroke:#1f77b4;" x="99.138467" xlink:href="#m5bd9f9b473" y="210.142141"/>
     <use style="fill:#1f77b4;stroke:#1f77b4;" x="99.938027" xlink:href="#m5bd9f9b473" y="208.927564"/>
     <use style="fill:#1f77b4;stroke:#1f77b4;" x="100.737588" xlink:href="#m5bd9f9b473" y="209.018211"/>
     <use style="fill:#1f77b4;stroke:#1f77b4;" x="101.537148" xlink:href="#m5bd9f9b473" y="206.457676"/>
     <use style="fill:#1f77b4;stroke:#1f77b4;" x="102.336708" xlink:href="#m5bd9f9b473" y="206.696981"/>
     <use style="fill:#1f77b4;stroke:#1f77b4;" x="103.136269" xlink:href="#m5bd9f9b473" y="207.578825"/>
     <use style="fill:#1f77b4;stroke:#1f77b4;" x="103.935829" xlink:href="#m5bd9f9b473" y="202.746164"/>
     <use style="fill:#1f77b4;stroke:#1f77b4;" x="104.735389" xlink:href="#m5bd9f9b473" y="205.519535"/>
     <use style="fill:#1f77b4;stroke:#1f77b4;" x="105.53495" xlink:href="#m5bd9f9b473" y="205.998165"/>
     <use style="fill:#1f77b4;stroke:#1f77b4;" x="106.33451" xlink:href="#m5bd9f9b473" y="203.200405"/>
     <use style="fill:#1f77b4;stroke:#1f77b4;" x="107.13407" xlink:href="#m5bd9f9b473" y="203.878118"/>
     <use style="fill:#1f77b4;stroke:#1f77b4;" x="107.933631" xlink:href="#m5bd9f9b473" y="206.736832"/>
     <use style="fill:#1f77b4;stroke:#1f77b4;" x="108.733191" xlink:href="#m5bd9f9b473" y="210.395733"/>
     <use style="fill:#1f77b4;stroke:#1f77b4;" x="109.532751" xlink:href="#m5bd9f9b473" y="208.273129"/>
     <use style="fill:#1f77b4;stroke:#1f77b4;" x="110.332312" xlink:href="#m5bd9f9b473" y="205.949989"/>
     <use style="fill:#1f77b4;stroke:#1f77b4;" x="111.131872" xlink:href="#m5bd9f9b473" y="201.504692"/>
     <use style="fill:#1f77b4;stroke:#1f77b4;" x="111.931432" xlink:href="#m5bd9f9b473" y="203.994015"/>
     <use style="fill:#1f77b4;stroke:#1f77b4;" x="112.730993" xlink:href="#m5bd9f9b473" y="200.407255"/>
     <use style="fill:#1f77b4;stroke:#1f77b4;" x="113.530553" xlink:href="#m5bd9f9b473" y="205.202932"/>
     <use style="fill:#1f77b4;stroke:#1f77b4;" x="114.330113" xlink:href="#m5bd9f9b473" y="204.124992"/>
     <use style="fill:#1f77b4;stroke:#1f77b4;" x="115.129673" xlink:href="#m5bd9f9b473" y="207.164173"/>
     <use style="fill:#1f77b4;stroke:#1f77b4;" x="115.929234" xlink:href="#m5bd9f9b473" y="208.806771"/>
     <use style="fill:#1f77b4;stroke:#1f77b4;" x="116.728794" xlink:href="#m5bd9f9b473" y="205.503508"/>
     <use style="fill:#1f77b4;stroke:#1f77b4;" x="117.528354" xlink:href="#m5bd9f9b473" y="203.921728"/>
     <use style="fill:#1f77b4;stroke:#1f77b4;" x="118.327915" xlink:href="#m5bd9f9b473" y="201.905969"/>
     <use style="fill:#1f77b4;stroke:#1f77b4;" x="119.127475" xlink:href="#m5bd9f9b473" y="200.712923"/>
     <use style="fill:#1f77b4;stroke:#1f77b4;" x="119.927035" xlink:href="#m5bd9f9b473" y="200.849324"/>
     <use style="fill:#1f77b4;stroke:#1f77b4;" x="120.726596" xlink:href="#m5bd9f9b473" y="199.212002"/>
     <use style="fill:#1f77b4;stroke:#1f77b4;" x="121.526156" xlink:href="#m5bd9f9b473" y="198.244394"/>
     <use style="fill:#1f77b4;stroke:#1f77b4;" x="122.325716" xlink:href="#m5bd9f9b473" y="195.781378"/>
     <use style="fill:#1f77b4;stroke:#1f77b4;" x="123.125277" xlink:href="#m5bd9f9b473" y="198.527735"/>
     <use style="fill:#1f77b4;stroke:#1f77b4;" x="123.924837" xlink:href="#m5bd9f9b473" y="193.972273"/>
     <use style="fill:#1f77b4;stroke:#1f77b4;" x="124.724397" xlink:href="#m5bd9f9b473" y="198.725217"/>
     <use style="fill:#1f77b4;stroke:#1f77b4;" x="125.523958" xlink:href="#m5bd9f9b473" y="197.363928"/>
     <use style="fill:#1f77b4;stroke:#1f77b4;" x="126.323518" xlink:href="#m5bd9f9b473" y="199.146479"/>
     <use style="fill:#1f77b4;stroke:#1f77b4;" x="127.123078" xlink:href="#m5bd9f9b473" y="196.681787"/>
     <use style="fill:#1f77b4;stroke:#1f77b4;" x="127.922639" xlink:href="#m5bd9f9b473" y="195.742949"/>
     <use style="fill:#1f77b4;stroke:#1f77b4;" x="128.722199" xlink:href="#m5bd9f9b473" y="196.556056"/>
     <use style="fill:#1f77b4;stroke:#1f77b4;" x="129.521759" xlink:href="#m5bd9f9b473" y="196.882499"/>
     <use style="fill:#1f77b4;stroke:#1f77b4;" x="130.32132" xlink:href="#m5bd9f9b473" y="198.198294"/>
     <use style="fill:#1f77b4;stroke:#1f77b4;" x="131.12088" xlink:href="#m5bd9f9b473" y="195.711396"/>
     <use style="fill:#1f77b4;stroke:#1f77b4;" x="131.92044" xlink:href="#m5bd9f9b473" y="196.977989"/>
     <use style="fill:#1f77b4;stroke:#1f77b4;" x="132.720001" xlink:href="#m5bd9f9b473" y="193.78924"/>
     <use style="fill:#1f77b4;stroke:#1f77b4;" x="133.519561" xlink:href="#m5bd9f9b473" y="194.757342"/>
     <use style="fill:#1f77b4;stroke:#1f77b4;" x="134.319121" xlink:href="#m5bd9f9b473" y="197.787954"/>
     <use style="fill:#1f77b4;stroke:#1f77b4;" x="135.118682" xlink:href="#m5bd9f9b473" y="200.059084"/>
     <use style="fill:#1f77b4;stroke:#1f77b4;" x="135.918242" xlink:href="#m5bd9f9b473" y="202.961145"/>
     <use style="fill:#1f77b4;stroke:#1f77b4;" x="136.717802" xlink:href="#m5bd9f9b473" y="204.12722"/>
     <use style="fill:#1f77b4;stroke:#1f77b4;" x="137.517363" xlink:href="#m5bd9f9b473" y="202.33204"/>
     <use style="fill:#1f77b4;stroke:#1f77b4;" x="138.316923" xlink:href="#m5bd9f9b473" y="203.725631"/>
     <use style="fill:#1f77b4;stroke:#1f77b4;" x="139.116483" xlink:href="#m5bd9f9b473" y="204.842575"/>
     <use style="fill:#1f77b4;stroke:#1f77b4;" x="139.916044" xlink:href="#m5bd9f9b473" y="205.66653"/>
     <use style="fill:#1f77b4;stroke:#1f77b4;" x="140.715604" xlink:href="#m5bd9f9b473" y="206.181299"/>
     <use style="fill:#1f77b4;stroke:#1f77b4;" x="141.515164" xlink:href="#m5bd9f9b473" y="200.797261"/>
     <use style="fill:#1f77b4;stroke:#1f77b4;" x="142.314725" xlink:href="#m5bd9f9b473" y="203.432944"/>
     <use style="fill:#1f77b4;stroke:#1f77b4;" x="143.114285" xlink:href="#m5bd9f9b473" y="199.924"/>
     <use style="fill:#1f77b4;stroke:#1f77b4;" x="143.913845" xlink:href="#m5bd9f9b473" y="205.465822"/>
     <use style="fill:#1f77b4;stroke:#1f77b4;" x="144.713406" xlink:href="#m5bd9f9b473" y="206.8214"/>
     <use style="fill:#1f77b4;stroke:#1f77b4;" x="145.512966" xlink:href="#m5bd9f9b473" y="209.050922"/>
     <use style="fill:#1f77b4;stroke:#1f77b4;" x="146.312526" xlink:href="#m5bd9f9b473" y="208.366275"/>
     <use style="fill:#1f77b4;stroke:#1f77b4;" x="147.112087" xlink:href="#m5bd9f9b473" y="209.105639"/>
     <use style="fill:#1f77b4;stroke:#1f77b4;" x="147.911647" xlink:href="#m5bd9f9b473" y="201.616764"/>
     <use style="fill:#1f77b4;stroke:#1f77b4;" x="148.711207" xlink:href="#m5bd9f9b473" y="199.208102"/>
     <use style="fill:#1f77b4;stroke:#1f77b4;" x="149.510768" xlink:href="#m5bd9f9b473" y="197.377837"/>
     <use style="fill:#1f77b4;stroke:#1f77b4;" x="150.310328" xlink:href="#m5bd9f9b473" y="193.504151"/>
     <use style="fill:#1f77b4;stroke:#1f77b4;" x="151.109888" xlink:href="#m5bd9f9b473" y="191.883864"/>
     <use style="fill:#1f77b4;stroke:#1f77b4;" x="151.909449" xlink:href="#m5bd9f9b473" y="185.972438"/>
     <use style="fill:#1f77b4;stroke:#1f77b4;" x="152.709009" xlink:href="#m5bd9f9b473" y="182.704577"/>
     <use style="fill:#1f77b4;stroke:#1f77b4;" x="153.508569" xlink:href="#m5bd9f9b473" y="181.496022"/>
     <use style="fill:#1f77b4;stroke:#1f77b4;" x="154.30813" xlink:href="#m5bd9f9b473" y="172.734599"/>
     <use style="fill:#1f77b4;stroke:#1f77b4;" x="155.10769" xlink:href="#m5bd9f9b473" y="168.67602"/>
     <use style="fill:#1f77b4;stroke:#1f77b4;" x="155.90725" xlink:href="#m5bd9f9b473" y="159.861112"/>
     <use style="fill:#1f77b4;stroke:#1f77b4;" x="156.706811" xlink:href="#m5bd9f9b473" y="150.884698"/>
     <use style="fill:#1f77b4;stroke:#1f77b4;" x="157.506371" xlink:href="#m5bd9f9b473" y="138.429768"/>
     <use style="fill:#1f77b4;stroke:#1f77b4;" x="158.305931" xlink:href="#m5bd9f9b473" y="129.954337"/>
     <use style="fill:#1f77b4;stroke:#1f77b4;" x="159.105492" xlink:href="#m5bd9f9b473" y="119.340007"/>
     <use style="fill:#1f77b4;stroke:#1f77b4;" x="159.905052" xlink:href="#m5bd9f9b473" y="111.61786"/>
     <use style="fill:#1f77b4;stroke:#1f77b4;" x="160.704612" xlink:href="#m5bd9f9b473" y="108.521468"/>
     <use style="fill:#1f77b4;stroke:#1f77b4;" x="161.504172" xlink:href="#m5bd9f9b473" y="103.056213"/>
     <use style="fill:#1f77b4;stroke:#1f77b4;" x="162.303733" xlink:href="#m5bd9f9b473" y="100.095491"/>
     <use style="fill:#1f77b4;stroke:#1f77b4;" x="163.103293" xlink:href="#m5bd9f9b473" y="98.068521"/>
     <use style="fill:#1f77b4;stroke:#1f77b4;" x="163.902853" xlink:href="#m5bd9f9b473" y="96.551876"/>
     <use style="fill:#1f77b4;stroke:#1f77b4;" x="164.702414" xlink:href="#m5bd9f9b473" y="94.114171"/>
     <use style="fill:#1f77b4;stroke:#1f77b4;" x="165.501974" xlink:href="#m5bd9f9b473" y="89.771388"/>
     <use style="fill:#1f77b4;stroke:#1f77b4;" x="166.301534" xlink:href="#m5bd9f9b473" y="89.731787"/>
     <use style="fill:#1f77b4;stroke:#1f77b4;" x="167.101095" xlink:href="#m5bd9f9b473" y="90.206054"/>
     <use style="fill:#1f77b4;stroke:#1f77b4;" x="167.900655" xlink:href="#m5bd9f9b473" y="91.125522"/>
     <use style="fill:#1f77b4;stroke:#1f77b4;" x="168.700215" xlink:href="#m5bd9f9b473" y="89.420179"/>
     <use style="fill:#1f77b4;stroke:#1f77b4;" x="169.499776" xlink:href="#m5bd9f9b473" y="90.017793"/>
     <use style="fill:#1f77b4;stroke:#1f77b4;" x="170.299336" xlink:href="#m5bd9f9b473" y="84.341195"/>
     <use style="fill:#1f77b4;stroke:#1f77b4;" x="171.098896" xlink:href="#m5bd9f9b473" y="82.038907"/>
     <use style="fill:#1f77b4;stroke:#1f77b4;" x="171.898457" xlink:href="#m5bd9f9b473" y="82.840191"/>
     <use style="fill:#1f77b4;stroke:#1f77b4;" x="172.698017" xlink:href="#m5bd9f9b473" y="81.240544"/>
     <use style="fill:#1f77b4;stroke:#1f77b4;" x="173.497577" xlink:href="#m5bd9f9b473" y="82.341472"/>
     <use style="fill:#1f77b4;stroke:#1f77b4;" x="174.297138" xlink:href="#m5bd9f9b473" y="81.273269"/>
     <use style="fill:#1f77b4;stroke:#1f77b4;" x="175.096698" xlink:href="#m5bd9f9b473" y="79.372297"/>
     <use style="fill:#1f77b4;stroke:#1f77b4;" x="175.896258" xlink:href="#m5bd9f9b473" y="78.580957"/>
     <use style="fill:#1f77b4;stroke:#1f77b4;" x="176.695819" xlink:href="#m5bd9f9b473" y="80.073053"/>
     <use style="fill:#1f77b4;stroke:#1f77b4;" x="177.495379" xlink:href="#m5bd9f9b473" y="78.647394"/>
     <use style="fill:#1f77b4;stroke:#1f77b4;" x="178.294939" xlink:href="#m5bd9f9b473" y="76.919918"/>
     <use style="fill:#1f77b4;stroke:#1f77b4;" x="179.0945" xlink:href="#m5bd9f9b473" y="75.861722"/>
     <use style="fill:#1f77b4;stroke:#1f77b4;" x="179.89406" xlink:href="#m5bd9f9b473" y="77.087036"/>
     <use style="fill:#1f77b4;stroke:#1f77b4;" x="180.69362" xlink:href="#m5bd9f9b473" y="78.245971"/>
     <use style="fill:#1f77b4;stroke:#1f77b4;" x="181.493181" xlink:href="#m5bd9f9b473" y="77.316855"/>
     <use style="fill:#1f77b4;stroke:#1f77b4;" x="182.292741" xlink:href="#m5bd9f9b473" y="77.353155"/>
     <use style="fill:#1f77b4;stroke:#1f77b4;" x="183.092301" xlink:href="#m5bd9f9b473" y="73.969847"/>
     <use style="fill:#1f77b4;stroke:#1f77b4;" x="183.891862" xlink:href="#m5bd9f9b473" y="76.054197"/>
     <use style="fill:#1f77b4;stroke:#1f77b4;" x="184.691422" xlink:href="#m5bd9f9b473" y="73.815289"/>
     <use style="fill:#1f77b4;stroke:#1f77b4;" x="185.490982" xlink:href="#m5bd9f9b473" y="74.349069"/>
     <use style="fill:#1f77b4;stroke:#1f77b4;" x="186.290543" xlink:href="#m5bd9f9b473" y="72.280473"/>
     <use style="fill:#1f77b4;stroke:#1f77b4;" x="187.090103" xlink:href="#m5bd9f9b473" y="70.403965"/>
     <use style="fill:#1f77b4;stroke:#1f77b4;" x="187.889663" xlink:href="#m5bd9f9b473" y="69.216921"/>
     <use style="fill:#1f77b4;stroke:#1f77b4;" x="188.689224" xlink:href="#m5bd9f9b473" y="70.794248"/>
     <use style="fill:#1f77b4;stroke:#1f77b4;" x="189.488784" xlink:href="#m5bd9f9b473" y="72.033498"/>
     <use style="fill:#1f77b4;stroke:#1f77b4;" x="190.288344" xlink:href="#m5bd9f9b473" y="69.234097"/>
     <use style="fill:#1f77b4;stroke:#1f77b4;" x="191.087905" xlink:href="#m5bd9f9b473" y="70.072374"/>
     <use style="fill:#1f77b4;stroke:#1f77b4;" x="191.887465" xlink:href="#m5bd9f9b473" y="69.874452"/>
     <use style="fill:#1f77b4;stroke:#1f77b4;" x="192.687025" xlink:href="#m5bd9f9b473" y="69.263398"/>
     <use style="fill:#1f77b4;stroke:#1f77b4;" x="193.486586" xlink:href="#m5bd9f9b473" y="71.914962"/>
     <use style="fill:#1f77b4;stroke:#1f77b4;" x="194.286146" xlink:href="#m5bd9f9b473" y="72.609617"/>
     <use style="fill:#1f77b4;stroke:#1f77b4;" x="195.085706" xlink:href="#m5bd9f9b473" y="71.379162"/>
     <use style="fill:#1f77b4;stroke:#1f77b4;" x="195.885267" xlink:href="#m5bd9f9b473" y="71.28055"/>
     <use style="fill:#1f77b4;stroke:#1f77b4;" x="196.684827" xlink:href="#m5bd9f9b473" y="69.408073"/>
     <use style="fill:#1f77b4;stroke:#1f77b4;" x="197.484387" xlink:href="#m5bd9f9b473" y="68.701139"/>
     <use style="fill:#1f77b4;stroke:#1f77b4;" x="198.283948" xlink:href="#m5bd9f9b473" y="70.149211"/>
     <use style="fill:#1f77b4;stroke:#1f77b4;" x="199.083508" xlink:href="#m5bd9f9b473" y="68.450651"/>
     <use style="fill:#1f77b4;stroke:#1f77b4;" x="199.883068" xlink:href="#m5bd9f9b473" y="67.531844"/>
     <use style="fill:#1f77b4;stroke:#1f77b4;" x="200.682629" xlink:href="#m5bd9f9b473" y="66.778554"/>
     <use style="fill:#1f77b4;stroke:#1f77b4;" x="201.482189" xlink:href="#m5bd9f9b473" y="67.043038"/>
     <use style="fill:#1f77b4;stroke:#1f77b4;" x="202.281749" xlink:href="#m5bd9f9b473" y="66.56901"/>
     <use style="fill:#1f77b4;stroke:#1f77b4;" x="203.08131" xlink:href="#m5bd9f9b473" y="66.209169"/>
     <use style="fill:#1f77b4;stroke:#1f77b4;" x="203.88087" xlink:href="#m5bd9f9b473" y="65.039177"/>
     <use style="fill:#1f77b4;stroke:#1f77b4;" x="204.68043" xlink:href="#m5bd9f9b473" y="66.626511"/>
     <use style="fill:#1f77b4;stroke:#1f77b4;" x="205.479991" xlink:href="#m5bd9f9b473" y="65.626658"/>
     <use style="fill:#1f77b4;stroke:#1f77b4;" x="206.279551" xlink:href="#m5bd9f9b473" y="64.6951"/>
     <use style="fill:#1f77b4;stroke:#1f77b4;" x="207.079111" xlink:href="#m5bd9f9b473" y="63.372577"/>
     <use style="fill:#1f77b4;stroke:#1f77b4;" x="207.878671" xlink:href="#m5bd9f9b473" y="64.292293"/>
     <use style="fill:#1f77b4;stroke:#1f77b4;" x="208.678232" xlink:href="#m5bd9f9b473" y="66.153181"/>
     <use style="fill:#1f77b4;stroke:#1f77b4;" x="209.477792" xlink:href="#m5bd9f9b473" y="63.006357"/>
     <use style="fill:#1f77b4;stroke:#1f77b4;" x="210.277352" xlink:href="#m5bd9f9b473" y="61.803999"/>
     <use style="fill:#1f77b4;stroke:#1f77b4;" x="211.076913" xlink:href="#m5bd9f9b473" y="64.790488"/>
     <use style="fill:#1f77b4;stroke:#1f77b4;" x="211.876473" xlink:href="#m5bd9f9b473" y="66.845007"/>
     <use style="fill:#1f77b4;stroke:#1f77b4;" x="212.676033" xlink:href="#m5bd9f9b473" y="68.685697"/>
     <use style="fill:#1f77b4;stroke:#1f77b4;" x="213.475594" xlink:href="#m5bd9f9b473" y="66.886048"/>
     <use style="fill:#1f77b4;stroke:#1f77b4;" x="214.275154" xlink:href="#m5bd9f9b473" y="62.697688"/>
     <use style="fill:#1f77b4;stroke:#1f77b4;" x="215.074714" xlink:href="#m5bd9f9b473" y="59.346737"/>
     <use style="fill:#1f77b4;stroke:#1f77b4;" x="215.874275" xlink:href="#m5bd9f9b473" y="59.283933"/>
     <use style="fill:#1f77b4;stroke:#1f77b4;" x="216.673835" xlink:href="#m5bd9f9b473" y="58.248331"/>
     <use style="fill:#1f77b4;stroke:#1f77b4;" x="217.473395" xlink:href="#m5bd9f9b473" y="63.125649"/>
     <use style="fill:#1f77b4;stroke:#1f77b4;" x="218.272956" xlink:href="#m5bd9f9b473" y="63.433432"/>
     <use style="fill:#1f77b4;stroke:#1f77b4;" x="219.072516" xlink:href="#m5bd9f9b473" y="63.955499"/>
     <use style="fill:#1f77b4;stroke:#1f77b4;" x="219.872076" xlink:href="#m5bd9f9b473" y="62.936151"/>
     <use style="fill:#1f77b4;stroke:#1f77b4;" x="220.671637" xlink:href="#m5bd9f9b473" y="62.467555"/>
     <use style="fill:#1f77b4;stroke:#1f77b4;" x="221.471197" xlink:href="#m5bd9f9b473" y="60.172376"/>
     <use style="fill:#1f77b4;stroke:#1f77b4;" x="222.270757" xlink:href="#m5bd9f9b473" y="59.227212"/>
     <use style="fill:#1f77b4;stroke:#1f77b4;" x="223.070318" xlink:href="#m5bd9f9b473" y="58.190291"/>
     <use style="fill:#1f77b4;stroke:#1f77b4;" x="223.869878" xlink:href="#m5bd9f9b473" y="60.270005"/>
     <use style="fill:#1f77b4;stroke:#1f77b4;" x="224.669438" xlink:href="#m5bd9f9b473" y="58.218337"/>
     <use style="fill:#1f77b4;stroke:#1f77b4;" x="225.468999" xlink:href="#m5bd9f9b473" y="56.7256"/>
     <use style="fill:#1f77b4;stroke:#1f77b4;" x="226.268559" xlink:href="#m5bd9f9b473" y="58.026124"/>
     <use style="fill:#1f77b4;stroke:#1f77b4;" x="227.068119" xlink:href="#m5bd9f9b473" y="55.122172"/>
     <use style="fill:#1f77b4;stroke:#1f77b4;" x="227.86768" xlink:href="#m5bd9f9b473" y="56.137896"/>
     <use style="fill:#1f77b4;stroke:#1f77b4;" x="228.66724" xlink:href="#m5bd9f9b473" y="56.517024"/>
     <use style="fill:#1f77b4;stroke:#1f77b4;" x="229.4668" xlink:href="#m5bd9f9b473" y="54.777636"/>
     <use style="fill:#1f77b4;stroke:#1f77b4;" x="230.266361" xlink:href="#m5bd9f9b473" y="58.007226"/>
     <use style="fill:#1f77b4;stroke:#1f77b4;" x="231.065921" xlink:href="#m5bd9f9b473" y="54.874887"/>
     <use style="fill:#1f77b4;stroke:#1f77b4;" x="231.865481" xlink:href="#m5bd9f9b473" y="54.998518"/>
     <use style="fill:#1f77b4;stroke:#1f77b4;" x="232.665042" xlink:href="#m5bd9f9b473" y="49.979054"/>
     <use style="fill:#1f77b4;stroke:#1f77b4;" x="233.464602" xlink:href="#m5bd9f9b473" y="50.341752"/>
     <use style="fill:#1f77b4;stroke:#1f77b4;" x="234.264162" xlink:href="#m5bd9f9b473" y="54.340055"/>
     <use style="fill:#1f77b4;stroke:#1f77b4;" x="235.063723" xlink:href="#m5bd9f9b473" y="52.700425"/>
     <use style="fill:#1f77b4;stroke:#1f77b4;" x="235.863283" xlink:href="#m5bd9f9b473" y="53.74671"/>
     <use style="fill:#1f77b4;stroke:#1f77b4;" x="236.662843" xlink:href="#m5bd9f9b473" y="50.318851"/>
     <use style="fill:#1f77b4;stroke:#1f77b4;" x="237.462404" xlink:href="#m5bd9f9b473" y="50.745632"/>
     <use style="fill:#1f77b4;stroke:#1f77b4;" x="238.261964" xlink:href="#m5bd9f9b473" y="50.1704"/>
     <use style="fill:#1f77b4;stroke:#1f77b4;" x="239.061524" xlink:href="#m5bd9f9b473" y="52.057466"/>
     <use style="fill:#1f77b4;stroke:#1f77b4;" x="239.861085" xlink:href="#m5bd9f9b473" y="49.996414"/>
     <use style="fill:#1f77b4;stroke:#1f77b4;" x="240.660645" xlink:href="#m5bd9f9b473" y="49.057119"/>
     <use style="fill:#1f77b4;stroke:#1f77b4;" x="241.460205" xlink:href="#m5bd9f9b473" y="49.084225"/>
     <use style="fill:#1f77b4;stroke:#1f77b4;" x="242.259766" xlink:href="#m5bd9f9b473" y="46.537757"/>
     <use style="fill:#1f77b4;stroke:#1f77b4;" x="243.059326" xlink:href="#m5bd9f9b473" y="46.821279"/>
     <use style="fill:#1f77b4;stroke:#1f77b4;" x="243.858886" xlink:href="#m5bd9f9b473" y="45.95735"/>
     <use style="fill:#1f77b4;stroke:#1f77b4;" x="244.658447" xlink:href="#m5bd9f9b473" y="44.887146"/>
     <use style="fill:#1f77b4;stroke:#1f77b4;" x="245.458007" xlink:href="#m5bd9f9b473" y="45.100024"/>
     <use style="fill:#1f77b4;stroke:#1f77b4;" x="246.257567" xlink:href="#m5bd9f9b473" y="43.967896"/>
     <use style="fill:#1f77b4;stroke:#1f77b4;" x="247.057128" xlink:href="#m5bd9f9b473" y="44.012705"/>
     <use style="fill:#1f77b4;stroke:#1f77b4;" x="247.856688" xlink:href="#m5bd9f9b473" y="42.402386"/>
     <use style="fill:#1f77b4;stroke:#1f77b4;" x="248.656248" xlink:href="#m5bd9f9b473" y="42.318976"/>
     <use style="fill:#1f77b4;stroke:#1f77b4;" x="249.455809" xlink:href="#m5bd9f9b473" y="42.232238"/>
     <use style="fill:#1f77b4;stroke:#1f77b4;" x="250.255369" xlink:href="#m5bd9f9b473" y="38.991243"/>
     <use style="fill:#1f77b4;stroke:#1f77b4;" x="251.054929" xlink:href="#m5bd9f9b473" y="37.811581"/>
     <use style="fill:#1f77b4;stroke:#1f77b4;" x="251.85449" xlink:href="#m5bd9f9b473" y="39.237926"/>
     <use style="fill:#1f77b4;stroke:#1f77b4;" x="252.65405" xlink:href="#m5bd9f9b473" y="40.379585"/>
     <use style="fill:#1f77b4;stroke:#1f77b4;" x="253.45361" xlink:href="#m5bd9f9b473" y="37.437806"/>
     <use style="fill:#1f77b4;stroke:#1f77b4;" x="254.25317" xlink:href="#m5bd9f9b473" y="35.732269"/>
     <use style="fill:#1f77b4;stroke:#1f77b4;" x="255.052731" xlink:href="#m5bd9f9b473" y="37.474722"/>
     <use style="fill:#1f77b4;stroke:#1f77b4;" x="255.852291" xlink:href="#m5bd9f9b473" y="37.490927"/>
     <use style="fill:#1f77b4;stroke:#1f77b4;" x="256.651851" xlink:href="#m5bd9f9b473" y="37.49788"/>
     <use style="fill:#1f77b4;stroke:#1f77b4;" x="257.451412" xlink:href="#m5bd9f9b473" y="32.752874"/>
     <use style="fill:#1f77b4;stroke:#1f77b4;" x="258.250972" xlink:href="#m5bd9f9b473" y="34.832016"/>
     <use style="fill:#1f77b4;stroke:#1f77b4;" x="259.050532" xlink:href="#m5bd9f9b473" y="34.088074"/>
     <use style="fill:#1f77b4;stroke:#1f77b4;" x="259.850093" xlink:href="#m5bd9f9b473" y="35.768988"/>
     <use style="fill:#1f77b4;stroke:#1f77b4;" x="260.649653" xlink:href="#m5bd9f9b473" y="31.634977"/>
     <use style="fill:#1f77b4;stroke:#1f77b4;" x="261.449213" xlink:href="#m5bd9f9b473" y="32.774564"/>
     <use style="fill:#1f77b4;stroke:#1f77b4;" x="262.248774" xlink:href="#m5bd9f9b473" y="33.259624"/>
     <use style="fill:#1f77b4;stroke:#1f77b4;" x="263.048334" xlink:href="#m5bd9f9b473" y="35.747153"/>
     <use style="fill:#1f77b4;stroke:#1f77b4;" x="263.847894" xlink:href="#m5bd9f9b473" y="33.034396"/>
     <use style="fill:#1f77b4;stroke:#1f77b4;" x="264.647455" xlink:href="#m5bd9f9b473" y="33.507048"/>
     <use style="fill:#1f77b4;stroke:#1f77b4;" x="265.447015" xlink:href="#m5bd9f9b473" y="32.214564"/>
     <use style="fill:#1f77b4;stroke:#1f77b4;" x="266.246575" xlink:href="#m5bd9f9b473" y="31.621104"/>
    </g>
   </g>
   <g id="PathCollection_2">
    <defs>
     <path d="M 0 0.5 
C 0.132602 0.5 0.25979 0.447317 0.353553 0.353553 
C 0.447317 0.25979 0.5 0.132602 0.5 0 
C 0.5 -0.132602 0.447317 -0.25979 0.353553 -0.353553 
C 0.25979 -0.447317 0.132602 -0.5 0 -0.5 
C -0.132602 -0.5 -0.25979 -0.447317 -0.353553 -0.353553 
C -0.447317 -0.25979 -0.5 -0.132602 -0.5 0 
C -0.5 0.132602 -0.447317 0.25979 -0.353553 0.353553 
C -0.25979 0.447317 -0.132602 0.5 0 0.5 
z
" id="m38925be79d" style="stroke:#ff7f0e;"/>
    </defs>
    <g clip-path="url(#p178cab8f9d)">
     <use style="fill:#ff7f0e;stroke:#ff7f0e;" x="47.966606" xlink:href="#m38925be79d" y="247.990984"/>
     <use style="fill:#ff7f0e;stroke:#ff7f0e;" x="51.615854" xlink:href="#m38925be79d" y="240.488093"/>
     <use style="fill:#ff7f0e;stroke:#ff7f0e;" x="55.265101" xlink:href="#m38925be79d" y="236.733065"/>
     <use style="fill:#ff7f0e;stroke:#ff7f0e;" x="58.914349" xlink:href="#m38925be79d" y="232.985202"/>
     <use style="fill:#ff7f0e;stroke:#ff7f0e;" x="62.563596" xlink:href="#m38925be79d" y="229.230174"/>
     <use style="fill:#ff7f0e;stroke:#ff7f0e;" x="66.212844" xlink:href="#m38925be79d" y="229.230174"/>
     <use style="fill:#ff7f0e;stroke:#ff7f0e;" x="69.862091" xlink:href="#m38925be79d" y="225.475145"/>
     <use style="fill:#ff7f0e;stroke:#ff7f0e;" x="73.511339" xlink:href="#m38925be79d" y="221.727283"/>
     <use style="fill:#ff7f0e;stroke:#ff7f0e;" x="77.160586" xlink:href="#m38925be79d" y="217.972255"/>
     <use style="fill:#ff7f0e;stroke:#ff7f0e;" x="80.809834" xlink:href="#m38925be79d" y="214.224392"/>
     <use style="fill:#ff7f0e;stroke:#ff7f0e;" x="84.459081" xlink:href="#m38925be79d" y="214.224392"/>
     <use style="fill:#ff7f0e;stroke:#ff7f0e;" x="88.108329" xlink:href="#m38925be79d" y="210.469364"/>
     <use style="fill:#ff7f0e;stroke:#ff7f0e;" x="91.757577" xlink:href="#m38925be79d" y="206.714335"/>
     <use style="fill:#ff7f0e;stroke:#ff7f0e;" x="95.406824" xlink:href="#m38925be79d" y="206.714335"/>
     <use style="fill:#ff7f0e;stroke:#ff7f0e;" x="99.056072" xlink:href="#m38925be79d" y="202.966473"/>
     <use style="fill:#ff7f0e;stroke:#ff7f0e;" x="102.705319" xlink:href="#m38925be79d" y="202.966473"/>
     <use style="fill:#ff7f0e;stroke:#ff7f0e;" x="106.354567" xlink:href="#m38925be79d" y="202.966473"/>
     <use style="fill:#ff7f0e;stroke:#ff7f0e;" x="110.003814" xlink:href="#m38925be79d" y="199.211444"/>
     <use style="fill:#ff7f0e;stroke:#ff7f0e;" x="113.653062" xlink:href="#m38925be79d" y="199.211444"/>
     <use style="fill:#ff7f0e;stroke:#ff7f0e;" x="117.302309" xlink:href="#m38925be79d" y="195.463582"/>
     <use style="fill:#ff7f0e;stroke:#ff7f0e;" x="120.951557" xlink:href="#m38925be79d" y="195.463582"/>
     <use style="fill:#ff7f0e;stroke:#ff7f0e;" x="124.600804" xlink:href="#m38925be79d" y="191.708554"/>
     <use style="fill:#ff7f0e;stroke:#ff7f0e;" x="128.250052" xlink:href="#m38925be79d" y="191.708554"/>
     <use style="fill:#ff7f0e;stroke:#ff7f0e;" x="131.899299" xlink:href="#m38925be79d" y="187.953525"/>
     <use style="fill:#ff7f0e;stroke:#ff7f0e;" x="135.548547" xlink:href="#m38925be79d" y="187.953525"/>
     <use style="fill:#ff7f0e;stroke:#ff7f0e;" x="139.197795" xlink:href="#m38925be79d" y="184.205663"/>
     <use style="fill:#ff7f0e;stroke:#ff7f0e;" x="142.847042" xlink:href="#m38925be79d" y="180.450634"/>
     <use style="fill:#ff7f0e;stroke:#ff7f0e;" x="146.49629" xlink:href="#m38925be79d" y="157.941962"/>
     <use style="fill:#ff7f0e;stroke:#ff7f0e;" x="150.145537" xlink:href="#m38925be79d" y="142.929014"/>
     <use style="fill:#ff7f0e;stroke:#ff7f0e;" x="153.794785" xlink:href="#m38925be79d" y="124.168204"/>
     <use style="fill:#ff7f0e;stroke:#ff7f0e;" x="157.444032" xlink:href="#m38925be79d" y="109.162422"/>
     <use style="fill:#ff7f0e;stroke:#ff7f0e;" x="161.09328" xlink:href="#m38925be79d" y="86.646584"/>
     <use style="fill:#ff7f0e;stroke:#ff7f0e;" x="164.742527" xlink:href="#m38925be79d" y="82.898721"/>
     <use style="fill:#ff7f0e;stroke:#ff7f0e;" x="168.391775" xlink:href="#m38925be79d" y="79.143693"/>
     <use style="fill:#ff7f0e;stroke:#ff7f0e;" x="172.041022" xlink:href="#m38925be79d" y="79.143693"/>
     <use style="fill:#ff7f0e;stroke:#ff7f0e;" x="175.69027" xlink:href="#m38925be79d" y="75.388664"/>
     <use style="fill:#ff7f0e;stroke:#ff7f0e;" x="179.339518" xlink:href="#m38925be79d" y="75.388664"/>
     <use style="fill:#ff7f0e;stroke:#ff7f0e;" x="182.988765" xlink:href="#m38925be79d" y="71.640802"/>
     <use style="fill:#ff7f0e;stroke:#ff7f0e;" x="186.638013" xlink:href="#m38925be79d" y="71.640802"/>
     <use style="fill:#ff7f0e;stroke:#ff7f0e;" x="190.28726" xlink:href="#m38925be79d" y="67.885773"/>
     <use style="fill:#ff7f0e;stroke:#ff7f0e;" x="193.936508" xlink:href="#m38925be79d" y="67.885773"/>
     <use style="fill:#ff7f0e;stroke:#ff7f0e;" x="197.585755" xlink:href="#m38925be79d" y="64.137911"/>
     <use style="fill:#ff7f0e;stroke:#ff7f0e;" x="201.235003" xlink:href="#m38925be79d" y="64.137911"/>
     <use style="fill:#ff7f0e;stroke:#ff7f0e;" x="204.88425" xlink:href="#m38925be79d" y="64.137911"/>
     <use style="fill:#ff7f0e;stroke:#ff7f0e;" x="208.533498" xlink:href="#m38925be79d" y="60.382883"/>
     <use style="fill:#ff7f0e;stroke:#ff7f0e;" x="212.182745" xlink:href="#m38925be79d" y="60.382883"/>
     <use style="fill:#ff7f0e;stroke:#ff7f0e;" x="215.831993" xlink:href="#m38925be79d" y="56.627854"/>
     <use style="fill:#ff7f0e;stroke:#ff7f0e;" x="219.48124" xlink:href="#m38925be79d" y="52.879992"/>
     <use style="fill:#ff7f0e;stroke:#ff7f0e;" x="223.130488" xlink:href="#m38925be79d" y="52.879992"/>
     <use style="fill:#ff7f0e;stroke:#ff7f0e;" x="226.779736" xlink:href="#m38925be79d" y="49.124963"/>
     <use style="fill:#ff7f0e;stroke:#ff7f0e;" x="230.428983" xlink:href="#m38925be79d" y="45.377101"/>
     <use style="fill:#ff7f0e;stroke:#ff7f0e;" x="234.078231" xlink:href="#m38925be79d" y="41.622072"/>
     <use style="fill:#ff7f0e;stroke:#ff7f0e;" x="237.727478" xlink:href="#m38925be79d" y="37.867044"/>
     <use style="fill:#ff7f0e;stroke:#ff7f0e;" x="241.376726" xlink:href="#m38925be79d" y="37.867044"/>
     <use style="fill:#ff7f0e;stroke:#ff7f0e;" x="245.025973" xlink:href="#m38925be79d" y="34.119182"/>
     <use style="fill:#ff7f0e;stroke:#ff7f0e;" x="248.675221" xlink:href="#m38925be79d" y="30.364153"/>
     <use style="fill:#ff7f0e;stroke:#ff7f0e;" x="252.324468" xlink:href="#m38925be79d" y="26.616291"/>
     <use style="fill:#ff7f0e;stroke:#ff7f0e;" x="255.973716" xlink:href="#m38925be79d" y="26.616291"/>
     <use style="fill:#ff7f0e;stroke:#ff7f0e;" x="259.622963" xlink:href="#m38925be79d" y="26.616291"/>
     <use style="fill:#ff7f0e;stroke:#ff7f0e;" x="263.272211" xlink:href="#m38925be79d" y="22.861262"/>
    </g>
   </g>
   <g id="matplotlib.axis_1">
    <g id="xtick_1">
     <g id="line2d_1">
      <defs>
       <path d="M 0 0 
L 0 -3.5 
" id="m34d1b8da34" style="stroke:#000000;stroke-width:0.8;"/>
      </defs>
      <g>
       <use style="stroke:#000000;stroke-width:0.8;" x="47.966606" xlink:href="#m34d1b8da34" y="263.7"/>
      </g>
     </g>
     <g id="text_1">
      <!-- 0.0 -->
      <defs>
       <path d="M 31.78125 66.40625 
Q 24.171875 66.40625 20.328125 58.90625 
Q 16.5 51.421875 16.5 36.375 
Q 16.5 21.390625 20.328125 13.890625 
Q 24.171875 6.390625 31.78125 6.390625 
Q 39.453125 6.390625 43.28125 13.890625 
Q 47.125 21.390625 47.125 36.375 
Q 47.125 51.421875 43.28125 58.90625 
Q 39.453125 66.40625 31.78125 66.40625 
z
M 31.78125 74.21875 
Q 44.046875 74.21875 50.515625 64.515625 
Q 56.984375 54.828125 56.984375 36.375 
Q 56.984375 17.96875 50.515625 8.265625 
Q 44.046875 -1.421875 31.78125 -1.421875 
Q 19.53125 -1.421875 13.0625 8.265625 
Q 6.59375 17.96875 6.59375 36.375 
Q 6.59375 54.828125 13.0625 64.515625 
Q 19.53125 74.21875 31.78125 74.21875 
z
" id="DejaVuSans-48"/>
       <path d="M 10.6875 12.40625 
L 21 12.40625 
L 21 0 
L 10.6875 0 
z
" id="DejaVuSans-46"/>
      </defs>
      <g transform="translate(40.015043 274.798438)scale(0.1 -0.1)">
       <use xlink:href="#DejaVuSans-48"/>
       <use x="63.623047" xlink:href="#DejaVuSans-46"/>
       <use x="95.410156" xlink:href="#DejaVuSans-48"/>
      </g>
     </g>
    </g>
    <g id="xtick_2">
     <g id="line2d_2">
      <g>
       <use style="stroke:#000000;stroke-width:0.8;" x="82.233477" xlink:href="#m34d1b8da34" y="263.7"/>
      </g>
     </g>
     <g id="text_2">
      <!-- 2.5 -->
      <defs>
       <path d="M 19.1875 8.296875 
L 53.609375 8.296875 
L 53.609375 0 
L 7.328125 0 
L 7.328125 8.296875 
Q 12.9375 14.109375 22.625 23.890625 
Q 32.328125 33.6875 34.8125 36.53125 
Q 39.546875 41.84375 41.421875 45.53125 
Q 43.3125 49.21875 43.3125 52.78125 
Q 43.3125 58.59375 39.234375 62.25 
Q 35.15625 65.921875 28.609375 65.921875 
Q 23.96875 65.921875 18.8125 64.3125 
Q 13.671875 62.703125 7.8125 59.421875 
L 7.8125 69.390625 
Q 13.765625 71.78125 18.9375 73 
Q 24.125 74.21875 28.421875 74.21875 
Q 39.75 74.21875 46.484375 68.546875 
Q 53.21875 62.890625 53.21875 53.421875 
Q 53.21875 48.921875 51.53125 44.890625 
Q 49.859375 40.875 45.40625 35.40625 
Q 44.1875 33.984375 37.640625 27.21875 
Q 31.109375 20.453125 19.1875 8.296875 
z
" id="DejaVuSans-50"/>
       <path d="M 10.796875 72.90625 
L 49.515625 72.90625 
L 49.515625 64.59375 
L 19.828125 64.59375 
L 19.828125 46.734375 
Q 21.96875 47.46875 24.109375 47.828125 
Q 26.265625 48.1875 28.421875 48.1875 
Q 40.625 48.1875 47.75 41.5 
Q 54.890625 34.8125 54.890625 23.390625 
Q 54.890625 11.625 47.5625 5.09375 
Q 40.234375 -1.421875 26.90625 -1.421875 
Q 22.3125 -1.421875 17.546875 -0.640625 
Q 12.796875 0.140625 7.71875 1.703125 
L 7.71875 11.625 
Q 12.109375 9.234375 16.796875 8.0625 
Q 21.484375 6.890625 26.703125 6.890625 
Q 35.15625 6.890625 40.078125 11.328125 
Q 45.015625 15.765625 45.015625 23.390625 
Q 45.015625 31 40.078125 35.4375 
Q 35.15625 39.890625 26.703125 39.890625 
Q 22.75 39.890625 18.8125 39.015625 
Q 14.890625 38.140625 10.796875 36.28125 
z
" id="DejaVuSans-53"/>
      </defs>
      <g transform="translate(74.281915 274.798438)scale(0.1 -0.1)">
       <use xlink:href="#DejaVuSans-50"/>
       <use x="63.623047" xlink:href="#DejaVuSans-46"/>
       <use x="95.410156" xlink:href="#DejaVuSans-53"/>
      </g>
     </g>
    </g>
    <g id="xtick_3">
     <g id="line2d_3">
      <g>
       <use style="stroke:#000000;stroke-width:0.8;" x="116.500348" xlink:href="#m34d1b8da34" y="263.7"/>
      </g>
     </g>
     <g id="text_3">
      <!-- 5.0 -->
      <g transform="translate(108.548786 274.798438)scale(0.1 -0.1)">
       <use xlink:href="#DejaVuSans-53"/>
       <use x="63.623047" xlink:href="#DejaVuSans-46"/>
       <use x="95.410156" xlink:href="#DejaVuSans-48"/>
      </g>
     </g>
    </g>
    <g id="xtick_4">
     <g id="line2d_4">
      <g>
       <use style="stroke:#000000;stroke-width:0.8;" x="150.76722" xlink:href="#m34d1b8da34" y="263.7"/>
      </g>
     </g>
     <g id="text_4">
      <!-- 7.5 -->
      <defs>
       <path d="M 8.203125 72.90625 
L 55.078125 72.90625 
L 55.078125 68.703125 
L 28.609375 0 
L 18.3125 0 
L 43.21875 64.59375 
L 8.203125 64.59375 
z
" id="DejaVuSans-55"/>
      </defs>
      <g transform="translate(142.815657 274.798438)scale(0.1 -0.1)">
       <use xlink:href="#DejaVuSans-55"/>
       <use x="63.623047" xlink:href="#DejaVuSans-46"/>
       <use x="95.410156" xlink:href="#DejaVuSans-53"/>
      </g>
     </g>
    </g>
    <g id="xtick_5">
     <g id="line2d_5">
      <g>
       <use style="stroke:#000000;stroke-width:0.8;" x="185.034091" xlink:href="#m34d1b8da34" y="263.7"/>
      </g>
     </g>
     <g id="text_5">
      <!-- 10.0 -->
      <defs>
       <path d="M 12.40625 8.296875 
L 28.515625 8.296875 
L 28.515625 63.921875 
L 10.984375 60.40625 
L 10.984375 69.390625 
L 28.421875 72.90625 
L 38.28125 72.90625 
L 38.28125 8.296875 
L 54.390625 8.296875 
L 54.390625 0 
L 12.40625 0 
z
" id="DejaVuSans-49"/>
      </defs>
      <g transform="translate(173.901278 274.798438)scale(0.1 -0.1)">
       <use xlink:href="#DejaVuSans-49"/>
       <use x="63.623047" xlink:href="#DejaVuSans-48"/>
       <use x="127.246094" xlink:href="#DejaVuSans-46"/>
       <use x="159.033203" xlink:href="#DejaVuSans-48"/>
      </g>
     </g>
    </g>
    <g id="xtick_6">
     <g id="line2d_6">
      <g>
       <use style="stroke:#000000;stroke-width:0.8;" x="219.300962" xlink:href="#m34d1b8da34" y="263.7"/>
      </g>
     </g>
     <g id="text_6">
      <!-- 12.5 -->
      <g transform="translate(208.168149 274.798438)scale(0.1 -0.1)">
       <use xlink:href="#DejaVuSans-49"/>
       <use x="63.623047" xlink:href="#DejaVuSans-50"/>
       <use x="127.246094" xlink:href="#DejaVuSans-46"/>
       <use x="159.033203" xlink:href="#DejaVuSans-53"/>
      </g>
     </g>
    </g>
    <g id="xtick_7">
     <g id="line2d_7">
      <g>
       <use style="stroke:#000000;stroke-width:0.8;" x="253.567833" xlink:href="#m34d1b8da34" y="263.7"/>
      </g>
     </g>
     <g id="text_7">
      <!-- 15.0 -->
      <g transform="translate(242.435021 274.798438)scale(0.1 -0.1)">
       <use xlink:href="#DejaVuSans-49"/>
       <use x="63.623047" xlink:href="#DejaVuSans-53"/>
       <use x="127.246094" xlink:href="#DejaVuSans-46"/>
       <use x="159.033203" xlink:href="#DejaVuSans-48"/>
      </g>
     </g>
    </g>
   </g>
   <g id="matplotlib.axis_2">
    <g id="ytick_1">
     <g id="line2d_8">
      <defs>
       <path d="M 0 0 
L 3.5 0 
" id="m4e5ed8912a" style="stroke:#000000;stroke-width:0.8;"/>
      </defs>
      <g>
       <use style="stroke:#000000;stroke-width:0.8;" x="36.675" xlink:href="#m4e5ed8912a" y="247.990984"/>
      </g>
     </g>
     <g id="text_8">
      <!-- 0.00 -->
      <g transform="translate(10.909375 251.790203)scale(0.1 -0.1)">
       <use xlink:href="#DejaVuSans-48"/>
       <use x="63.623047" xlink:href="#DejaVuSans-46"/>
       <use x="95.410156" xlink:href="#DejaVuSans-48"/>
       <use x="159.033203" xlink:href="#DejaVuSans-48"/>
      </g>
     </g>
    </g>
    <g id="ytick_2">
     <g id="line2d_9">
      <g>
       <use style="stroke:#000000;stroke-width:0.8;" x="36.675" xlink:href="#m4e5ed8912a" y="135.426386"/>
      </g>
     </g>
     <g id="text_9">
      <!-- 1.57 -->
      <g transform="translate(10.909375 139.225605)scale(0.1 -0.1)">
       <use xlink:href="#DejaVuSans-49"/>
       <use x="63.623047" xlink:href="#DejaVuSans-46"/>
       <use x="95.410156" xlink:href="#DejaVuSans-53"/>
       <use x="159.033203" xlink:href="#DejaVuSans-55"/>
      </g>
     </g>
    </g>
    <g id="ytick_3">
     <g id="line2d_10">
      <g>
       <use style="stroke:#000000;stroke-width:0.8;" x="36.675" xlink:href="#m4e5ed8912a" y="22.861789"/>
      </g>
     </g>
     <g id="text_10">
      <!-- 3.14 -->
      <defs>
       <path d="M 40.578125 39.3125 
Q 47.65625 37.796875 51.625 33 
Q 55.609375 28.21875 55.609375 21.1875 
Q 55.609375 10.40625 48.1875 4.484375 
Q 40.765625 -1.421875 27.09375 -1.421875 
Q 22.515625 -1.421875 17.65625 -0.515625 
Q 12.796875 0.390625 7.625 2.203125 
L 7.625 11.71875 
Q 11.71875 9.328125 16.59375 8.109375 
Q 21.484375 6.890625 26.8125 6.890625 
Q 36.078125 6.890625 40.9375 10.546875 
Q 45.796875 14.203125 45.796875 21.1875 
Q 45.796875 27.640625 41.28125 31.265625 
Q 36.765625 34.90625 28.71875 34.90625 
L 20.21875 34.90625 
L 20.21875 43.015625 
L 29.109375 43.015625 
Q 36.375 43.015625 40.234375 45.921875 
Q 44.09375 48.828125 44.09375 54.296875 
Q 44.09375 59.90625 40.109375 62.90625 
Q 36.140625 65.921875 28.71875 65.921875 
Q 24.65625 65.921875 20.015625 65.03125 
Q 15.375 64.15625 9.8125 62.3125 
L 9.8125 71.09375 
Q 15.4375 72.65625 20.34375 73.4375 
Q 25.25 74.21875 29.59375 74.21875 
Q 40.828125 74.21875 47.359375 69.109375 
Q 53.90625 64.015625 53.90625 55.328125 
Q 53.90625 49.265625 50.4375 45.09375 
Q 46.96875 40.921875 40.578125 39.3125 
z
" id="DejaVuSans-51"/>
       <path d="M 37.796875 64.3125 
L 12.890625 25.390625 
L 37.796875 25.390625 
z
M 35.203125 72.90625 
L 47.609375 72.90625 
L 47.609375 25.390625 
L 58.015625 25.390625 
L 58.015625 17.1875 
L 47.609375 17.1875 
L 47.609375 0 
L 37.796875 0 
L 37.796875 17.1875 
L 4.890625 17.1875 
L 4.890625 26.703125 
z
" id="DejaVuSans-52"/>
      </defs>
      <g transform="translate(10.909375 26.661008)scale(0.1 -0.1)">
       <use xlink:href="#DejaVuSans-51"/>
       <use x="63.623047" xlink:href="#DejaVuSans-46"/>
       <use x="95.410156" xlink:href="#DejaVuSans-49"/>
       <use x="159.033203" xlink:href="#DejaVuSans-52"/>
      </g>
     </g>
    </g>
   </g>
   <g id="patch_3">
    <path d="M 36.675 263.7 
L 36.675 10.8 
" style="fill:none;stroke:#000000;stroke-linecap:square;stroke-linejoin:miter;stroke-width:0.8;"/>
   </g>
   <g id="patch_4">
    <path d="M 277.2 263.7 
L 277.2 10.8 
" style="fill:none;stroke:#000000;stroke-linecap:square;stroke-linejoin:miter;stroke-width:0.8;"/>
   </g>
   <g id="patch_5">
    <path d="M 36.675 263.7 
L 277.2 263.7 
" style="fill:none;stroke:#000000;stroke-linecap:square;stroke-linejoin:miter;stroke-width:0.8;"/>
   </g>
   <g id="patch_6">
    <path d="M 36.675 10.8 
L 277.2 10.8 
" style="fill:none;stroke:#000000;stroke-linecap:square;stroke-linejoin:miter;stroke-width:0.8;"/>
   </g>
  </g>
 </g>
 <defs>
  <clipPath id="p178cab8f9d">
   <rect height="252.9" width="240.525" x="36.675" y="10.8"/>
  </clipPath>
 </defs>
</svg>
