<?xml version="1.0" encoding="utf-8" standalone="no"?>
<!DOCTYPE svg PUBLIC "-//W3C//DTD SVG 1.1//EN"
  "http://www.w3.org/Graphics/SVG/1.1/DTD/svg11.dtd">
<!-- Created with matplotlib (https://matplotlib.org/) -->
<svg height="288pt" version="1.1" viewBox="0 0 288 288" width="288pt" xmlns="http://www.w3.org/2000/svg" xmlns:xlink="http://www.w3.org/1999/xlink">
 <defs>
  <style type="text/css">
*{stroke-linecap:butt;stroke-linejoin:round;}
  </style>
 </defs>
 <g id="figure_1">
  <g id="patch_1">
   <path d="M 0 288 
L 288 288 
L 288 0 
L 0 0 
z
" style="fill:#ffffff;"/>
  </g>
  <g id="axes_1">
   <g id="patch_2">
    <path d="M 36.425 263.7 
L 277.2 263.7 
L 277.2 10.8 
L 36.425 10.8 
z
" style="fill:#ffffff;"/>
   </g>
   <g id="PathCollection_1">
    <defs>
     <path d="M 0 0.5 
C 0.132602 0.5 0.25979 0.447317 0.353553 0.353553 
C 0.447317 0.25979 0.5 0.132602 0.5 0 
C 0.5 -0.132602 0.447317 -0.25979 0.353553 -0.353553 
C 0.25979 -0.447317 0.132602 -0.5 0 -0.5 
C -0.132602 -0.5 -0.25979 -0.447317 -0.353553 -0.353553 
C -0.447317 -0.25979 -0.5 -0.132602 -0.5 0 
C -0.5 0.132602 -0.447317 0.25979 -0.353553 0.353553 
C -0.25979 0.447317 -0.132602 0.5 0 0.5 
z
" id="me42b1fdffe" style="stroke:#1f77b4;"/>
    </defs>
    <g clip-path="url(#pba18be15db)">
     <use style="fill:#1f77b4;stroke:#1f77b4;" x="47.728342" xlink:href="#me42b1fdffe" y="247.990984"/>
     <use style="fill:#1f77b4;stroke:#1f77b4;" x="48.528734" xlink:href="#me42b1fdffe" y="245.874316"/>
     <use style="fill:#1f77b4;stroke:#1f77b4;" x="49.329125" xlink:href="#me42b1fdffe" y="248.727235"/>
     <use style="fill:#1f77b4;stroke:#1f77b4;" x="50.129517" xlink:href="#me42b1fdffe" y="247.077412"/>
     <use style="fill:#1f77b4;stroke:#1f77b4;" x="50.929908" xlink:href="#me42b1fdffe" y="249.098458"/>
     <use style="fill:#1f77b4;stroke:#1f77b4;" x="51.730299" xlink:href="#me42b1fdffe" y="248.333741"/>
     <use style="fill:#1f77b4;stroke:#1f77b4;" x="52.530691" xlink:href="#me42b1fdffe" y="246.324944"/>
     <use style="fill:#1f77b4;stroke:#1f77b4;" x="53.331082" xlink:href="#me42b1fdffe" y="245.823628"/>
     <use style="fill:#1f77b4;stroke:#1f77b4;" x="54.131473" xlink:href="#me42b1fdffe" y="244.497275"/>
     <use style="fill:#1f77b4;stroke:#1f77b4;" x="54.931865" xlink:href="#me42b1fdffe" y="244.13575"/>
     <use style="fill:#1f77b4;stroke:#1f77b4;" x="55.732256" xlink:href="#me42b1fdffe" y="247.058944"/>
     <use style="fill:#1f77b4;stroke:#1f77b4;" x="56.532648" xlink:href="#me42b1fdffe" y="245.706469"/>
     <use style="fill:#1f77b4;stroke:#1f77b4;" x="57.333039" xlink:href="#me42b1fdffe" y="246.459147"/>
     <use style="fill:#1f77b4;stroke:#1f77b4;" x="58.13343" xlink:href="#me42b1fdffe" y="241.66775"/>
     <use style="fill:#1f77b4;stroke:#1f77b4;" x="58.933822" xlink:href="#me42b1fdffe" y="240.697751"/>
     <use style="fill:#1f77b4;stroke:#1f77b4;" x="59.734213" xlink:href="#me42b1fdffe" y="241.427167"/>
     <use style="fill:#1f77b4;stroke:#1f77b4;" x="60.534605" xlink:href="#me42b1fdffe" y="239.58154"/>
     <use style="fill:#1f77b4;stroke:#1f77b4;" x="61.334996" xlink:href="#me42b1fdffe" y="237.70398"/>
     <use style="fill:#1f77b4;stroke:#1f77b4;" x="62.135387" xlink:href="#me42b1fdffe" y="236.356234"/>
     <use style="fill:#1f77b4;stroke:#1f77b4;" x="62.935779" xlink:href="#me42b1fdffe" y="232.379741"/>
     <use style="fill:#1f77b4;stroke:#1f77b4;" x="63.73617" xlink:href="#me42b1fdffe" y="234.769513"/>
     <use style="fill:#1f77b4;stroke:#1f77b4;" x="64.536561" xlink:href="#me42b1fdffe" y="228.827595"/>
     <use style="fill:#1f77b4;stroke:#1f77b4;" x="65.336953" xlink:href="#me42b1fdffe" y="233.014328"/>
     <use style="fill:#1f77b4;stroke:#1f77b4;" x="66.137344" xlink:href="#me42b1fdffe" y="230.35668"/>
     <use style="fill:#1f77b4;stroke:#1f77b4;" x="66.937736" xlink:href="#me42b1fdffe" y="232.954364"/>
     <use style="fill:#1f77b4;stroke:#1f77b4;" x="67.738127" xlink:href="#me42b1fdffe" y="234.243723"/>
     <use style="fill:#1f77b4;stroke:#1f77b4;" x="68.538518" xlink:href="#me42b1fdffe" y="231.331536"/>
     <use style="fill:#1f77b4;stroke:#1f77b4;" x="69.33891" xlink:href="#me42b1fdffe" y="236.819372"/>
     <use style="fill:#1f77b4;stroke:#1f77b4;" x="70.139301" xlink:href="#me42b1fdffe" y="238.864298"/>
     <use style="fill:#1f77b4;stroke:#1f77b4;" x="70.939693" xlink:href="#me42b1fdffe" y="234.256532"/>
     <use style="fill:#1f77b4;stroke:#1f77b4;" x="71.740084" xlink:href="#me42b1fdffe" y="233.093564"/>
     <use style="fill:#1f77b4;stroke:#1f77b4;" x="72.540475" xlink:href="#me42b1fdffe" y="223.673763"/>
     <use style="fill:#1f77b4;stroke:#1f77b4;" x="73.340867" xlink:href="#me42b1fdffe" y="223.348214"/>
     <use style="fill:#1f77b4;stroke:#1f77b4;" x="74.141258" xlink:href="#me42b1fdffe" y="223.093812"/>
     <use style="fill:#1f77b4;stroke:#1f77b4;" x="74.941649" xlink:href="#me42b1fdffe" y="224.885057"/>
     <use style="fill:#1f77b4;stroke:#1f77b4;" x="75.742041" xlink:href="#me42b1fdffe" y="224.014618"/>
     <use style="fill:#1f77b4;stroke:#1f77b4;" x="76.542432" xlink:href="#me42b1fdffe" y="223.932519"/>
     <use style="fill:#1f77b4;stroke:#1f77b4;" x="77.342824" xlink:href="#me42b1fdffe" y="223.481185"/>
     <use style="fill:#1f77b4;stroke:#1f77b4;" x="78.143215" xlink:href="#me42b1fdffe" y="224.704579"/>
     <use style="fill:#1f77b4;stroke:#1f77b4;" x="78.943606" xlink:href="#me42b1fdffe" y="223.431424"/>
     <use style="fill:#1f77b4;stroke:#1f77b4;" x="79.743998" xlink:href="#me42b1fdffe" y="218.193569"/>
     <use style="fill:#1f77b4;stroke:#1f77b4;" x="80.544389" xlink:href="#me42b1fdffe" y="218.471615"/>
     <use style="fill:#1f77b4;stroke:#1f77b4;" x="81.344781" xlink:href="#me42b1fdffe" y="219.79638"/>
     <use style="fill:#1f77b4;stroke:#1f77b4;" x="82.145172" xlink:href="#me42b1fdffe" y="217.021534"/>
     <use style="fill:#1f77b4;stroke:#1f77b4;" x="82.945563" xlink:href="#me42b1fdffe" y="218.618105"/>
     <use style="fill:#1f77b4;stroke:#1f77b4;" x="83.745955" xlink:href="#me42b1fdffe" y="217.924203"/>
     <use style="fill:#1f77b4;stroke:#1f77b4;" x="84.546346" xlink:href="#me42b1fdffe" y="220.509401"/>
     <use style="fill:#1f77b4;stroke:#1f77b4;" x="85.346737" xlink:href="#me42b1fdffe" y="218.161093"/>
     <use style="fill:#1f77b4;stroke:#1f77b4;" x="86.147129" xlink:href="#me42b1fdffe" y="216.416023"/>
     <use style="fill:#1f77b4;stroke:#1f77b4;" x="86.94752" xlink:href="#me42b1fdffe" y="213.758975"/>
     <use style="fill:#1f77b4;stroke:#1f77b4;" x="87.747912" xlink:href="#me42b1fdffe" y="216.020832"/>
     <use style="fill:#1f77b4;stroke:#1f77b4;" x="88.548303" xlink:href="#me42b1fdffe" y="217.996635"/>
     <use style="fill:#1f77b4;stroke:#1f77b4;" x="89.348694" xlink:href="#me42b1fdffe" y="217.54749"/>
     <use style="fill:#1f77b4;stroke:#1f77b4;" x="90.149086" xlink:href="#me42b1fdffe" y="216.33632"/>
     <use style="fill:#1f77b4;stroke:#1f77b4;" x="90.949477" xlink:href="#me42b1fdffe" y="215.621009"/>
     <use style="fill:#1f77b4;stroke:#1f77b4;" x="91.749869" xlink:href="#me42b1fdffe" y="213.336018"/>
     <use style="fill:#1f77b4;stroke:#1f77b4;" x="92.55026" xlink:href="#me42b1fdffe" y="215.571099"/>
     <use style="fill:#1f77b4;stroke:#1f77b4;" x="93.350651" xlink:href="#me42b1fdffe" y="213.59602"/>
     <use style="fill:#1f77b4;stroke:#1f77b4;" x="94.151043" xlink:href="#me42b1fdffe" y="210.78566"/>
     <use style="fill:#1f77b4;stroke:#1f77b4;" x="94.951434" xlink:href="#me42b1fdffe" y="215.436897"/>
     <use style="fill:#1f77b4;stroke:#1f77b4;" x="95.751825" xlink:href="#me42b1fdffe" y="210.690385"/>
     <use style="fill:#1f77b4;stroke:#1f77b4;" x="96.552217" xlink:href="#me42b1fdffe" y="207.000148"/>
     <use style="fill:#1f77b4;stroke:#1f77b4;" x="97.352608" xlink:href="#me42b1fdffe" y="210.58475"/>
     <use style="fill:#1f77b4;stroke:#1f77b4;" x="98.153" xlink:href="#me42b1fdffe" y="209.167123"/>
     <use style="fill:#1f77b4;stroke:#1f77b4;" x="98.953391" xlink:href="#me42b1fdffe" y="210.142141"/>
     <use style="fill:#1f77b4;stroke:#1f77b4;" x="99.753782" xlink:href="#me42b1fdffe" y="208.927564"/>
     <use style="fill:#1f77b4;stroke:#1f77b4;" x="100.554174" xlink:href="#me42b1fdffe" y="209.018211"/>
     <use style="fill:#1f77b4;stroke:#1f77b4;" x="101.354565" xlink:href="#me42b1fdffe" y="206.457676"/>
     <use style="fill:#1f77b4;stroke:#1f77b4;" x="102.154957" xlink:href="#me42b1fdffe" y="206.696981"/>
     <use style="fill:#1f77b4;stroke:#1f77b4;" x="102.955348" xlink:href="#me42b1fdffe" y="207.578825"/>
     <use style="fill:#1f77b4;stroke:#1f77b4;" x="103.755739" xlink:href="#me42b1fdffe" y="202.746164"/>
     <use style="fill:#1f77b4;stroke:#1f77b4;" x="104.556131" xlink:href="#me42b1fdffe" y="205.519535"/>
     <use style="fill:#1f77b4;stroke:#1f77b4;" x="105.356522" xlink:href="#me42b1fdffe" y="205.998165"/>
     <use style="fill:#1f77b4;stroke:#1f77b4;" x="106.156913" xlink:href="#me42b1fdffe" y="203.200405"/>
     <use style="fill:#1f77b4;stroke:#1f77b4;" x="106.957305" xlink:href="#me42b1fdffe" y="203.878118"/>
     <use style="fill:#1f77b4;stroke:#1f77b4;" x="107.757696" xlink:href="#me42b1fdffe" y="206.736832"/>
     <use style="fill:#1f77b4;stroke:#1f77b4;" x="108.558088" xlink:href="#me42b1fdffe" y="210.395733"/>
     <use style="fill:#1f77b4;stroke:#1f77b4;" x="109.358479" xlink:href="#me42b1fdffe" y="208.273129"/>
     <use style="fill:#1f77b4;stroke:#1f77b4;" x="110.15887" xlink:href="#me42b1fdffe" y="205.949989"/>
     <use style="fill:#1f77b4;stroke:#1f77b4;" x="110.959262" xlink:href="#me42b1fdffe" y="201.504692"/>
     <use style="fill:#1f77b4;stroke:#1f77b4;" x="111.759653" xlink:href="#me42b1fdffe" y="203.994015"/>
     <use style="fill:#1f77b4;stroke:#1f77b4;" x="112.560045" xlink:href="#me42b1fdffe" y="200.407255"/>
     <use style="fill:#1f77b4;stroke:#1f77b4;" x="113.360436" xlink:href="#me42b1fdffe" y="205.202932"/>
     <use style="fill:#1f77b4;stroke:#1f77b4;" x="114.160827" xlink:href="#me42b1fdffe" y="204.124992"/>
     <use style="fill:#1f77b4;stroke:#1f77b4;" x="114.961219" xlink:href="#me42b1fdffe" y="207.164173"/>
     <use style="fill:#1f77b4;stroke:#1f77b4;" x="115.76161" xlink:href="#me42b1fdffe" y="208.806771"/>
     <use style="fill:#1f77b4;stroke:#1f77b4;" x="116.562002" xlink:href="#me42b1fdffe" y="205.503508"/>
     <use style="fill:#1f77b4;stroke:#1f77b4;" x="117.362393" xlink:href="#me42b1fdffe" y="203.921728"/>
     <use style="fill:#1f77b4;stroke:#1f77b4;" x="118.162784" xlink:href="#me42b1fdffe" y="201.905969"/>
     <use style="fill:#1f77b4;stroke:#1f77b4;" x="118.963176" xlink:href="#me42b1fdffe" y="200.712923"/>
     <use style="fill:#1f77b4;stroke:#1f77b4;" x="119.763567" xlink:href="#me42b1fdffe" y="200.849324"/>
     <use style="fill:#1f77b4;stroke:#1f77b4;" x="120.563958" xlink:href="#me42b1fdffe" y="199.212002"/>
     <use style="fill:#1f77b4;stroke:#1f77b4;" x="121.36435" xlink:href="#me42b1fdffe" y="198.244394"/>
     <use style="fill:#1f77b4;stroke:#1f77b4;" x="122.164741" xlink:href="#me42b1fdffe" y="195.781378"/>
     <use style="fill:#1f77b4;stroke:#1f77b4;" x="122.965133" xlink:href="#me42b1fdffe" y="198.527735"/>
     <use style="fill:#1f77b4;stroke:#1f77b4;" x="123.765524" xlink:href="#me42b1fdffe" y="193.972273"/>
     <use style="fill:#1f77b4;stroke:#1f77b4;" x="124.565915" xlink:href="#me42b1fdffe" y="198.725217"/>
     <use style="fill:#1f77b4;stroke:#1f77b4;" x="125.366307" xlink:href="#me42b1fdffe" y="197.363928"/>
     <use style="fill:#1f77b4;stroke:#1f77b4;" x="126.166698" xlink:href="#me42b1fdffe" y="199.146479"/>
     <use style="fill:#1f77b4;stroke:#1f77b4;" x="126.96709" xlink:href="#me42b1fdffe" y="196.681787"/>
     <use style="fill:#1f77b4;stroke:#1f77b4;" x="127.767481" xlink:href="#me42b1fdffe" y="195.742949"/>
     <use style="fill:#1f77b4;stroke:#1f77b4;" x="128.567872" xlink:href="#me42b1fdffe" y="196.556056"/>
     <use style="fill:#1f77b4;stroke:#1f77b4;" x="129.368264" xlink:href="#me42b1fdffe" y="196.882499"/>
     <use style="fill:#1f77b4;stroke:#1f77b4;" x="130.168655" xlink:href="#me42b1fdffe" y="198.198294"/>
     <use style="fill:#1f77b4;stroke:#1f77b4;" x="130.969046" xlink:href="#me42b1fdffe" y="195.711396"/>
     <use style="fill:#1f77b4;stroke:#1f77b4;" x="131.769438" xlink:href="#me42b1fdffe" y="196.977989"/>
     <use style="fill:#1f77b4;stroke:#1f77b4;" x="132.569829" xlink:href="#me42b1fdffe" y="193.78924"/>
     <use style="fill:#1f77b4;stroke:#1f77b4;" x="133.370221" xlink:href="#me42b1fdffe" y="194.757342"/>
     <use style="fill:#1f77b4;stroke:#1f77b4;" x="134.170612" xlink:href="#me42b1fdffe" y="197.787954"/>
     <use style="fill:#1f77b4;stroke:#1f77b4;" x="134.971003" xlink:href="#me42b1fdffe" y="200.059084"/>
     <use style="fill:#1f77b4;stroke:#1f77b4;" x="135.771395" xlink:href="#me42b1fdffe" y="202.961145"/>
     <use style="fill:#1f77b4;stroke:#1f77b4;" x="136.571786" xlink:href="#me42b1fdffe" y="204.12722"/>
     <use style="fill:#1f77b4;stroke:#1f77b4;" x="137.372178" xlink:href="#me42b1fdffe" y="202.33204"/>
     <use style="fill:#1f77b4;stroke:#1f77b4;" x="138.172569" xlink:href="#me42b1fdffe" y="203.725631"/>
     <use style="fill:#1f77b4;stroke:#1f77b4;" x="138.97296" xlink:href="#me42b1fdffe" y="204.842575"/>
     <use style="fill:#1f77b4;stroke:#1f77b4;" x="139.773352" xlink:href="#me42b1fdffe" y="205.66653"/>
     <use style="fill:#1f77b4;stroke:#1f77b4;" x="140.573743" xlink:href="#me42b1fdffe" y="206.181299"/>
     <use style="fill:#1f77b4;stroke:#1f77b4;" x="141.374134" xlink:href="#me42b1fdffe" y="200.797261"/>
     <use style="fill:#1f77b4;stroke:#1f77b4;" x="142.174526" xlink:href="#me42b1fdffe" y="203.432944"/>
     <use style="fill:#1f77b4;stroke:#1f77b4;" x="142.974917" xlink:href="#me42b1fdffe" y="199.924"/>
     <use style="fill:#1f77b4;stroke:#1f77b4;" x="143.775309" xlink:href="#me42b1fdffe" y="205.465822"/>
     <use style="fill:#1f77b4;stroke:#1f77b4;" x="144.5757" xlink:href="#me42b1fdffe" y="206.8214"/>
     <use style="fill:#1f77b4;stroke:#1f77b4;" x="145.376091" xlink:href="#me42b1fdffe" y="209.050922"/>
     <use style="fill:#1f77b4;stroke:#1f77b4;" x="146.176483" xlink:href="#me42b1fdffe" y="208.366275"/>
     <use style="fill:#1f77b4;stroke:#1f77b4;" x="146.976874" xlink:href="#me42b1fdffe" y="209.105639"/>
     <use style="fill:#1f77b4;stroke:#1f77b4;" x="147.777266" xlink:href="#me42b1fdffe" y="201.616764"/>
     <use style="fill:#1f77b4;stroke:#1f77b4;" x="148.577657" xlink:href="#me42b1fdffe" y="199.208102"/>
     <use style="fill:#1f77b4;stroke:#1f77b4;" x="149.378048" xlink:href="#me42b1fdffe" y="197.377837"/>
     <use style="fill:#1f77b4;stroke:#1f77b4;" x="150.17844" xlink:href="#me42b1fdffe" y="193.504151"/>
     <use style="fill:#1f77b4;stroke:#1f77b4;" x="150.978831" xlink:href="#me42b1fdffe" y="191.883864"/>
     <use style="fill:#1f77b4;stroke:#1f77b4;" x="151.779222" xlink:href="#me42b1fdffe" y="185.972438"/>
     <use style="fill:#1f77b4;stroke:#1f77b4;" x="152.579614" xlink:href="#me42b1fdffe" y="182.704577"/>
     <use style="fill:#1f77b4;stroke:#1f77b4;" x="153.380005" xlink:href="#me42b1fdffe" y="181.496022"/>
     <use style="fill:#1f77b4;stroke:#1f77b4;" x="154.180397" xlink:href="#me42b1fdffe" y="172.734599"/>
     <use style="fill:#1f77b4;stroke:#1f77b4;" x="154.980788" xlink:href="#me42b1fdffe" y="168.67602"/>
     <use style="fill:#1f77b4;stroke:#1f77b4;" x="155.781179" xlink:href="#me42b1fdffe" y="159.861112"/>
     <use style="fill:#1f77b4;stroke:#1f77b4;" x="156.581571" xlink:href="#me42b1fdffe" y="150.884698"/>
     <use style="fill:#1f77b4;stroke:#1f77b4;" x="157.381962" xlink:href="#me42b1fdffe" y="138.429768"/>
     <use style="fill:#1f77b4;stroke:#1f77b4;" x="158.182354" xlink:href="#me42b1fdffe" y="129.954337"/>
     <use style="fill:#1f77b4;stroke:#1f77b4;" x="158.982745" xlink:href="#me42b1fdffe" y="119.340007"/>
     <use style="fill:#1f77b4;stroke:#1f77b4;" x="159.783136" xlink:href="#me42b1fdffe" y="111.61786"/>
     <use style="fill:#1f77b4;stroke:#1f77b4;" x="160.583528" xlink:href="#me42b1fdffe" y="108.521468"/>
     <use style="fill:#1f77b4;stroke:#1f77b4;" x="161.383919" xlink:href="#me42b1fdffe" y="103.056213"/>
     <use style="fill:#1f77b4;stroke:#1f77b4;" x="162.18431" xlink:href="#me42b1fdffe" y="100.095491"/>
     <use style="fill:#1f77b4;stroke:#1f77b4;" x="162.984702" xlink:href="#me42b1fdffe" y="98.068521"/>
     <use style="fill:#1f77b4;stroke:#1f77b4;" x="163.785093" xlink:href="#me42b1fdffe" y="96.551876"/>
     <use style="fill:#1f77b4;stroke:#1f77b4;" x="164.585485" xlink:href="#me42b1fdffe" y="94.114171"/>
     <use style="fill:#1f77b4;stroke:#1f77b4;" x="165.385876" xlink:href="#me42b1fdffe" y="89.771388"/>
     <use style="fill:#1f77b4;stroke:#1f77b4;" x="166.186267" xlink:href="#me42b1fdffe" y="89.731787"/>
     <use style="fill:#1f77b4;stroke:#1f77b4;" x="166.986659" xlink:href="#me42b1fdffe" y="90.206054"/>
     <use style="fill:#1f77b4;stroke:#1f77b4;" x="167.78705" xlink:href="#me42b1fdffe" y="91.125522"/>
     <use style="fill:#1f77b4;stroke:#1f77b4;" x="168.587442" xlink:href="#me42b1fdffe" y="89.420179"/>
     <use style="fill:#1f77b4;stroke:#1f77b4;" x="169.387833" xlink:href="#me42b1fdffe" y="90.017793"/>
     <use style="fill:#1f77b4;stroke:#1f77b4;" x="170.188224" xlink:href="#me42b1fdffe" y="84.341195"/>
     <use style="fill:#1f77b4;stroke:#1f77b4;" x="170.988616" xlink:href="#me42b1fdffe" y="82.038907"/>
     <use style="fill:#1f77b4;stroke:#1f77b4;" x="171.789007" xlink:href="#me42b1fdffe" y="82.840191"/>
     <use style="fill:#1f77b4;stroke:#1f77b4;" x="172.589398" xlink:href="#me42b1fdffe" y="81.240544"/>
     <use style="fill:#1f77b4;stroke:#1f77b4;" x="173.38979" xlink:href="#me42b1fdffe" y="82.341472"/>
     <use style="fill:#1f77b4;stroke:#1f77b4;" x="174.190181" xlink:href="#me42b1fdffe" y="81.273269"/>
     <use style="fill:#1f77b4;stroke:#1f77b4;" x="174.990573" xlink:href="#me42b1fdffe" y="79.372297"/>
     <use style="fill:#1f77b4;stroke:#1f77b4;" x="175.790964" xlink:href="#me42b1fdffe" y="78.580957"/>
     <use style="fill:#1f77b4;stroke:#1f77b4;" x="176.591355" xlink:href="#me42b1fdffe" y="80.073053"/>
     <use style="fill:#1f77b4;stroke:#1f77b4;" x="177.391747" xlink:href="#me42b1fdffe" y="78.647394"/>
     <use style="fill:#1f77b4;stroke:#1f77b4;" x="178.192138" xlink:href="#me42b1fdffe" y="76.919918"/>
     <use style="fill:#1f77b4;stroke:#1f77b4;" x="178.99253" xlink:href="#me42b1fdffe" y="75.861722"/>
     <use style="fill:#1f77b4;stroke:#1f77b4;" x="179.792921" xlink:href="#me42b1fdffe" y="77.087036"/>
     <use style="fill:#1f77b4;stroke:#1f77b4;" x="180.593312" xlink:href="#me42b1fdffe" y="78.245971"/>
     <use style="fill:#1f77b4;stroke:#1f77b4;" x="181.393704" xlink:href="#me42b1fdffe" y="77.316855"/>
     <use style="fill:#1f77b4;stroke:#1f77b4;" x="182.194095" xlink:href="#me42b1fdffe" y="77.353155"/>
     <use style="fill:#1f77b4;stroke:#1f77b4;" x="182.994486" xlink:href="#me42b1fdffe" y="73.969847"/>
     <use style="fill:#1f77b4;stroke:#1f77b4;" x="183.794878" xlink:href="#me42b1fdffe" y="76.054197"/>
     <use style="fill:#1f77b4;stroke:#1f77b4;" x="184.595269" xlink:href="#me42b1fdffe" y="73.815289"/>
     <use style="fill:#1f77b4;stroke:#1f77b4;" x="185.395661" xlink:href="#me42b1fdffe" y="74.349069"/>
     <use style="fill:#1f77b4;stroke:#1f77b4;" x="186.196052" xlink:href="#me42b1fdffe" y="72.280473"/>
     <use style="fill:#1f77b4;stroke:#1f77b4;" x="186.996443" xlink:href="#me42b1fdffe" y="70.403965"/>
     <use style="fill:#1f77b4;stroke:#1f77b4;" x="187.796835" xlink:href="#me42b1fdffe" y="69.216921"/>
     <use style="fill:#1f77b4;stroke:#1f77b4;" x="188.597226" xlink:href="#me42b1fdffe" y="70.794248"/>
     <use style="fill:#1f77b4;stroke:#1f77b4;" x="189.397618" xlink:href="#me42b1fdffe" y="72.033498"/>
     <use style="fill:#1f77b4;stroke:#1f77b4;" x="190.198009" xlink:href="#me42b1fdffe" y="69.234097"/>
     <use style="fill:#1f77b4;stroke:#1f77b4;" x="190.9984" xlink:href="#me42b1fdffe" y="70.072374"/>
     <use style="fill:#1f77b4;stroke:#1f77b4;" x="191.798792" xlink:href="#me42b1fdffe" y="69.874452"/>
     <use style="fill:#1f77b4;stroke:#1f77b4;" x="192.599183" xlink:href="#me42b1fdffe" y="69.263398"/>
     <use style="fill:#1f77b4;stroke:#1f77b4;" x="193.399574" xlink:href="#me42b1fdffe" y="71.914962"/>
     <use style="fill:#1f77b4;stroke:#1f77b4;" x="194.199966" xlink:href="#me42b1fdffe" y="72.609617"/>
     <use style="fill:#1f77b4;stroke:#1f77b4;" x="195.000357" xlink:href="#me42b1fdffe" y="71.379162"/>
     <use style="fill:#1f77b4;stroke:#1f77b4;" x="195.800749" xlink:href="#me42b1fdffe" y="71.28055"/>
     <use style="fill:#1f77b4;stroke:#1f77b4;" x="196.60114" xlink:href="#me42b1fdffe" y="69.408073"/>
     <use style="fill:#1f77b4;stroke:#1f77b4;" x="197.401531" xlink:href="#me42b1fdffe" y="68.701139"/>
     <use style="fill:#1f77b4;stroke:#1f77b4;" x="198.201923" xlink:href="#me42b1fdffe" y="70.149211"/>
     <use style="fill:#1f77b4;stroke:#1f77b4;" x="199.002314" xlink:href="#me42b1fdffe" y="68.450651"/>
     <use style="fill:#1f77b4;stroke:#1f77b4;" x="199.802706" xlink:href="#me42b1fdffe" y="67.531844"/>
     <use style="fill:#1f77b4;stroke:#1f77b4;" x="200.603097" xlink:href="#me42b1fdffe" y="66.778554"/>
     <use style="fill:#1f77b4;stroke:#1f77b4;" x="201.403488" xlink:href="#me42b1fdffe" y="67.043038"/>
     <use style="fill:#1f77b4;stroke:#1f77b4;" x="202.20388" xlink:href="#me42b1fdffe" y="66.56901"/>
     <use style="fill:#1f77b4;stroke:#1f77b4;" x="203.004271" xlink:href="#me42b1fdffe" y="66.209169"/>
     <use style="fill:#1f77b4;stroke:#1f77b4;" x="203.804662" xlink:href="#me42b1fdffe" y="65.039177"/>
     <use style="fill:#1f77b4;stroke:#1f77b4;" x="204.605054" xlink:href="#me42b1fdffe" y="66.626511"/>
     <use style="fill:#1f77b4;stroke:#1f77b4;" x="205.405445" xlink:href="#me42b1fdffe" y="65.626658"/>
     <use style="fill:#1f77b4;stroke:#1f77b4;" x="206.205837" xlink:href="#me42b1fdffe" y="64.6951"/>
     <use style="fill:#1f77b4;stroke:#1f77b4;" x="207.006228" xlink:href="#me42b1fdffe" y="63.372577"/>
     <use style="fill:#1f77b4;stroke:#1f77b4;" x="207.806619" xlink:href="#me42b1fdffe" y="64.292293"/>
     <use style="fill:#1f77b4;stroke:#1f77b4;" x="208.607011" xlink:href="#me42b1fdffe" y="66.153181"/>
     <use style="fill:#1f77b4;stroke:#1f77b4;" x="209.407402" xlink:href="#me42b1fdffe" y="63.006357"/>
     <use style="fill:#1f77b4;stroke:#1f77b4;" x="210.207794" xlink:href="#me42b1fdffe" y="61.803999"/>
     <use style="fill:#1f77b4;stroke:#1f77b4;" x="211.008185" xlink:href="#me42b1fdffe" y="64.790488"/>
     <use style="fill:#1f77b4;stroke:#1f77b4;" x="211.808576" xlink:href="#me42b1fdffe" y="66.845007"/>
     <use style="fill:#1f77b4;stroke:#1f77b4;" x="212.608968" xlink:href="#me42b1fdffe" y="68.685697"/>
     <use style="fill:#1f77b4;stroke:#1f77b4;" x="213.409359" xlink:href="#me42b1fdffe" y="66.886048"/>
     <use style="fill:#1f77b4;stroke:#1f77b4;" x="214.20975" xlink:href="#me42b1fdffe" y="62.697688"/>
     <use style="fill:#1f77b4;stroke:#1f77b4;" x="215.010142" xlink:href="#me42b1fdffe" y="59.346737"/>
     <use style="fill:#1f77b4;stroke:#1f77b4;" x="215.810533" xlink:href="#me42b1fdffe" y="59.283933"/>
     <use style="fill:#1f77b4;stroke:#1f77b4;" x="216.610925" xlink:href="#me42b1fdffe" y="58.248331"/>
     <use style="fill:#1f77b4;stroke:#1f77b4;" x="217.411316" xlink:href="#me42b1fdffe" y="63.125649"/>
     <use style="fill:#1f77b4;stroke:#1f77b4;" x="218.211707" xlink:href="#me42b1fdffe" y="63.433432"/>
     <use style="fill:#1f77b4;stroke:#1f77b4;" x="219.012099" xlink:href="#me42b1fdffe" y="63.955499"/>
     <use style="fill:#1f77b4;stroke:#1f77b4;" x="219.81249" xlink:href="#me42b1fdffe" y="62.936151"/>
     <use style="fill:#1f77b4;stroke:#1f77b4;" x="220.612882" xlink:href="#me42b1fdffe" y="62.467555"/>
     <use style="fill:#1f77b4;stroke:#1f77b4;" x="221.413273" xlink:href="#me42b1fdffe" y="60.172376"/>
     <use style="fill:#1f77b4;stroke:#1f77b4;" x="222.213664" xlink:href="#me42b1fdffe" y="59.227212"/>
     <use style="fill:#1f77b4;stroke:#1f77b4;" x="223.014056" xlink:href="#me42b1fdffe" y="58.190291"/>
     <use style="fill:#1f77b4;stroke:#1f77b4;" x="223.814447" xlink:href="#me42b1fdffe" y="60.270005"/>
     <use style="fill:#1f77b4;stroke:#1f77b4;" x="224.614838" xlink:href="#me42b1fdffe" y="58.218337"/>
     <use style="fill:#1f77b4;stroke:#1f77b4;" x="225.41523" xlink:href="#me42b1fdffe" y="56.7256"/>
     <use style="fill:#1f77b4;stroke:#1f77b4;" x="226.215621" xlink:href="#me42b1fdffe" y="58.026124"/>
     <use style="fill:#1f77b4;stroke:#1f77b4;" x="227.016013" xlink:href="#me42b1fdffe" y="55.122172"/>
     <use style="fill:#1f77b4;stroke:#1f77b4;" x="227.816404" xlink:href="#me42b1fdffe" y="56.137896"/>
     <use style="fill:#1f77b4;stroke:#1f77b4;" x="228.616795" xlink:href="#me42b1fdffe" y="56.517024"/>
     <use style="fill:#1f77b4;stroke:#1f77b4;" x="229.417187" xlink:href="#me42b1fdffe" y="54.777636"/>
     <use style="fill:#1f77b4;stroke:#1f77b4;" x="230.217578" xlink:href="#me42b1fdffe" y="58.007226"/>
     <use style="fill:#1f77b4;stroke:#1f77b4;" x="231.01797" xlink:href="#me42b1fdffe" y="54.874887"/>
     <use style="fill:#1f77b4;stroke:#1f77b4;" x="231.818361" xlink:href="#me42b1fdffe" y="54.998518"/>
     <use style="fill:#1f77b4;stroke:#1f77b4;" x="232.618752" xlink:href="#me42b1fdffe" y="49.979054"/>
     <use style="fill:#1f77b4;stroke:#1f77b4;" x="233.419144" xlink:href="#me42b1fdffe" y="50.341752"/>
     <use style="fill:#1f77b4;stroke:#1f77b4;" x="234.219535" xlink:href="#me42b1fdffe" y="54.340055"/>
     <use style="fill:#1f77b4;stroke:#1f77b4;" x="235.019926" xlink:href="#me42b1fdffe" y="52.700425"/>
     <use style="fill:#1f77b4;stroke:#1f77b4;" x="235.820318" xlink:href="#me42b1fdffe" y="53.74671"/>
     <use style="fill:#1f77b4;stroke:#1f77b4;" x="236.620709" xlink:href="#me42b1fdffe" y="50.318851"/>
     <use style="fill:#1f77b4;stroke:#1f77b4;" x="237.421101" xlink:href="#me42b1fdffe" y="50.745632"/>
     <use style="fill:#1f77b4;stroke:#1f77b4;" x="238.221492" xlink:href="#me42b1fdffe" y="50.1704"/>
     <use style="fill:#1f77b4;stroke:#1f77b4;" x="239.021883" xlink:href="#me42b1fdffe" y="52.057466"/>
     <use style="fill:#1f77b4;stroke:#1f77b4;" x="239.822275" xlink:href="#me42b1fdffe" y="49.996414"/>
     <use style="fill:#1f77b4;stroke:#1f77b4;" x="240.622666" xlink:href="#me42b1fdffe" y="49.057119"/>
     <use style="fill:#1f77b4;stroke:#1f77b4;" x="241.423058" xlink:href="#me42b1fdffe" y="49.084225"/>
     <use style="fill:#1f77b4;stroke:#1f77b4;" x="242.223449" xlink:href="#me42b1fdffe" y="46.537757"/>
     <use style="fill:#1f77b4;stroke:#1f77b4;" x="243.02384" xlink:href="#me42b1fdffe" y="46.821279"/>
     <use style="fill:#1f77b4;stroke:#1f77b4;" x="243.824232" xlink:href="#me42b1fdffe" y="45.95735"/>
     <use style="fill:#1f77b4;stroke:#1f77b4;" x="244.624623" xlink:href="#me42b1fdffe" y="44.887146"/>
     <use style="fill:#1f77b4;stroke:#1f77b4;" x="245.425014" xlink:href="#me42b1fdffe" y="45.100024"/>
     <use style="fill:#1f77b4;stroke:#1f77b4;" x="246.225406" xlink:href="#me42b1fdffe" y="43.967896"/>
     <use style="fill:#1f77b4;stroke:#1f77b4;" x="247.025797" xlink:href="#me42b1fdffe" y="44.012705"/>
     <use style="fill:#1f77b4;stroke:#1f77b4;" x="247.826189" xlink:href="#me42b1fdffe" y="42.402386"/>
     <use style="fill:#1f77b4;stroke:#1f77b4;" x="248.62658" xlink:href="#me42b1fdffe" y="42.318976"/>
     <use style="fill:#1f77b4;stroke:#1f77b4;" x="249.426971" xlink:href="#me42b1fdffe" y="42.232238"/>
     <use style="fill:#1f77b4;stroke:#1f77b4;" x="250.227363" xlink:href="#me42b1fdffe" y="38.991243"/>
     <use style="fill:#1f77b4;stroke:#1f77b4;" x="251.027754" xlink:href="#me42b1fdffe" y="37.811581"/>
     <use style="fill:#1f77b4;stroke:#1f77b4;" x="251.828146" xlink:href="#me42b1fdffe" y="39.237926"/>
     <use style="fill:#1f77b4;stroke:#1f77b4;" x="252.628537" xlink:href="#me42b1fdffe" y="40.379585"/>
     <use style="fill:#1f77b4;stroke:#1f77b4;" x="253.428928" xlink:href="#me42b1fdffe" y="37.437806"/>
     <use style="fill:#1f77b4;stroke:#1f77b4;" x="254.22932" xlink:href="#me42b1fdffe" y="35.732269"/>
     <use style="fill:#1f77b4;stroke:#1f77b4;" x="255.029711" xlink:href="#me42b1fdffe" y="37.474722"/>
     <use style="fill:#1f77b4;stroke:#1f77b4;" x="255.830102" xlink:href="#me42b1fdffe" y="37.490927"/>
     <use style="fill:#1f77b4;stroke:#1f77b4;" x="256.630494" xlink:href="#me42b1fdffe" y="37.49788"/>
     <use style="fill:#1f77b4;stroke:#1f77b4;" x="257.430885" xlink:href="#me42b1fdffe" y="32.752874"/>
     <use style="fill:#1f77b4;stroke:#1f77b4;" x="258.231277" xlink:href="#me42b1fdffe" y="34.832016"/>
     <use style="fill:#1f77b4;stroke:#1f77b4;" x="259.031668" xlink:href="#me42b1fdffe" y="34.088074"/>
     <use style="fill:#1f77b4;stroke:#1f77b4;" x="259.832059" xlink:href="#me42b1fdffe" y="35.768988"/>
     <use style="fill:#1f77b4;stroke:#1f77b4;" x="260.632451" xlink:href="#me42b1fdffe" y="31.634977"/>
     <use style="fill:#1f77b4;stroke:#1f77b4;" x="261.432842" xlink:href="#me42b1fdffe" y="32.774564"/>
     <use style="fill:#1f77b4;stroke:#1f77b4;" x="262.233234" xlink:href="#me42b1fdffe" y="33.259624"/>
     <use style="fill:#1f77b4;stroke:#1f77b4;" x="263.033625" xlink:href="#me42b1fdffe" y="35.747153"/>
     <use style="fill:#1f77b4;stroke:#1f77b4;" x="263.834016" xlink:href="#me42b1fdffe" y="33.034396"/>
     <use style="fill:#1f77b4;stroke:#1f77b4;" x="264.634408" xlink:href="#me42b1fdffe" y="33.507048"/>
     <use style="fill:#1f77b4;stroke:#1f77b4;" x="265.434799" xlink:href="#me42b1fdffe" y="32.214564"/>
     <use style="fill:#1f77b4;stroke:#1f77b4;" x="266.23519" xlink:href="#me42b1fdffe" y="31.621104"/>
    </g>
   </g>
   <g id="PathCollection_2">
    <defs>
     <path d="M 0 0.5 
C 0.132602 0.5 0.25979 0.447317 0.353553 0.353553 
C 0.447317 0.25979 0.5 0.132602 0.5 0 
C 0.5 -0.132602 0.447317 -0.25979 0.353553 -0.353553 
C 0.25979 -0.447317 0.132602 -0.5 0 -0.5 
C -0.132602 -0.5 -0.25979 -0.447317 -0.353553 -0.353553 
C -0.447317 -0.25979 -0.5 -0.132602 -0.5 0 
C -0.5 0.132602 -0.447317 0.25979 -0.353553 0.353553 
C -0.25979 0.447317 -0.132602 0.5 0 0.5 
z
" id="m1458ed648d" style="stroke:#ff7f0e;"/>
    </defs>
    <g clip-path="url(#pba18be15db)">
     <use style="fill:#ff7f0e;stroke:#ff7f0e;" x="47.728342" xlink:href="#m1458ed648d" y="247.990984"/>
     <use style="fill:#ff7f0e;stroke:#ff7f0e;" x="51.381383" xlink:href="#m1458ed648d" y="240.488093"/>
     <use style="fill:#ff7f0e;stroke:#ff7f0e;" x="55.034423" xlink:href="#m1458ed648d" y="236.733065"/>
     <use style="fill:#ff7f0e;stroke:#ff7f0e;" x="58.687464" xlink:href="#m1458ed648d" y="232.985202"/>
     <use style="fill:#ff7f0e;stroke:#ff7f0e;" x="62.340505" xlink:href="#m1458ed648d" y="229.230174"/>
     <use style="fill:#ff7f0e;stroke:#ff7f0e;" x="65.993545" xlink:href="#m1458ed648d" y="229.230174"/>
     <use style="fill:#ff7f0e;stroke:#ff7f0e;" x="69.646586" xlink:href="#m1458ed648d" y="225.475145"/>
     <use style="fill:#ff7f0e;stroke:#ff7f0e;" x="73.299626" xlink:href="#m1458ed648d" y="221.727283"/>
     <use style="fill:#ff7f0e;stroke:#ff7f0e;" x="76.952667" xlink:href="#m1458ed648d" y="217.972255"/>
     <use style="fill:#ff7f0e;stroke:#ff7f0e;" x="80.605707" xlink:href="#m1458ed648d" y="214.224392"/>
     <use style="fill:#ff7f0e;stroke:#ff7f0e;" x="84.258748" xlink:href="#m1458ed648d" y="214.224392"/>
     <use style="fill:#ff7f0e;stroke:#ff7f0e;" x="87.911788" xlink:href="#m1458ed648d" y="210.469364"/>
     <use style="fill:#ff7f0e;stroke:#ff7f0e;" x="91.564829" xlink:href="#m1458ed648d" y="206.714335"/>
     <use style="fill:#ff7f0e;stroke:#ff7f0e;" x="95.217869" xlink:href="#m1458ed648d" y="206.714335"/>
     <use style="fill:#ff7f0e;stroke:#ff7f0e;" x="98.87091" xlink:href="#m1458ed648d" y="202.966473"/>
     <use style="fill:#ff7f0e;stroke:#ff7f0e;" x="102.523951" xlink:href="#m1458ed648d" y="202.966473"/>
     <use style="fill:#ff7f0e;stroke:#ff7f0e;" x="106.176991" xlink:href="#m1458ed648d" y="202.966473"/>
     <use style="fill:#ff7f0e;stroke:#ff7f0e;" x="109.830032" xlink:href="#m1458ed648d" y="199.211444"/>
     <use style="fill:#ff7f0e;stroke:#ff7f0e;" x="113.483072" xlink:href="#m1458ed648d" y="199.211444"/>
     <use style="fill:#ff7f0e;stroke:#ff7f0e;" x="117.136113" xlink:href="#m1458ed648d" y="195.463582"/>
     <use style="fill:#ff7f0e;stroke:#ff7f0e;" x="120.789153" xlink:href="#m1458ed648d" y="195.463582"/>
     <use style="fill:#ff7f0e;stroke:#ff7f0e;" x="124.442194" xlink:href="#m1458ed648d" y="191.708554"/>
     <use style="fill:#ff7f0e;stroke:#ff7f0e;" x="128.095234" xlink:href="#m1458ed648d" y="191.708554"/>
     <use style="fill:#ff7f0e;stroke:#ff7f0e;" x="131.748275" xlink:href="#m1458ed648d" y="187.953525"/>
     <use style="fill:#ff7f0e;stroke:#ff7f0e;" x="135.401315" xlink:href="#m1458ed648d" y="187.953525"/>
     <use style="fill:#ff7f0e;stroke:#ff7f0e;" x="139.054356" xlink:href="#m1458ed648d" y="184.205663"/>
     <use style="fill:#ff7f0e;stroke:#ff7f0e;" x="142.707397" xlink:href="#m1458ed648d" y="180.450634"/>
     <use style="fill:#ff7f0e;stroke:#ff7f0e;" x="146.360437" xlink:href="#m1458ed648d" y="157.941962"/>
     <use style="fill:#ff7f0e;stroke:#ff7f0e;" x="150.013478" xlink:href="#m1458ed648d" y="142.929014"/>
     <use style="fill:#ff7f0e;stroke:#ff7f0e;" x="153.666518" xlink:href="#m1458ed648d" y="124.168204"/>
     <use style="fill:#ff7f0e;stroke:#ff7f0e;" x="157.319559" xlink:href="#m1458ed648d" y="109.162422"/>
     <use style="fill:#ff7f0e;stroke:#ff7f0e;" x="160.972599" xlink:href="#m1458ed648d" y="86.646584"/>
     <use style="fill:#ff7f0e;stroke:#ff7f0e;" x="164.62564" xlink:href="#m1458ed648d" y="82.898721"/>
     <use style="fill:#ff7f0e;stroke:#ff7f0e;" x="168.27868" xlink:href="#m1458ed648d" y="79.143693"/>
     <use style="fill:#ff7f0e;stroke:#ff7f0e;" x="171.931721" xlink:href="#m1458ed648d" y="79.143693"/>
     <use style="fill:#ff7f0e;stroke:#ff7f0e;" x="175.584761" xlink:href="#m1458ed648d" y="75.388664"/>
     <use style="fill:#ff7f0e;stroke:#ff7f0e;" x="179.237802" xlink:href="#m1458ed648d" y="75.388664"/>
     <use style="fill:#ff7f0e;stroke:#ff7f0e;" x="182.890843" xlink:href="#m1458ed648d" y="71.640802"/>
     <use style="fill:#ff7f0e;stroke:#ff7f0e;" x="186.543883" xlink:href="#m1458ed648d" y="71.640802"/>
     <use style="fill:#ff7f0e;stroke:#ff7f0e;" x="190.196924" xlink:href="#m1458ed648d" y="67.885773"/>
     <use style="fill:#ff7f0e;stroke:#ff7f0e;" x="193.849964" xlink:href="#m1458ed648d" y="67.885773"/>
     <use style="fill:#ff7f0e;stroke:#ff7f0e;" x="197.503005" xlink:href="#m1458ed648d" y="64.137911"/>
     <use style="fill:#ff7f0e;stroke:#ff7f0e;" x="201.156045" xlink:href="#m1458ed648d" y="64.137911"/>
     <use style="fill:#ff7f0e;stroke:#ff7f0e;" x="204.809086" xlink:href="#m1458ed648d" y="64.137911"/>
     <use style="fill:#ff7f0e;stroke:#ff7f0e;" x="208.462126" xlink:href="#m1458ed648d" y="60.382883"/>
     <use style="fill:#ff7f0e;stroke:#ff7f0e;" x="212.115167" xlink:href="#m1458ed648d" y="60.382883"/>
     <use style="fill:#ff7f0e;stroke:#ff7f0e;" x="215.768207" xlink:href="#m1458ed648d" y="56.627854"/>
     <use style="fill:#ff7f0e;stroke:#ff7f0e;" x="219.421248" xlink:href="#m1458ed648d" y="52.879992"/>
     <use style="fill:#ff7f0e;stroke:#ff7f0e;" x="223.074289" xlink:href="#m1458ed648d" y="52.879992"/>
     <use style="fill:#ff7f0e;stroke:#ff7f0e;" x="226.727329" xlink:href="#m1458ed648d" y="49.124963"/>
     <use style="fill:#ff7f0e;stroke:#ff7f0e;" x="230.38037" xlink:href="#m1458ed648d" y="45.377101"/>
     <use style="fill:#ff7f0e;stroke:#ff7f0e;" x="234.03341" xlink:href="#m1458ed648d" y="41.622072"/>
     <use style="fill:#ff7f0e;stroke:#ff7f0e;" x="237.686451" xlink:href="#m1458ed648d" y="37.867044"/>
     <use style="fill:#ff7f0e;stroke:#ff7f0e;" x="241.339491" xlink:href="#m1458ed648d" y="37.867044"/>
     <use style="fill:#ff7f0e;stroke:#ff7f0e;" x="244.992532" xlink:href="#m1458ed648d" y="34.119182"/>
     <use style="fill:#ff7f0e;stroke:#ff7f0e;" x="248.645572" xlink:href="#m1458ed648d" y="30.364153"/>
     <use style="fill:#ff7f0e;stroke:#ff7f0e;" x="252.298613" xlink:href="#m1458ed648d" y="26.616291"/>
     <use style="fill:#ff7f0e;stroke:#ff7f0e;" x="255.951653" xlink:href="#m1458ed648d" y="26.616291"/>
     <use style="fill:#ff7f0e;stroke:#ff7f0e;" x="259.604694" xlink:href="#m1458ed648d" y="26.616291"/>
     <use style="fill:#ff7f0e;stroke:#ff7f0e;" x="263.257735" xlink:href="#m1458ed648d" y="22.861262"/>
    </g>
   </g>
   <g id="matplotlib.axis_1">
    <g id="xtick_1">
     <g id="line2d_1">
      <defs>
       <path d="M 0 0 
L 0 -3.5 
" id="m5d8b34781f" style="stroke:#000000;stroke-width:0.8;"/>
      </defs>
      <g>
       <use style="stroke:#000000;stroke-width:0.8;" x="47.728342" xlink:href="#m5d8b34781f" y="263.7"/>
      </g>
     </g>
     <g id="text_1">
      <!-- 0.0 -->
      <defs>
       <path d="M 31.78125 66.40625 
Q 24.171875 66.40625 20.328125 58.90625 
Q 16.5 51.421875 16.5 36.375 
Q 16.5 21.390625 20.328125 13.890625 
Q 24.171875 6.390625 31.78125 6.390625 
Q 39.453125 6.390625 43.28125 13.890625 
Q 47.125 21.390625 47.125 36.375 
Q 47.125 51.421875 43.28125 58.90625 
Q 39.453125 66.40625 31.78125 66.40625 
z
M 31.78125 74.21875 
Q 44.046875 74.21875 50.515625 64.515625 
Q 56.984375 54.828125 56.984375 36.375 
Q 56.984375 17.96875 50.515625 8.265625 
Q 44.046875 -1.421875 31.78125 -1.421875 
Q 19.53125 -1.421875 13.0625 8.265625 
Q 6.59375 17.96875 6.59375 36.375 
Q 6.59375 54.828125 13.0625 64.515625 
Q 19.53125 74.21875 31.78125 74.21875 
z
" id="DejaVuSans-48"/>
       <path d="M 10.6875 12.40625 
L 21 12.40625 
L 21 0 
L 10.6875 0 
z
" id="DejaVuSans-46"/>
      </defs>
      <g transform="translate(39.77678 274.798438)scale(0.1 -0.1)">
       <use xlink:href="#DejaVuSans-48"/>
       <use x="63.623047" xlink:href="#DejaVuSans-46"/>
       <use x="95.410156" xlink:href="#DejaVuSans-48"/>
      </g>
     </g>
    </g>
    <g id="xtick_2">
     <g id="line2d_2">
      <g>
       <use style="stroke:#000000;stroke-width:0.8;" x="82.03083" xlink:href="#m5d8b34781f" y="263.7"/>
      </g>
     </g>
     <g id="text_2">
      <!-- 2.5 -->
      <defs>
       <path d="M 19.1875 8.296875 
L 53.609375 8.296875 
L 53.609375 0 
L 7.328125 0 
L 7.328125 8.296875 
Q 12.9375 14.109375 22.625 23.890625 
Q 32.328125 33.6875 34.8125 36.53125 
Q 39.546875 41.84375 41.421875 45.53125 
Q 43.3125 49.21875 43.3125 52.78125 
Q 43.3125 58.59375 39.234375 62.25 
Q 35.15625 65.921875 28.609375 65.921875 
Q 23.96875 65.921875 18.8125 64.3125 
Q 13.671875 62.703125 7.8125 59.421875 
L 7.8125 69.390625 
Q 13.765625 71.78125 18.9375 73 
Q 24.125 74.21875 28.421875 74.21875 
Q 39.75 74.21875 46.484375 68.546875 
Q 53.21875 62.890625 53.21875 53.421875 
Q 53.21875 48.921875 51.53125 44.890625 
Q 49.859375 40.875 45.40625 35.40625 
Q 44.1875 33.984375 37.640625 27.21875 
Q 31.109375 20.453125 19.1875 8.296875 
z
" id="DejaVuSans-50"/>
       <path d="M 10.796875 72.90625 
L 49.515625 72.90625 
L 49.515625 64.59375 
L 19.828125 64.59375 
L 19.828125 46.734375 
Q 21.96875 47.46875 24.109375 47.828125 
Q 26.265625 48.1875 28.421875 48.1875 
Q 40.625 48.1875 47.75 41.5 
Q 54.890625 34.8125 54.890625 23.390625 
Q 54.890625 11.625 47.5625 5.09375 
Q 40.234375 -1.421875 26.90625 -1.421875 
Q 22.3125 -1.421875 17.546875 -0.640625 
Q 12.796875 0.140625 7.71875 1.703125 
L 7.71875 11.625 
Q 12.109375 9.234375 16.796875 8.0625 
Q 21.484375 6.890625 26.703125 6.890625 
Q 35.15625 6.890625 40.078125 11.328125 
Q 45.015625 15.765625 45.015625 23.390625 
Q 45.015625 31 40.078125 35.4375 
Q 35.15625 39.890625 26.703125 39.890625 
Q 22.75 39.890625 18.8125 39.015625 
Q 14.890625 38.140625 10.796875 36.28125 
z
" id="DejaVuSans-53"/>
      </defs>
      <g transform="translate(74.079268 274.798438)scale(0.1 -0.1)">
       <use xlink:href="#DejaVuSans-50"/>
       <use x="63.623047" xlink:href="#DejaVuSans-46"/>
       <use x="95.410156" xlink:href="#DejaVuSans-53"/>
      </g>
     </g>
    </g>
    <g id="xtick_3">
     <g id="line2d_3">
      <g>
       <use style="stroke:#000000;stroke-width:0.8;" x="116.333318" xlink:href="#m5d8b34781f" y="263.7"/>
      </g>
     </g>
     <g id="text_3">
      <!-- 5.0 -->
      <g transform="translate(108.381756 274.798438)scale(0.1 -0.1)">
       <use xlink:href="#DejaVuSans-53"/>
       <use x="63.623047" xlink:href="#DejaVuSans-46"/>
       <use x="95.410156" xlink:href="#DejaVuSans-48"/>
      </g>
     </g>
    </g>
    <g id="xtick_4">
     <g id="line2d_4">
      <g>
       <use style="stroke:#000000;stroke-width:0.8;" x="150.635806" xlink:href="#m5d8b34781f" y="263.7"/>
      </g>
     </g>
     <g id="text_4">
      <!-- 7.5 -->
      <defs>
       <path d="M 8.203125 72.90625 
L 55.078125 72.90625 
L 55.078125 68.703125 
L 28.609375 0 
L 18.3125 0 
L 43.21875 64.59375 
L 8.203125 64.59375 
z
" id="DejaVuSans-55"/>
      </defs>
      <g transform="translate(142.684244 274.798438)scale(0.1 -0.1)">
       <use xlink:href="#DejaVuSans-55"/>
       <use x="63.623047" xlink:href="#DejaVuSans-46"/>
       <use x="95.410156" xlink:href="#DejaVuSans-53"/>
      </g>
     </g>
    </g>
    <g id="xtick_5">
     <g id="line2d_5">
      <g>
       <use style="stroke:#000000;stroke-width:0.8;" x="184.938294" xlink:href="#m5d8b34781f" y="263.7"/>
      </g>
     </g>
     <g id="text_5">
      <!-- 10.0 -->
      <defs>
       <path d="M 12.40625 8.296875 
L 28.515625 8.296875 
L 28.515625 63.921875 
L 10.984375 60.40625 
L 10.984375 69.390625 
L 28.421875 72.90625 
L 38.28125 72.90625 
L 38.28125 8.296875 
L 54.390625 8.296875 
L 54.390625 0 
L 12.40625 0 
z
" id="DejaVuSans-49"/>
      </defs>
      <g transform="translate(173.805482 274.798438)scale(0.1 -0.1)">
       <use xlink:href="#DejaVuSans-49"/>
       <use x="63.623047" xlink:href="#DejaVuSans-48"/>
       <use x="127.246094" xlink:href="#DejaVuSans-46"/>
       <use x="159.033203" xlink:href="#DejaVuSans-48"/>
      </g>
     </g>
    </g>
    <g id="xtick_6">
     <g id="line2d_6">
      <g>
       <use style="stroke:#000000;stroke-width:0.8;" x="219.240782" xlink:href="#m5d8b34781f" y="263.7"/>
      </g>
     </g>
     <g id="text_6">
      <!-- 12.5 -->
      <g transform="translate(208.10797 274.798438)scale(0.1 -0.1)">
       <use xlink:href="#DejaVuSans-49"/>
       <use x="63.623047" xlink:href="#DejaVuSans-50"/>
       <use x="127.246094" xlink:href="#DejaVuSans-46"/>
       <use x="159.033203" xlink:href="#DejaVuSans-53"/>
      </g>
     </g>
    </g>
    <g id="xtick_7">
     <g id="line2d_7">
      <g>
       <use style="stroke:#000000;stroke-width:0.8;" x="253.54327" xlink:href="#m5d8b34781f" y="263.7"/>
      </g>
     </g>
     <g id="text_7">
      <!-- 15.0 -->
      <g transform="translate(242.410457 274.798438)scale(0.1 -0.1)">
       <use xlink:href="#DejaVuSans-49"/>
       <use x="63.623047" xlink:href="#DejaVuSans-53"/>
       <use x="127.246094" xlink:href="#DejaVuSans-46"/>
       <use x="159.033203" xlink:href="#DejaVuSans-48"/>
      </g>
     </g>
    </g>
   </g>
   <g id="matplotlib.axis_2">
    <g id="ytick_1">
     <g id="line2d_8">
      <defs>
       <path d="M 0 0 
L 3.5 0 
" id="m5070ad8ec9" style="stroke:#000000;stroke-width:0.8;"/>
      </defs>
      <g>
       <use style="stroke:#000000;stroke-width:0.8;" x="36.425" xlink:href="#m5070ad8ec9" y="247.990984"/>
      </g>
     </g>
     <g id="text_8">
      <!-- 0.00 -->
      <g transform="translate(10.659375 251.790203)scale(0.1 -0.1)">
       <use xlink:href="#DejaVuSans-48"/>
       <use x="63.623047" xlink:href="#DejaVuSans-46"/>
       <use x="95.410156" xlink:href="#DejaVuSans-48"/>
       <use x="159.033203" xlink:href="#DejaVuSans-48"/>
      </g>
     </g>
    </g>
    <g id="ytick_2">
     <g id="line2d_9">
      <g>
       <use style="stroke:#000000;stroke-width:0.8;" x="36.425" xlink:href="#m5070ad8ec9" y="22.861789"/>
      </g>
     </g>
     <g id="text_9">
      <!-- 3.14 -->
      <defs>
       <path d="M 40.578125 39.3125 
Q 47.65625 37.796875 51.625 33 
Q 55.609375 28.21875 55.609375 21.1875 
Q 55.609375 10.40625 48.1875 4.484375 
Q 40.765625 -1.421875 27.09375 -1.421875 
Q 22.515625 -1.421875 17.65625 -0.515625 
Q 12.796875 0.390625 7.625 2.203125 
L 7.625 11.71875 
Q 11.71875 9.328125 16.59375 8.109375 
Q 21.484375 6.890625 26.8125 6.890625 
Q 36.078125 6.890625 40.9375 10.546875 
Q 45.796875 14.203125 45.796875 21.1875 
Q 45.796875 27.640625 41.28125 31.265625 
Q 36.765625 34.90625 28.71875 34.90625 
L 20.21875 34.90625 
L 20.21875 43.015625 
L 29.109375 43.015625 
Q 36.375 43.015625 40.234375 45.921875 
Q 44.09375 48.828125 44.09375 54.296875 
Q 44.09375 59.90625 40.109375 62.90625 
Q 36.140625 65.921875 28.71875 65.921875 
Q 24.65625 65.921875 20.015625 65.03125 
Q 15.375 64.15625 9.8125 62.3125 
L 9.8125 71.09375 
Q 15.4375 72.65625 20.34375 73.4375 
Q 25.25 74.21875 29.59375 74.21875 
Q 40.828125 74.21875 47.359375 69.109375 
Q 53.90625 64.015625 53.90625 55.328125 
Q 53.90625 49.265625 50.4375 45.09375 
Q 46.96875 40.921875 40.578125 39.3125 
z
" id="DejaVuSans-51"/>
       <path d="M 37.796875 64.3125 
L 12.890625 25.390625 
L 37.796875 25.390625 
z
M 35.203125 72.90625 
L 47.609375 72.90625 
L 47.609375 25.390625 
L 58.015625 25.390625 
L 58.015625 17.1875 
L 47.609375 17.1875 
L 47.609375 0 
L 37.796875 0 
L 37.796875 17.1875 
L 4.890625 17.1875 
L 4.890625 26.703125 
z
" id="DejaVuSans-52"/>
      </defs>
      <g transform="translate(10.659375 26.661008)scale(0.1 -0.1)">
       <use xlink:href="#DejaVuSans-51"/>
       <use x="63.623047" xlink:href="#DejaVuSans-46"/>
       <use x="95.410156" xlink:href="#DejaVuSans-49"/>
       <use x="159.033203" xlink:href="#DejaVuSans-52"/>
      </g>
     </g>
    </g>
   </g>
   <g id="patch_3">
    <path d="M 36.425 263.7 
L 36.425 10.8 
" style="fill:none;stroke:#000000;stroke-linecap:square;stroke-linejoin:miter;stroke-width:0.8;"/>
   </g>
   <g id="patch_4">
    <path d="M 277.2 263.7 
L 277.2 10.8 
" style="fill:none;stroke:#000000;stroke-linecap:square;stroke-linejoin:miter;stroke-width:0.8;"/>
   </g>
   <g id="patch_5">
    <path d="M 36.425 263.7 
L 277.2 263.7 
" style="fill:none;stroke:#000000;stroke-linecap:square;stroke-linejoin:miter;stroke-width:0.8;"/>
   </g>
   <g id="patch_6">
    <path d="M 36.425 10.8 
L 277.2 10.8 
" style="fill:none;stroke:#000000;stroke-linecap:square;stroke-linejoin:miter;stroke-width:0.8;"/>
   </g>
  </g>
 </g>
 <defs>
  <clipPath id="pba18be15db">
   <rect height="252.9" width="240.775" x="36.425" y="10.8"/>
  </clipPath>
 </defs>
</svg>
